Playpen-Th00LongSlow.ufo
<glyph name="numbersign" format="2">
  <advance width="740"/>
  <unicode hex="0023"/>
  <outline>
    <contour>
      <point x="133" y="-16" type="curve" smooth="yes"/>
      <point x="144" y="-18"/>
      <point x="149" y="-16"/>
      <point x="151" y="-8" type="curve" smooth="yes"/>
      <point x="336" y="700" type="line" smooth="yes"/>
      <point x="338" y="708"/>
      <point x="334" y="713"/>
      <point x="325" y="715" type="curve" smooth="yes"/>
      <point x="314" y="717"/>
      <point x="309" y="715"/>
      <point x="307" y="707" type="curve" smooth="yes"/>
      <point x="122" y="-1" type="line" smooth="yes"/>
      <point x="120" y="-9"/>
      <point x="123" y="-14"/>
    </contour>
    <contour>
      <point x="22" y="201" type="curve" smooth="yes"/>
      <point x="648" y="201" type="line" smooth="yes"/>
      <point x="657" y="201"/>
      <point x="660" y="205"/>
      <point x="660" y="214" type="curve" smooth="yes"/>
      <point x="660" y="224"/>
      <point x="657" y="229"/>
      <point x="648" y="229" type="curve" smooth="yes"/>
      <point x="22" y="229" type="line" smooth="yes"/>
      <point x="13" y="229"/>
      <point x="10" y="224"/>
      <point x="10" y="214" type="curve" smooth="yes"/>
      <point x="10" y="205"/>
      <point x="13" y="201"/>
    </contour>
    <contour>
      <point x="92" y="472" type="curve" smooth="yes"/>
      <point x="718" y="472" type="line" smooth="yes"/>
      <point x="727" y="472"/>
      <point x="730" y="476"/>
      <point x="730" y="485" type="curve" smooth="yes"/>
      <point x="730" y="495"/>
      <point x="727" y="500"/>
      <point x="718" y="500" type="curve" smooth="yes"/>
      <point x="92" y="500" type="line" smooth="yes"/>
      <point x="83" y="500"/>
      <point x="80" y="495"/>
      <point x="80" y="485" type="curve" smooth="yes"/>
      <point x="80" y="476"/>
      <point x="83" y="472"/>
    </contour>
    <contour>
      <point x="413" y="-16" type="curve" smooth="yes"/>
      <point x="424" y="-18"/>
      <point x="429" y="-16"/>
      <point x="431" y="-8" type="curve" smooth="yes"/>
      <point x="616" y="700" type="line" smooth="yes"/>
      <point x="618" y="708"/>
      <point x="614" y="713"/>
      <point x="605" y="715" type="curve" smooth="yes"/>
      <point x="594" y="717"/>
      <point x="589" y="715"/>
      <point x="587" y="707" type="curve" smooth="yes"/>
      <point x="402" y="-1" type="line" smooth="yes"/>
      <point x="400" y="-9"/>
      <point x="403" y="-14"/>
    </contour>
  </outline>
</glyph>
<glyph name="dollar" format="2">
  <advance width="853"/>
  <unicode hex="0024"/>
  <outline>
    <contour>
      <point x="421" y="-15" type="curve" smooth="yes"/>
      <point x="612" y="-15"/>
      <point x="748" y="122"/>
      <point x="748" y="306" type="curve" smooth="yes"/>
      <point x="748" y="484"/>
      <point x="608" y="562"/>
      <point x="467" y="624" type="curve" smooth="yes"/>
      <point x="335" y="682"/>
      <point x="188" y="747"/>
      <point x="188" y="924" type="curve" smooth="yes"/>
      <point x="188" y="1071"/>
      <point x="294" y="1182"/>
      <point x="440" y="1182" type="curve" smooth="yes"/>
      <point x="551" y="1182"/>
      <point x="625" y="1137"/>
      <point x="708" y="1063" type="curve" smooth="yes"/>
      <point x="719" y="1054"/>
      <point x="724" y="1051"/>
      <point x="733" y="1060" type="curve" smooth="yes"/>
      <point x="740" y="1067"/>
      <point x="740" y="1072"/>
      <point x="731" y="1080" type="curve" smooth="yes"/>
      <point x="663" y="1146"/>
      <point x="575" y="1212"/>
      <point x="440" y="1212" type="curve" smooth="yes"/>
      <point x="291" y="1212"/>
      <point x="156" y="1103"/>
      <point x="156" y="924" type="curve" smooth="yes"/>
      <point x="156" y="735"/>
      <point x="296" y="667"/>
      <point x="442" y="600" type="curve" smooth="yes"/>
      <point x="575" y="539"/>
      <point x="716" y="474"/>
      <point x="716" y="306" type="curve" smooth="yes"/>
      <point x="716" y="131"/>
      <point x="587" y="15"/>
      <point x="421" y="15" type="curve" smooth="yes"/>
      <point x="298" y="15"/>
      <point x="204" y="57"/>
      <point x="131" y="141" type="curve" smooth="yes"/>
      <point x="121" y="152"/>
      <point x="115" y="151"/>
      <point x="108" y="145" type="curve" smooth="yes"/>
      <point x="100" y="138"/>
      <point x="100" y="132"/>
      <point x="109" y="122" type="curve" smooth="yes"/>
      <point x="188" y="27"/>
      <point x="295" y="-15"/>
    </contour>
    <contour>
      <point x="436" y="-101" type="curve" smooth="yes"/>
      <point x="447" y="-101"/>
      <point x="451" y="-98"/>
      <point x="451" y="-89" type="curve" smooth="yes"/>
      <point x="451" y="1297" type="line" smooth="yes"/>
      <point x="451" y="1306"/>
      <point x="446" y="1309"/>
      <point x="436" y="1309" type="curve" smooth="yes"/>
      <point x="425" y="1309"/>
      <point x="421" y="1306"/>
      <point x="421" y="1297" type="curve" smooth="yes"/>
      <point x="421" y="-89" type="line" smooth="yes"/>
      <point x="421" y="-98"/>
      <point x="425" y="-101"/>
    </contour>
  </outline>
</glyph>
<glyph name="percent" format="2">
  <advance width="1275"/>
  <unicode hex="0025"/>
  <outline>
    <contour>
      <point x="341" y="878" type="curve" smooth="yes"/>
      <point x="489" y="878"/>
      <point x="579" y="999"/>
      <point x="579" y="1196" type="curve" smooth="yes"/>
      <point x="579" y="1394"/>
      <point x="489" y="1515"/>
      <point x="341" y="1515" type="curve" smooth="yes"/>
      <point x="194" y="1515"/>
      <point x="104" y="1394"/>
      <point x="104" y="1196" type="curve" smooth="yes"/>
      <point x="104" y="999"/>
      <point x="194" y="878"/>
    </contour>
    <contour>
      <point x="341" y="911" type="curve" smooth="yes"/>
      <point x="218" y="911"/>
      <point x="141" y="1006"/>
      <point x="141" y="1196" type="curve" smooth="yes"/>
      <point x="141" y="1386"/>
      <point x="218" y="1481"/>
      <point x="341" y="1481" type="curve" smooth="yes"/>
      <point x="466" y="1481"/>
      <point x="543" y="1386"/>
      <point x="543" y="1196" type="curve" smooth="yes"/>
      <point x="543" y="1006"/>
      <point x="466" y="911"/>
    </contour>
    <contour>
      <point x="249" y="-11" type="curve" smooth="yes"/>
      <point x="1055" y="1484" type="line" smooth="yes"/>
      <point x="1059" y="1491"/>
      <point x="1058" y="1499"/>
      <point x="1046" y="1505" type="curve" smooth="yes"/>
      <point x="1034" y="1513"/>
      <point x="1028" y="1511"/>
      <point x="1023" y="1503" type="curve" smooth="yes"/>
      <point x="216" y="8" type="line" smooth="yes"/>
      <point x="211" y="-2"/>
      <point x="211" y="-9"/>
      <point x="225" y="-15" type="curve" smooth="yes"/>
      <point x="238" y="-21"/>
      <point x="244" y="-21"/>
    </contour>
    <contour>
      <point x="934" y="-19" type="curve" smooth="yes"/>
      <point x="1081" y="-19"/>
      <point x="1171" y="103"/>
      <point x="1171" y="301" type="curve" smooth="yes"/>
      <point x="1171" y="499"/>
      <point x="1081" y="620"/>
      <point x="934" y="620" type="curve" smooth="yes"/>
      <point x="786" y="620"/>
      <point x="696" y="499"/>
      <point x="696" y="301" type="curve" smooth="yes"/>
      <point x="696" y="103"/>
      <point x="786" y="-19"/>
    </contour>
    <contour>
      <point x="934" y="16" type="curve" smooth="yes"/>
      <point x="810" y="16"/>
      <point x="734" y="111"/>
      <point x="734" y="301" type="curve" smooth="yes"/>
      <point x="734" y="491"/>
      <point x="810" y="586"/>
      <point x="934" y="586" type="curve" smooth="yes"/>
      <point x="1059" y="586"/>
      <point x="1135" y="491"/>
      <point x="1135" y="301" type="curve" smooth="yes"/>
      <point x="1135" y="111"/>
      <point x="1059" y="16"/>
    </contour>
  </outline>
</glyph>
<glyph name="ampersand" format="2">
  <advance width="1057"/>
  <unicode hex="0026"/>
  <outline>
    <contour>
      <point x="102" y="276" type="curve" smooth="yes"/>
      <point x="102" y="95"/>
      <point x="221" y="-15"/>
      <point x="416" y="-15" type="curve" smooth="yes"/>
      <point x="690" y="-15"/>
      <point x="888" y="248"/>
      <point x="888" y="610" type="curve" smooth="yes"/>
      <point x="888" y="619"/>
      <point x="883" y="622"/>
      <point x="873" y="622" type="curve" smooth="yes"/>
      <point x="863" y="622"/>
      <point x="859" y="619"/>
      <point x="859" y="610" type="curve" smooth="yes"/>
      <point x="859" y="265"/>
      <point x="673" y="15"/>
      <point x="416" y="15" type="curve" smooth="yes"/>
      <point x="241" y="15"/>
      <point x="135" y="116"/>
      <point x="135" y="282" type="curve" smooth="yes"/>
      <point x="135" y="653"/>
      <point x="662" y="634"/>
      <point x="662" y="973" type="curve" smooth="yes"/>
      <point x="662" y="1130"/>
      <point x="549" y="1212"/>
      <point x="434" y="1212" type="curve" smooth="yes"/>
      <point x="294" y="1212"/>
      <point x="193" y="1102"/>
      <point x="193" y="951" type="curve" smooth="yes"/>
      <point x="193" y="833"/>
      <point x="232" y="749"/>
      <point x="347" y="619" type="curve" smooth="yes"/>
      <point x="906" y="-7" type="line" smooth="yes"/>
      <point x="913" y="-15"/>
      <point x="919" y="-14"/>
      <point x="927" y="-7" type="curve" smooth="yes"/>
      <point x="934" y="-1"/>
      <point x="934" y="6"/>
      <point x="929" y="12" type="curve" smooth="yes"/>
      <point x="366" y="643" type="line" smooth="yes"/>
      <point x="261" y="761"/>
      <point x="225" y="839"/>
      <point x="225" y="952" type="curve" smooth="yes"/>
      <point x="225" y="1085"/>
      <point x="313" y="1182"/>
      <point x="434" y="1182" type="curve" smooth="yes"/>
      <point x="555" y="1182"/>
      <point x="631" y="1100"/>
      <point x="631" y="973" type="curve" smooth="yes"/>
      <point x="631" y="659"/>
      <point x="102" y="670"/>
    </contour>
  </outline>
</glyph>
<glyph name="quotesingle" format="2">
	<unicode hex="0027"/>
	<advance width="135"/>
	<outline>
		<contour>
			<point x="67" y="988" type="curve" smooth="yes"/>
			<point x="77" y="988"/>
			<point x="82" y="995"/>
			<point x="83" y="1006" type="curve" smooth="yes"/>
			<point x="92" y="1195" type="line" smooth="yes"/>
			<point x="93" y="1206"/>
			<point x="85" y="1215"/>
			<point x="67" y="1215" type="curve" smooth="yes"/>
			<point x="50" y="1215"/>
			<point x="42" y="1206"/>
			<point x="43" y="1195" type="curve" smooth="yes"/>
			<point x="52" y="1004" type="line" smooth="yes"/>
			<point x="52" y="994"/>
			<point x="58" y="988"/>
		</contour>
	</outline>
</glyph>
<glyph name="parenright" format="2">
	<unicode hex="0029"/>
	<advance width="389"/>
	<outline>
		<contour>
			<point x="107" y="-43" type="curve" smooth="yes"/>
			<point x="102" y="-53"/>
			<point x="105" y="-56"/>
			<point x="114" y="-60" type="curve" smooth="yes"/>
			<point x="124" y="-64"/>
			<point x="127" y="-63"/>
			<point x="131" y="-55" type="curve" smooth="yes"/>
			<point x="239" y="162"/>
			<point x="264" y="385"/>
			<point x="264" y="600" type="curve" smooth="yes"/>
			<point x="264" y="815"/>
			<point x="239" y="1038"/>
			<point x="131" y="1255" type="curve" smooth="yes"/>
			<point x="127" y="1263"/>
			<point x="124" y="1264"/>
			<point x="114" y="1260" type="curve" smooth="yes"/>
			<point x="105" y="1256"/>
			<point x="102" y="1253"/>
			<point x="107" y="1243" type="curve" smooth="yes"/>
			<point x="207" y="1042"/>
			<point x="234" y="818"/>
			<point x="234" y="600" type="curve" smooth="yes"/>
			<point x="234" y="382"/>
			<point x="207" y="158"/>
		</contour>
	</outline>
</glyph>
<glyph name="asterisk" format="2">
  <advance width="358"/>
  <unicode hex="002A"/>
  <outline>
    <contour>
      <point x="179" y="519" type="curve" smooth="yes"/>
      <point x="191" y="519"/>
      <point x="196" y="525"/>
      <point x="196" y="534" type="curve" smooth="yes"/>
      <point x="196" y="879" type="line" smooth="yes"/>
      <point x="196" y="888"/>
      <point x="191" y="894"/>
      <point x="179" y="894" type="curve" smooth="yes"/>
      <point x="166" y="894"/>
      <point x="161" y="888"/>
      <point x="161" y="879" type="curve" smooth="yes"/>
      <point x="161" y="534" type="line" smooth="yes"/>
      <point x="161" y="525"/>
      <point x="166" y="519"/>
    </contour>
    <contour>
      <point x="16" y="613" type="curve" smooth="yes"/>
      <point x="23" y="601"/>
      <point x="30" y="600"/>
      <point x="38" y="605" type="curve" smooth="yes"/>
      <point x="338" y="778" type="line" smooth="yes"/>
      <point x="345" y="781"/>
      <point x="348" y="789"/>
      <point x="341" y="800" type="curve" smooth="yes"/>
      <point x="335" y="811"/>
      <point x="328" y="813"/>
      <point x="320" y="808" type="curve" smooth="yes"/>
      <point x="20" y="635" type="line" smooth="yes"/>
      <point x="13" y="631"/>
      <point x="10" y="624"/>
    </contour>
    <contour>
      <point x="341" y="613" type="curve" smooth="yes"/>
      <point x="348" y="624"/>
      <point x="345" y="631"/>
      <point x="338" y="635" type="curve" smooth="yes"/>
      <point x="38" y="808" type="line" smooth="yes"/>
      <point x="30" y="813"/>
      <point x="23" y="811"/>
      <point x="16" y="800" type="curve" smooth="yes"/>
      <point x="10" y="789"/>
      <point x="13" y="781"/>
      <point x="20" y="778" type="curve" smooth="yes"/>
      <point x="320" y="605" type="line" smooth="yes"/>
      <point x="328" y="600"/>
      <point x="335" y="601"/>
    </contour>
  </outline>
</glyph>
<glyph name="plus" format="2">
  <advance width="610"/>
  <unicode hex="002B"/>
  <outline>
    <contour>
      <point x="304" y="124" type="curve" smooth="yes"/>
      <point x="314" y="124"/>
      <point x="319" y="127"/>
      <point x="319" y="136" type="curve" smooth="yes"/>
      <point x="319" y="562" type="line" smooth="yes"/>
      <point x="319" y="571"/>
      <point x="314" y="574"/>
      <point x="304" y="574" type="curve" smooth="yes"/>
      <point x="295" y="574"/>
      <point x="291" y="571"/>
      <point x="291" y="562" type="curve" smooth="yes"/>
      <point x="291" y="136" type="line" smooth="yes"/>
      <point x="291" y="127"/>
      <point x="295" y="124"/>
    </contour>
    <component base="minus"/>
  </outline>
</glyph>
<glyph name="period" format="2">
	<unicode hex="002E"/>
	<advance width="250"/>
	<outline>
		<contour>
			<point x="125" y="-11" type="curve" smooth="yes"/>
			<point x="146" y="-11"/>
			<point x="157" y="1"/>
			<point x="157" y="25" type="curve" smooth="yes"/>
			<point x="157" y="49"/>
			<point x="146" y="61"/>
			<point x="125" y="61" type="curve" smooth="yes"/>
			<point x="104" y="61"/>
			<point x="93" y="49"/>
			<point x="93" y="25" type="curve" smooth="yes"/>
			<point x="93" y="1"/>
			<point x="104" y="-11"/>
		</contour>
	</outline>
</glyph>
<glyph name="zero" format="2">
	<unicode hex="0030"/>
	<advance width="945"/>
	<outline>
		<contour>
			<point x="473" y="-15" type="curve" smooth="yes"/>
			<point x="699" y="-15"/>
			<point x="837" y="217"/>
			<point x="837" y="598" type="curve" smooth="yes"/>
			<point x="837" y="980"/>
			<point x="699" y="1212"/>
			<point x="473" y="1212" type="curve" smooth="yes"/>
			<point x="246" y="1212"/>
			<point x="108" y="980"/>
			<point x="108" y="598" type="curve" smooth="yes"/>
			<point x="108" y="217"/>
			<point x="246" y="-15"/>
		</contour>
		<contour>
			<point x="474" y="15" type="curve" smooth="yes"/>
			<point x="267" y="15"/>
			<point x="141" y="236"/>
			<point x="141" y="598" type="curve" smooth="yes"/>
			<point x="141" y="961"/>
			<point x="267" y="1182"/>
			<point x="474" y="1182" type="curve" smooth="yes"/>
			<point x="679" y="1182"/>
			<point x="804" y="961"/>
			<point x="804" y="598" type="curve" smooth="yes"/>
			<point x="804" y="236"/>
			<point x="679" y="15"/>
		</contour>
	</outline>
</glyph>
<glyph name="two" format="2">
  <advance width="1028"/>
  <unicode hex="0032"/>
  <outline>
    <contour>
      <point x="119" y="0" type="curve" smooth="yes"/>
      <point x="878" y="0" type="line" smooth="yes"/>
      <point x="884" y="0"/>
      <point x="889" y="6"/>
      <point x="889" y="19" type="curve" smooth="yes"/>
      <point x="889" y="31"/>
      <point x="884" y="35"/>
      <point x="878" y="35" type="curve" smooth="yes"/>
      <point x="166" y="35" type="line"/>
      <point x="343" y="229" type="line" smooth="yes"/>
      <point x="584" y="490"/>
      <point x="865" y="848"/>
      <point x="865" y="1138" type="curve" smooth="yes"/>
      <point x="865" y="1373"/>
      <point x="730" y="1515"/>
      <point x="508" y="1515" type="curve" smooth="yes"/>
      <point x="355" y="1515"/>
      <point x="218" y="1441"/>
      <point x="136" y="1349" type="curve" smooth="yes"/>
      <point x="128" y="1340"/>
      <point x="128" y="1331"/>
      <point x="136" y="1324" type="curve" smooth="yes"/>
      <point x="145" y="1316"/>
      <point x="154" y="1316"/>
      <point x="163" y="1325" type="curve" smooth="yes"/>
      <point x="263" y="1426"/>
      <point x="380" y="1478"/>
      <point x="511" y="1478" type="curve" smooth="yes"/>
      <point x="705" y="1478"/>
      <point x="824" y="1348"/>
      <point x="824" y="1135" type="curve" smooth="yes"/>
      <point x="824" y="876"/>
      <point x="589" y="556"/>
      <point x="330" y="271" type="curve" smooth="yes"/>
      <point x="109" y="28" type="line" smooth="yes"/>
      <point x="99" y="18"/>
      <point x="101" y="0"/>
    </contour>
  </outline>
</glyph>
<glyph name="three" format="2">
  <advance width="1126"/>
  <unicode hex="0033"/>
  <outline>
    <contour>
      <point x="535" y="-19" type="curve" smooth="yes"/>
      <point x="815" y="-19"/>
      <point x="971" y="158"/>
      <point x="971" y="408" type="curve" smooth="yes"/>
      <point x="971" y="603"/>
      <point x="864" y="758"/>
      <point x="641" y="798" type="curve"/>
      <point x="833" y="850"/>
      <point x="908" y="1018"/>
      <point x="908" y="1160" type="curve" smooth="yes"/>
      <point x="908" y="1395"/>
      <point x="739" y="1515"/>
      <point x="528" y="1515" type="curve" smooth="yes"/>
      <point x="369" y="1515"/>
      <point x="236" y="1461"/>
      <point x="135" y="1366" type="curve" smooth="yes"/>
      <point x="129" y="1360"/>
      <point x="123" y="1351"/>
      <point x="135" y="1340" type="curve" smooth="yes"/>
      <point x="145" y="1330"/>
      <point x="156" y="1336"/>
      <point x="164" y="1343" type="curve" smooth="yes"/>
      <point x="273" y="1434"/>
      <point x="373" y="1478"/>
      <point x="528" y="1478" type="curve" smooth="yes"/>
      <point x="711" y="1478"/>
      <point x="866" y="1370"/>
      <point x="866" y="1160" type="curve" smooth="yes"/>
      <point x="866" y="994"/>
      <point x="761" y="813"/>
      <point x="520" y="813" type="curve" smooth="yes"/>
      <point x="401" y="813" type="line" smooth="yes"/>
      <point x="395" y="813"/>
      <point x="390" y="808"/>
      <point x="390" y="795" type="curve" smooth="yes"/>
      <point x="390" y="783"/>
      <point x="395" y="778"/>
      <point x="401" y="778" type="curve" smooth="yes"/>
      <point x="520" y="778" type="line" smooth="yes"/>
      <point x="766" y="778"/>
      <point x="930" y="631"/>
      <point x="930" y="408" type="curve" smooth="yes"/>
      <point x="930" y="178"/>
      <point x="786" y="19"/>
      <point x="535" y="19" type="curve" smooth="yes"/>
      <point x="375" y="19"/>
      <point x="245" y="74"/>
      <point x="123" y="219" type="curve" smooth="yes"/>
      <point x="113" y="230"/>
      <point x="106" y="230"/>
      <point x="96" y="221" type="curve" smooth="yes"/>
      <point x="85" y="213"/>
      <point x="88" y="204"/>
      <point x="98" y="191" type="curve" smooth="yes"/>
      <point x="224" y="34"/>
      <point x="381" y="-19"/>
    </contour>
  </outline>
</glyph>
<glyph name="four" format="2">
	<unicode hex="0034"/>
	<advance width="918"/>
	<outline>
		<contour>
			<point x="88" y="371" type="curve" smooth="yes"/>
			<point x="850" y="371" type="line" smooth="yes"/>
			<point x="859" y="371"/>
			<point x="862" y="374"/>
			<point x="862" y="385" type="curve" smooth="yes"/>
			<point x="862" y="396"/>
			<point x="859" y="399"/>
			<point x="850" y="399" type="curve" smooth="yes"/>
			<point x="113" y="399" type="line"/>
			<point x="488" y="1195" type="line" smooth="yes"/>
			<point x="492" y="1203"/>
			<point x="490" y="1210"/>
			<point x="478" y="1212" type="curve" smooth="yes"/>
			<point x="469" y="1213"/>
			<point x="463" y="1211"/>
			<point x="459" y="1203" type="curve" smooth="yes"/>
			<point x="74" y="387" type="line" smooth="yes"/>
			<point x="68" y="375"/>
			<point x="77" y="371"/>
		</contour>
		<contour>
			<point x="689" y="-11" type="curve" smooth="yes"/>
			<point x="700" y="-11"/>
			<point x="704" y="-8"/>
			<point x="704" y="1" type="curve" smooth="yes"/>
			<point x="704" y="858" type="line" smooth="yes"/>
			<point x="704" y="867"/>
			<point x="700" y="870"/>
			<point x="689" y="870" type="curve" smooth="yes"/>
			<point x="678" y="870"/>
			<point x="674" y="867"/>
			<point x="674" y="858" type="curve" smooth="yes"/>
			<point x="674" y="1" type="line" smooth="yes"/>
			<point x="674" y="-8"/>
			<point x="678" y="-11"/>
		</contour>
	</outline>
</glyph>
<glyph name="five" format="2">
	<unicode hex="0035"/>
	<advance width="901"/>
	<outline>
		<contour>
			<point x="454" y="-15" type="curve" smooth="yes"/>
			<point x="665" y="-15"/>
			<point x="801" y="118"/>
			<point x="801" y="358" type="curve" smooth="yes"/>
			<point x="801" y="581"/>
			<point x="671" y="725"/>
			<point x="456" y="725" type="curve" smooth="yes"/>
			<point x="361" y="725"/>
			<point x="265" y="695"/>
			<point x="202" y="636" type="curve"/>
			<point x="222" y="1162" type="line"/>
			<point x="737" y="1162" type="line" smooth="yes"/>
			<point x="742" y="1162"/>
			<point x="746" y="1167"/>
			<point x="746" y="1177" type="curve" smooth="yes"/>
			<point x="746" y="1187"/>
			<point x="742" y="1190"/>
			<point x="737" y="1190" type="curve" smooth="yes"/>
			<point x="209" y="1190" type="line" smooth="yes"/>
			<point x="198" y="1190"/>
			<point x="193" y="1187"/>
			<point x="193" y="1178" type="curve" smooth="yes"/>
			<point x="171" y="603" type="line" smooth="yes"/>
			<point x="171" y="590"/>
			<point x="188" y="585"/>
			<point x="194" y="592" type="curve" smooth="yes"/>
			<point x="263" y="668"/>
			<point x="352" y="695"/>
			<point x="456" y="695" type="curve" smooth="yes"/>
			<point x="641" y="695"/>
			<point x="768" y="570"/>
			<point x="768" y="358" type="curve" smooth="yes"/>
			<point x="768" y="140"/>
			<point x="649" y="15"/>
			<point x="454" y="15" type="curve" smooth="yes"/>
			<point x="335" y="15"/>
			<point x="231" y="58"/>
			<point x="133" y="174" type="curve" smooth="yes"/>
			<point x="125" y="183"/>
			<point x="120" y="183"/>
			<point x="112" y="176" type="curve" smooth="yes"/>
			<point x="103" y="169"/>
			<point x="105" y="162"/>
			<point x="113" y="152" type="curve" smooth="yes"/>
			<point x="214" y="26"/>
			<point x="340" y="-15"/>
		</contour>
	</outline>
</glyph>
<glyph name="six" format="2">
  <advance width="1210"/>
  <unicode hex="0036"/>
  <outline>
    <contour>
      <point x="638" y="-19" type="curve" smooth="yes"/>
      <point x="906" y="-19"/>
      <point x="1069" y="155"/>
      <point x="1069" y="435" type="curve" smooth="yes"/>
      <point x="1069" y="710"/>
      <point x="911" y="881"/>
      <point x="651" y="881" type="curve" smooth="yes"/>
      <point x="453" y="881"/>
      <point x="263" y="758"/>
      <point x="206" y="593" type="curve"/>
      <point x="209" y="516" type="line"/>
      <point x="256" y="701"/>
      <point x="449" y="844"/>
      <point x="650" y="844" type="curve" smooth="yes"/>
      <point x="881" y="844"/>
      <point x="1028" y="694"/>
      <point x="1028" y="435" type="curve" smooth="yes"/>
      <point x="1028" y="174"/>
      <point x="880" y="19"/>
      <point x="638" y="19" type="curve" smooth="yes"/>
      <point x="408" y="19"/>
      <point x="225" y="200"/>
      <point x="225" y="609" type="curve" smooth="yes"/>
      <point x="225" y="1086"/>
      <point x="354" y="1438"/>
      <point x="898" y="1483" type="curve" smooth="yes"/>
      <point x="910" y="1484"/>
      <point x="911" y="1491"/>
      <point x="910" y="1501" type="curve" smooth="yes"/>
      <point x="909" y="1516"/>
      <point x="903" y="1516"/>
      <point x="883" y="1515" type="curve" smooth="yes"/>
      <point x="313" y="1473"/>
      <point x="184" y="1086"/>
      <point x="184" y="609" type="curve" smooth="yes"/>
      <point x="184" y="224"/>
      <point x="349" y="-19"/>
    </contour>
  </outline>
</glyph>
<glyph name="seven" format="2">
	<unicode hex="0037"/>
	<advance width="731"/>
	<outline>
		<contour>
			<point x="200" y="-10" type="curve" smooth="yes"/>
			<point x="211" y="-14"/>
			<point x="215" y="-11"/>
			<point x="220" y="2" type="curve" smooth="yes"/>
			<point x="700" y="1175" type="line" smooth="yes"/>
			<point x="704" y="1185"/>
			<point x="697" y="1190"/>
			<point x="690" y="1190" type="curve" smooth="yes"/>
			<point x="46" y="1190" type="line" smooth="yes"/>
			<point x="41" y="1190"/>
			<point x="37" y="1187"/>
			<point x="37" y="1177" type="curve" smooth="yes"/>
			<point x="37" y="1167"/>
			<point x="41" y="1162"/>
			<point x="46" y="1162" type="curve" smooth="yes"/>
			<point x="665" y="1162" type="line"/>
			<point x="192" y="7" type="line" smooth="yes"/>
			<point x="189" y="-1"/>
			<point x="190" y="-6"/>
		</contour>
	</outline>
</glyph>
<glyph name="eight" format="2">
	<unicode hex="0038"/>
	<advance width="901"/>
	<outline>
		<contour>
			<point x="451" y="-15" type="curve" smooth="yes"/>
			<point x="675" y="-15"/>
			<point x="810" y="115"/>
			<point x="810" y="316" type="curve" smooth="yes"/>
			<point x="810" y="461"/>
			<point x="733" y="584"/>
			<point x="510" y="645" type="curve"/>
			<point x="686" y="702"/>
			<point x="761" y="823"/>
			<point x="761" y="953" type="curve" smooth="yes"/>
			<point x="761" y="1129"/>
			<point x="628" y="1212"/>
			<point x="455" y="1212" type="curve" smooth="yes"/>
			<point x="290" y="1212"/>
			<point x="141" y="1118"/>
			<point x="141" y="934" type="curve" smooth="yes"/>
			<point x="141" y="800"/>
			<point x="219" y="695"/>
			<point x="397" y="647" type="curve"/>
			<point x="186" y="588"/>
			<point x="91" y="450"/>
			<point x="91" y="289" type="curve" smooth="yes"/>
			<point x="91" y="98"/>
			<point x="231" y="-15"/>
		</contour>
		<contour>
			<point x="451" y="15" type="curve" smooth="yes"/>
			<point x="255" y="15"/>
			<point x="124" y="113"/>
			<point x="124" y="289" type="curve" smooth="yes"/>
			<point x="124" y="467"/>
			<point x="252" y="588"/>
			<point x="459" y="629" type="curve"/>
			<point x="654" y="587"/>
			<point x="777" y="481"/>
			<point x="777" y="316" type="curve" smooth="yes"/>
			<point x="777" y="131"/>
			<point x="650" y="15"/>
		</contour>
		<contour>
			<point x="455" y="659" type="curve"/>
			<point x="261" y="699"/>
			<point x="174" y="801"/>
			<point x="174" y="934" type="curve" smooth="yes"/>
			<point x="174" y="1099"/>
			<point x="308" y="1182"/>
			<point x="455" y="1182" type="curve" smooth="yes"/>
			<point x="595" y="1182"/>
			<point x="728" y="1119"/>
			<point x="728" y="953" type="curve" smooth="yes"/>
			<point x="728" y="824"/>
			<point x="649" y="703"/>
		</contour>
	</outline>
</glyph>
<glyph name="less" format="2">
  <advance width="610"/>
  <unicode hex="003C"/>
  <outline>
    <contour>
      <point x="512" y="143" type="line" smooth="yes"/>
      <point x="521" y="139"/>
      <point x="527" y="140"/>
      <point x="530" y="149" type="curve" smooth="yes"/>
      <point x="533" y="157"/>
      <point x="533" y="164"/>
      <point x="524" y="168" type="curve" smooth="yes"/>
      <point x="117" y="349" type="line"/>
      <point x="524" y="530" type="line" smooth="yes"/>
      <point x="533" y="534"/>
      <point x="533" y="541"/>
      <point x="530" y="549" type="curve" smooth="yes"/>
      <point x="527" y="558"/>
      <point x="521" y="559"/>
      <point x="512" y="555" type="curve" smooth="yes"/>
      <point x="105" y="374" type="line" smooth="yes"/>
      <point x="87" y="366"/>
      <point x="80" y="363"/>
      <point x="80" y="349" type="curve" smooth="yes"/>
      <point x="80" y="336"/>
      <point x="87" y="332"/>
      <point x="105" y="324" type="curve" smooth="yes"/>
    </contour>
  </outline>
</glyph>
<glyph name="question" format="2">
  <advance width="846"/>
  <unicode hex="003F"/>
  <outline>
    <contour>
      <point x="330" y="216" type="curve" smooth="yes"/>
      <point x="344" y="216"/>
      <point x="349" y="219"/>
      <point x="349" y="233" type="curve" smooth="yes"/>
      <point x="349" y="645" type="line"/>
      <point x="625" y="654"/>
      <point x="793" y="823"/>
      <point x="793" y="1089" type="curve" smooth="yes"/>
      <point x="793" y="1354"/>
      <point x="648" y="1515"/>
      <point x="409" y="1515" type="curve" smooth="yes"/>
      <point x="273" y="1515"/>
      <point x="144" y="1463"/>
      <point x="29" y="1360" type="curve" smooth="yes"/>
      <point x="21" y="1353"/>
      <point x="23" y="1345"/>
      <point x="30" y="1336" type="curve" smooth="yes"/>
      <point x="38" y="1328"/>
      <point x="45" y="1326"/>
      <point x="51" y="1333" type="curve" smooth="yes"/>
      <point x="163" y="1429"/>
      <point x="284" y="1478"/>
      <point x="409" y="1478" type="curve" smooth="yes"/>
      <point x="621" y="1478"/>
      <point x="751" y="1330"/>
      <point x="751" y="1089" type="curve" smooth="yes"/>
      <point x="751" y="835"/>
      <point x="590" y="680"/>
      <point x="324" y="680" type="curve" smooth="yes"/>
      <point x="316" y="680"/>
      <point x="311" y="675"/>
      <point x="311" y="663" type="curve" smooth="yes"/>
      <point x="311" y="233" type="line" smooth="yes"/>
      <point x="311" y="219"/>
      <point x="316" y="216"/>
    </contour>
    <contour>
      <point x="330" y="-14" type="curve" smooth="yes"/>
      <point x="356" y="-14"/>
      <point x="370" y="1"/>
      <point x="370" y="31" type="curve" smooth="yes"/>
      <point x="370" y="61"/>
      <point x="356" y="76"/>
      <point x="330" y="76" type="curve" smooth="yes"/>
      <point x="304" y="76"/>
      <point x="290" y="61"/>
      <point x="290" y="31" type="curve" smooth="yes"/>
      <point x="290" y="1"/>
      <point x="304" y="-14"/>
    </contour>
  </outline>
</glyph>
<glyph name="A" format="2">
  <advance width="1162"/>
  <unicode hex="0041"/>
  <guideline x="23" y="-11" angle="0"/>
  <anchor x="581" y="0" name="bottom"/>
  <anchor x="1113" y="-4" name="ogonek"/>
  <anchor x="581" y="1424" name="top"/>
  <outline>
    <contour>
      <point x="68" y="-12" type="curve" smooth="yes"/>
      <point x="81" y="-17"/>
      <point x="88" y="-12"/>
      <point x="93" y="3" type="curve" smooth="yes"/>
      <point x="251" y="476" type="line"/>
      <point x="911" y="476" type="line"/>
      <point x="1069" y="3" type="line" smooth="yes"/>
      <point x="1074" y="-14"/>
      <point x="1080" y="-17"/>
      <point x="1094" y="-12" type="curve" smooth="yes"/>
      <point x="1106" y="-7"/>
      <point x="1108" y="-2"/>
      <point x="1104" y="9" type="curve" smooth="yes"/>
      <point x="601" y="1500" type="line" smooth="yes"/>
      <point x="598" y="1511"/>
      <point x="593" y="1515"/>
      <point x="580" y="1515" type="curve" smooth="yes"/>
      <point x="566" y="1515"/>
      <point x="561" y="1511"/>
      <point x="558" y="1500" type="curve" smooth="yes"/>
      <point x="58" y="9" type="line" smooth="yes"/>
      <point x="54" y="-2"/>
      <point x="55" y="-7"/>
    </contour>
    <contour>
      <point x="265" y="511" type="line"/>
      <point x="580" y="1459" type="line"/>
      <point x="895" y="511" type="line"/>
    </contour>
  </outline>
</glyph>
<glyph name="B" format="2">
	<unicode hex="0042"/>
	<advance width="900"/>
	<outline>
		<contour>
			<point x="208" y="0" type="curve" smooth="yes"/>
			<point x="429" y="0" type="line" smooth="yes"/>
			<point x="676" y="0"/>
			<point x="837" y="150"/>
			<point x="837" y="369" type="curve" smooth="yes"/>
			<point x="837" y="557"/>
			<point x="694" y="630"/>
			<point x="539" y="633" type="curve"/>
			<point x="539" y="638" type="line"/>
			<point x="644" y="645"/>
			<point x="790" y="745"/>
			<point x="790" y="942" type="curve" smooth="yes"/>
			<point x="790" y="1107"/>
			<point x="684" y="1190"/>
			<point x="472" y="1190" type="curve" smooth="yes"/>
			<point x="209" y="1190" type="line" smooth="yes"/>
			<point x="198" y="1190"/>
			<point x="193" y="1187"/>
			<point x="193" y="1178" type="curve" smooth="yes"/>
			<point x="193" y="12" type="line" smooth="yes"/>
			<point x="193" y="3"/>
			<point x="197" y="0"/>
		</contour>
		<contour>
			<point x="223" y="28" type="line"/>
			<point x="223" y="615" type="line"/>
			<point x="464" y="615" type="line" smooth="yes"/>
			<point x="648" y="615"/>
			<point x="804" y="554"/>
			<point x="804" y="367" type="curve" smooth="yes"/>
			<point x="804" y="160"/>
			<point x="641" y="28"/>
			<point x="429" y="28" type="curve" smooth="yes"/>
		</contour>
		<contour>
			<point x="223" y="643" type="line"/>
			<point x="223" y="1162" type="line"/>
			<point x="472" y="1162" type="line" smooth="yes"/>
			<point x="662" y="1162"/>
			<point x="758" y="1089"/>
			<point x="758" y="940" type="curve" smooth="yes"/>
			<point x="758" y="750"/>
			<point x="606" y="643"/>
			<point x="435" y="643" type="curve" smooth="yes"/>
		</contour>
	</outline>
	<anchor name="bottom" x="449" y="0"/>
	<anchor name="center" x="210" y="350"/>
	<anchor name="top" x="449" y="1139"/>
	<guideline x="429" y="672" angle="0"/>
	<guideline x="323" y="420" angle="270"/>
</glyph>
<glyph name="C" format="2">
  <advance width="1201"/>
  <unicode hex="0043"/>
  <anchor x="683" y="0" name="bottom"/>
  <anchor x="708" y="1424" name="top"/>
  <outline>
    <contour>
      <point x="688" y="-19" type="curve" smooth="yes"/>
      <point x="859" y="-19"/>
      <point x="973" y="58"/>
      <point x="1113" y="214" type="curve" smooth="yes"/>
      <point x="1123" y="225"/>
      <point x="1123" y="231"/>
      <point x="1113" y="240" type="curve" smooth="yes"/>
      <point x="1101" y="250"/>
      <point x="1095" y="248"/>
      <point x="1084" y="235" type="curve" smooth="yes"/>
      <point x="966" y="104"/>
      <point x="856" y="19"/>
      <point x="688" y="19" type="curve" smooth="yes"/>
      <point x="383" y="19"/>
      <point x="191" y="314"/>
      <point x="191" y="741" type="curve" smooth="yes"/>
      <point x="191" y="1188"/>
      <point x="416" y="1478"/>
      <point x="724" y="1478" type="curve" smooth="yes"/>
      <point x="841" y="1478"/>
      <point x="955" y="1434"/>
      <point x="1053" y="1325" type="curve" smooth="yes"/>
      <point x="1064" y="1313"/>
      <point x="1070" y="1310"/>
      <point x="1081" y="1320" type="curve" smooth="yes"/>
      <point x="1091" y="1329"/>
      <point x="1091" y="1335"/>
      <point x="1081" y="1346" type="curve" smooth="yes"/>
      <point x="993" y="1454"/>
      <point x="858" y="1515"/>
      <point x="724" y="1515" type="curve" smooth="yes"/>
      <point x="395" y="1515"/>
      <point x="150" y="1219"/>
      <point x="150" y="741" type="curve" smooth="yes"/>
      <point x="150" y="278"/>
      <point x="361" y="-19"/>
    </contour>
  </outline>
</glyph>
<glyph name="D" format="2">
  <advance width="1077"/>
  <unicode hex="0044"/>
  <anchor x="491" y="0" name="bottom"/>
  <anchor x="268" y="593" name="center"/>
  <anchor x="505" y="1139" name="top"/>
  <outline>
    <contour>
      <point x="208" y="0" type="curve" smooth="yes"/>
      <point x="366" y="0" type="line" smooth="yes"/>
      <point x="723" y="0"/>
      <point x="957" y="260"/>
      <point x="957" y="656" type="curve" smooth="yes"/>
      <point x="957" y="1005"/>
      <point x="775" y="1190"/>
      <point x="434" y="1190" type="curve" smooth="yes"/>
      <point x="209" y="1190" type="line" smooth="yes"/>
      <point x="198" y="1190"/>
      <point x="193" y="1187"/>
      <point x="193" y="1178" type="curve" smooth="yes"/>
      <point x="193" y="12" type="line" smooth="yes"/>
      <point x="193" y="3"/>
      <point x="197" y="0"/>
    </contour>
    <contour>
      <point x="224" y="28" type="line"/>
      <point x="224" y="1162" type="line"/>
      <point x="434" y="1162" type="line" smooth="yes"/>
      <point x="754" y="1162"/>
      <point x="924" y="986"/>
      <point x="924" y="656" type="curve" smooth="yes"/>
      <point x="924" y="277"/>
      <point x="702" y="28"/>
      <point x="364" y="28" type="curve" smooth="yes"/>
    </contour>
  </outline>
</glyph>
<glyph name="F" format="2">
  <advance width="968"/>
  <unicode hex="0046"/>
  <outline>
    <contour>
      <point x="260" y="-14" type="curve" smooth="yes"/>
      <point x="274" y="-14"/>
      <point x="279" y="-10"/>
      <point x="279" y="1" type="curve" smooth="yes"/>
      <point x="279" y="726" type="line"/>
      <point x="818" y="726" type="line" smooth="yes"/>
      <point x="824" y="726"/>
      <point x="829" y="731"/>
      <point x="829" y="744" type="curve" smooth="yes"/>
      <point x="829" y="756"/>
      <point x="824" y="761"/>
      <point x="818" y="761" type="curve" smooth="yes"/>
      <point x="279" y="761" type="line"/>
      <point x="279" y="1453" type="line"/>
      <point x="914" y="1453" type="line" smooth="yes"/>
      <point x="920" y="1453"/>
      <point x="925" y="1458"/>
      <point x="925" y="1470" type="curve" smooth="yes"/>
      <point x="925" y="1483"/>
      <point x="920" y="1488"/>
      <point x="914" y="1488" type="curve" smooth="yes"/>
      <point x="261" y="1488" type="line" smooth="yes"/>
      <point x="248" y="1488"/>
      <point x="241" y="1484"/>
      <point x="241" y="1473" type="curve" smooth="yes"/>
      <point x="241" y="1" type="line" smooth="yes"/>
      <point x="241" y="-10"/>
      <point x="246" y="-14"/>
    </contour>
  </outline>
</glyph>
<glyph name="G" format="2">
  <advance width="1356"/>
  <unicode hex="0047"/>
  <anchor x="679" y="0" name="bottom"/>
  <anchor x="698" y="1424" name="top"/>
  <outline>
    <contour>
      <point x="674" y="-19" type="curve" smooth="yes"/>
      <point x="979" y="-19"/>
      <point x="1173" y="216"/>
      <point x="1173" y="755" type="curve" smooth="yes"/>
      <point x="1173" y="766"/>
      <point x="1168" y="770"/>
      <point x="1154" y="770" type="curve" smooth="yes"/>
      <point x="725" y="770" type="line" smooth="yes"/>
      <point x="719" y="770"/>
      <point x="714" y="765"/>
      <point x="714" y="753" type="curve" smooth="yes"/>
      <point x="714" y="740"/>
      <point x="719" y="735"/>
      <point x="725" y="735" type="curve" smooth="yes"/>
      <point x="1134" y="735" type="line"/>
      <point x="1134" y="199"/>
      <point x="924" y="19"/>
      <point x="674" y="19" type="curve" smooth="yes"/>
      <point x="383" y="19"/>
      <point x="191" y="308"/>
      <point x="191" y="749" type="curve" smooth="yes"/>
      <point x="191" y="1193"/>
      <point x="416" y="1478"/>
      <point x="724" y="1478" type="curve" smooth="yes"/>
      <point x="844" y="1478"/>
      <point x="938" y="1428"/>
      <point x="1029" y="1325" type="curve" smooth="yes"/>
      <point x="1040" y="1313"/>
      <point x="1046" y="1310"/>
      <point x="1058" y="1320" type="curve" smooth="yes"/>
      <point x="1068" y="1329"/>
      <point x="1068" y="1335"/>
      <point x="1058" y="1346" type="curve" smooth="yes"/>
      <point x="968" y="1455"/>
      <point x="860" y="1515"/>
      <point x="724" y="1515" type="curve" smooth="yes"/>
      <point x="395" y="1515"/>
      <point x="150" y="1224"/>
      <point x="150" y="749" type="curve" smooth="yes"/>
      <point x="150" y="271"/>
      <point x="361" y="-19"/>
    </contour>
  </outline>
</glyph>
<glyph name="H" format="2">
  <advance width="1375"/>
  <unicode hex="0048"/>
  <anchor x="688" y="0" name="bottom"/>
  <anchor x="688" y="1163" name="center"/>
  <anchor x="688" y="1424" name="top"/>
  <outline>
    <contour>
      <point x="260" y="-14" type="curve" smooth="yes"/>
      <point x="274" y="-14"/>
      <point x="279" y="-10"/>
      <point x="279" y="1" type="curve" smooth="yes"/>
      <point x="279" y="763" type="line"/>
      <point x="1096" y="763" type="line"/>
      <point x="1096" y="1" type="line" smooth="yes"/>
      <point x="1096" y="-10"/>
      <point x="1103" y="-14"/>
      <point x="1115" y="-14" type="curve" smooth="yes"/>
      <point x="1129" y="-14"/>
      <point x="1134" y="-10"/>
      <point x="1134" y="1" type="curve" smooth="yes"/>
      <point x="1134" y="1500" type="line" smooth="yes"/>
      <point x="1134" y="1511"/>
      <point x="1129" y="1515"/>
      <point x="1115" y="1515" type="curve" smooth="yes"/>
      <point x="1103" y="1515"/>
      <point x="1096" y="1511"/>
      <point x="1096" y="1500" type="curve" smooth="yes"/>
      <point x="1096" y="798" type="line"/>
      <point x="279" y="798" type="line"/>
      <point x="279" y="1500" type="line" smooth="yes"/>
      <point x="279" y="1511"/>
      <point x="274" y="1515"/>
      <point x="260" y="1515" type="curve" smooth="yes"/>
      <point x="246" y="1515"/>
      <point x="241" y="1511"/>
      <point x="241" y="1500" type="curve" smooth="yes"/>
      <point x="241" y="1" type="line" smooth="yes"/>
      <point x="241" y="-10"/>
      <point x="246" y="-14"/>
    </contour>
  </outline>
</glyph>
<glyph name="I" format="2">
	<unicode hex="0049"/>
	<advance width="418"/>
	<outline>
		<contour>
			<point x="209" y="-11" type="curve" smooth="yes"/>
			<point x="220" y="-11"/>
			<point x="224" y="-8"/>
			<point x="224" y="1" type="curve" smooth="yes"/>
			<point x="224" y="1200" type="line" smooth="yes"/>
			<point x="224" y="1209"/>
			<point x="219" y="1212"/>
			<point x="209" y="1212" type="curve" smooth="yes"/>
			<point x="198" y="1212"/>
			<point x="194" y="1209"/>
			<point x="194" y="1200" type="curve" smooth="yes"/>
			<point x="194" y="1" type="line" smooth="yes"/>
			<point x="194" y="-8"/>
			<point x="198" y="-11"/>
		</contour>
	</outline>
	<anchor name="bottom" x="209" y="0"/>
	<anchor name="ogonek" x="232" y="-7"/>
	<anchor name="top" x="209" y="1139"/>
</glyph>
<glyph name="J" format="2">
	<unicode hex="004A"/>
	<advance width="805"/>
	<outline>
		<contour>
			<point x="357" y="-15" type="curve" smooth="yes"/>
			<point x="544" y="-15"/>
			<point x="635" y="108"/>
			<point x="635" y="353" type="curve" smooth="yes"/>
			<point x="635" y="1197" type="line" smooth="yes"/>
			<point x="635" y="1209"/>
			<point x="631" y="1212"/>
			<point x="619" y="1212" type="curve" smooth="yes"/>
			<point x="606" y="1212"/>
			<point x="603" y="1209"/>
			<point x="603" y="1197" type="curve" smooth="yes"/>
			<point x="603" y="349" type="line" smooth="yes"/>
			<point x="603" y="132"/>
			<point x="529" y="15"/>
			<point x="357" y="15" type="curve" smooth="yes"/>
			<point x="227" y="15"/>
			<point x="150" y="79"/>
			<point x="117" y="213" type="curve" smooth="yes"/>
			<point x="113" y="230"/>
			<point x="109" y="236"/>
			<point x="97" y="233" type="curve" smooth="yes"/>
			<point x="85" y="230"/>
			<point x="85" y="223"/>
			<point x="89" y="204" type="curve" smooth="yes"/>
			<point x="122" y="61"/>
			<point x="212" y="-15"/>
		</contour>
	</outline>
	<anchor name="bottom" x="372" y="0"/>
	<anchor name="top" x="620" y="1139"/>
</glyph>
<glyph name="K" format="2">
  <advance width="852"/>
  <unicode hex="004B"/>
  <anchor x="472" y="0" name="bottom"/>
  <anchor x="472" y="1139" name="top"/>
  <outline>
    <contour>
      <point x="208" y="-11" type="curve" smooth="yes"/>
      <point x="219" y="-11"/>
      <point x="223" y="-8"/>
      <point x="223" y="1" type="curve" smooth="yes"/>
      <point x="223" y="624" type="line"/>
      <point x="381" y="419"/>
      <point x="591" y="167"/>
      <point x="793" y="-8" type="curve" smooth="yes"/>
      <point x="800" y="-14"/>
      <point x="805" y="-16"/>
      <point x="813" y="-8" type="curve" smooth="yes"/>
      <point x="821" y="0"/>
      <point x="823" y="5"/>
      <point x="816" y="11" type="curve" smooth="yes"/>
      <point x="614" y="189"/>
      <point x="419" y="417"/>
      <point x="257" y="630" type="curve"/>
      <point x="804" y="1189" type="line" smooth="yes"/>
      <point x="811" y="1196"/>
      <point x="811" y="1200"/>
      <point x="803" y="1208" type="curve" smooth="yes"/>
      <point x="795" y="1216"/>
      <point x="790" y="1215"/>
      <point x="783" y="1208" type="curve" smooth="yes"/>
      <point x="223" y="634" type="line"/>
      <point x="223" y="1200" type="line" smooth="yes"/>
      <point x="223" y="1209"/>
      <point x="219" y="1212"/>
      <point x="208" y="1212" type="curve" smooth="yes"/>
      <point x="197" y="1212"/>
      <point x="193" y="1209"/>
      <point x="193" y="1200" type="curve" smooth="yes"/>
      <point x="193" y="1" type="line" smooth="yes"/>
      <point x="193" y="-8"/>
      <point x="197" y="-11"/>
    </contour>
  </outline>
</glyph>
<glyph name="M" format="2">
	<unicode hex="004D"/>
	<advance width="1300"/>
	<outline>
		<contour>
			<point x="208" y="-11" type="curve" smooth="yes"/>
			<point x="219" y="-11"/>
			<point x="223" y="-8"/>
			<point x="223" y="1" type="curve" smooth="yes"/>
			<point x="223" y="1152" type="line"/>
			<point x="633" y="390" type="line" smooth="yes"/>
			<point x="638" y="380"/>
			<point x="642" y="378"/>
			<point x="651" y="378" type="curve" smooth="yes"/>
			<point x="659" y="378"/>
			<point x="664" y="379"/>
			<point x="670" y="390" type="curve" smooth="yes"/>
			<point x="1077" y="1152" type="line"/>
			<point x="1077" y="1" type="line" smooth="yes"/>
			<point x="1077" y="-8"/>
			<point x="1081" y="-11"/>
			<point x="1092" y="-11" type="curve" smooth="yes"/>
			<point x="1103" y="-11"/>
			<point x="1107" y="-8"/>
			<point x="1107" y="1" type="curve" smooth="yes"/>
			<point x="1107" y="1200" type="line" smooth="yes"/>
			<point x="1107" y="1209"/>
			<point x="1103" y="1212"/>
			<point x="1092" y="1212" type="curve" smooth="yes"/>
			<point x="1079" y="1212"/>
			<point x="1075" y="1210"/>
			<point x="1071" y="1202" type="curve" smooth="yes"/>
			<point x="652" y="413" type="line"/>
			<point x="229" y="1202" type="line" smooth="yes"/>
			<point x="225" y="1210"/>
			<point x="220" y="1212"/>
			<point x="209" y="1212" type="curve" smooth="yes"/>
			<point x="198" y="1212"/>
			<point x="193" y="1209"/>
			<point x="193" y="1200" type="curve" smooth="yes"/>
			<point x="193" y="1" type="line" smooth="yes"/>
			<point x="193" y="-8"/>
			<point x="197" y="-11"/>
		</contour>
	</outline>
	<anchor name="bottom" x="651" y="0"/>
	<anchor name="top" x="651" y="1139"/>
</glyph>
<glyph name="N" format="2">
	<unicode hex="004E"/>
	<advance width="1100"/>
	<outline>
		<contour>
			<point x="208" y="-11" type="curve" smooth="yes"/>
			<point x="219" y="-11"/>
			<point x="223" y="-8"/>
			<point x="223" y="1" type="curve" smooth="yes"/>
			<point x="223" y="1148" type="line"/>
			<point x="876" y="-2" type="line" smooth="yes"/>
			<point x="879" y="-8"/>
			<point x="883" y="-11"/>
			<point x="893" y="-11" type="curve" smooth="yes"/>
			<point x="902" y="-11"/>
			<point x="907" y="-8"/>
			<point x="907" y="1" type="curve" smooth="yes"/>
			<point x="907" y="1200" type="line" smooth="yes"/>
			<point x="907" y="1209"/>
			<point x="903" y="1212"/>
			<point x="892" y="1212" type="curve" smooth="yes"/>
			<point x="881" y="1212"/>
			<point x="877" y="1209"/>
			<point x="877" y="1200" type="curve" smooth="yes"/>
			<point x="877" y="54" type="line"/>
			<point x="224" y="1205" type="line" smooth="yes"/>
			<point x="221" y="1210"/>
			<point x="217" y="1212"/>
			<point x="207" y="1212" type="curve" smooth="yes"/>
			<point x="198" y="1212"/>
			<point x="193" y="1209"/>
			<point x="193" y="1200" type="curve" smooth="yes"/>
			<point x="193" y="1" type="line" smooth="yes"/>
			<point x="193" y="-8"/>
			<point x="197" y="-11"/>
		</contour>
	</outline>
	<anchor name="bottom" x="550" y="0"/>
	<anchor name="top" x="550" y="1139"/>
</glyph>
<glyph name="O" format="2">
	<unicode hex="004F"/>
	<advance width="1147"/>
	<outline>
		<contour>
			<point x="575" y="-15" type="curve" smooth="yes"/>
			<point x="848" y="-15"/>
			<point x="1027" y="228"/>
			<point x="1027" y="599" type="curve" smooth="yes"/>
			<point x="1027" y="969"/>
			<point x="848" y="1212"/>
			<point x="575" y="1212" type="curve" smooth="yes"/>
			<point x="300" y="1212"/>
			<point x="120" y="969"/>
			<point x="120" y="599" type="curve" smooth="yes"/>
			<point x="120" y="228"/>
			<point x="300" y="-15"/>
		</contour>
		<contour>
			<point x="575" y="15" type="curve" smooth="yes"/>
			<point x="320" y="15"/>
			<point x="153" y="246"/>
			<point x="153" y="599" type="curve" smooth="yes"/>
			<point x="153" y="951"/>
			<point x="320" y="1182"/>
			<point x="575" y="1182" type="curve" smooth="yes"/>
			<point x="828" y="1182"/>
			<point x="994" y="951"/>
			<point x="994" y="599" type="curve" smooth="yes"/>
			<point x="994" y="246"/>
			<point x="828" y="15"/>
		</contour>
	</outline>
	<anchor name="bottom" x="574" y="0"/>
	<anchor name="center" x="574" y="595"/>
	<anchor name="ogonek" x="733" y="9"/>
	<anchor name="top" x="574" y="1139"/>
	<anchor name="topright" x="803" y="1139"/>
</glyph>
<glyph name="P" format="2">
  <advance width="868"/>
  <unicode hex="0050"/>
  <guideline x="288" y="630" angle="270"/>
  <outline>
    <contour>
      <point x="208" y="-11" type="curve" smooth="yes"/>
      <point x="219" y="-11"/>
      <point x="223" y="-8"/>
      <point x="223" y="1" type="curve" smooth="yes"/>
      <point x="223" y="509" type="line"/>
      <point x="285" y="513"/>
      <point x="346" y="518"/>
      <point x="411" y="525" type="curve" smooth="yes"/>
      <point x="659" y="550"/>
      <point x="802" y="682"/>
      <point x="802" y="893" type="curve" smooth="yes"/>
      <point x="802" y="1107"/>
      <point x="678" y="1190"/>
      <point x="446" y="1190" type="curve" smooth="yes"/>
      <point x="209" y="1190" type="line" smooth="yes"/>
      <point x="198" y="1190"/>
      <point x="193" y="1187"/>
      <point x="193" y="1178" type="curve" smooth="yes"/>
      <point x="193" y="1" type="line" smooth="yes"/>
      <point x="193" y="-8"/>
      <point x="197" y="-11"/>
    </contour>
    <contour>
      <point x="223" y="537" type="curve"/>
      <point x="223" y="1162" type="line"/>
      <point x="446" y="1162" type="line" smooth="yes"/>
      <point x="658" y="1162"/>
      <point x="769" y="1087"/>
      <point x="769" y="891" type="curve" smooth="yes"/>
      <point x="769" y="692"/>
      <point x="633" y="576"/>
      <point x="409" y="553" type="curve" smooth="yes"/>
      <point x="359" y="548"/>
      <point x="282" y="541"/>
    </contour>
  </outline>
</glyph>
<glyph name="R" format="2">
  <advance width="860"/>
  <unicode hex="0052"/>
  <guideline x="283" y="742" angle="270"/>
  <guideline x="306" y="-13" angle="0"/>
  <anchor x="477" y="0" name="bottom"/>
  <anchor x="431" y="1139" name="top"/>
  <outline>
    <contour>
      <point x="209" y="-11" type="curve" smooth="yes"/>
      <point x="222" y="-11"/>
      <point x="223" y="-7"/>
      <point x="223" y="5" type="curve" smooth="yes"/>
      <point x="223" y="561" type="line"/>
      <point x="388" y="361"/>
      <point x="573" y="145"/>
      <point x="759" y="-6" type="curve" smooth="yes"/>
      <point x="766" y="-12"/>
      <point x="771" y="-14"/>
      <point x="779" y="-6" type="curve" smooth="yes"/>
      <point x="787" y="2"/>
      <point x="789" y="7"/>
      <point x="782" y="13" type="curve" smooth="yes"/>
      <point x="594" y="172"/>
      <point x="409" y="374"/>
      <point x="257" y="563" type="curve"/>
      <point x="452" y="581"/>
      <point x="761" y="625"/>
      <point x="761" y="929" type="curve" smooth="yes"/>
      <point x="761" y="1109"/>
      <point x="642" y="1190"/>
      <point x="414" y="1190" type="curve" smooth="yes"/>
      <point x="209" y="1190" type="line" smooth="yes"/>
      <point x="198" y="1190"/>
      <point x="193" y="1187"/>
      <point x="193" y="1178" type="curve" smooth="yes"/>
      <point x="193" y="5" type="line" smooth="yes"/>
      <point x="193" y="-7"/>
      <point x="196" y="-11"/>
    </contour>
    <contour>
      <point x="223" y="588" type="curve"/>
      <point x="223" y="1162" type="line"/>
      <point x="409" y="1162" type="line" smooth="yes"/>
      <point x="625" y="1162"/>
      <point x="729" y="1089"/>
      <point x="729" y="929" type="curve" smooth="yes"/>
      <point x="729" y="649"/>
      <point x="424" y="598"/>
    </contour>
  </outline>
</glyph>
<glyph name="S" format="2">
  <advance width="1066"/>
  <unicode hex="0053"/>
  <anchor x="535" y="0" name="bottom"/>
  <anchor x="563" y="1424" name="top"/>
  <outline>
    <contour>
      <point x="526" y="-19" type="curve" smooth="yes"/>
      <point x="765" y="-19"/>
      <point x="935" y="153"/>
      <point x="935" y="383" type="curve" smooth="yes"/>
      <point x="935" y="605"/>
      <point x="760" y="703"/>
      <point x="584" y="780" type="curve" smooth="yes"/>
      <point x="419" y="853"/>
      <point x="235" y="934"/>
      <point x="235" y="1155" type="curve" smooth="yes"/>
      <point x="235" y="1339"/>
      <point x="368" y="1478"/>
      <point x="550" y="1478" type="curve" smooth="yes"/>
      <point x="689" y="1478"/>
      <point x="781" y="1421"/>
      <point x="885" y="1329" type="curve" smooth="yes"/>
      <point x="899" y="1318"/>
      <point x="905" y="1314"/>
      <point x="916" y="1325" type="curve" smooth="yes"/>
      <point x="925" y="1334"/>
      <point x="925" y="1340"/>
      <point x="914" y="1350" type="curve" smooth="yes"/>
      <point x="829" y="1433"/>
      <point x="719" y="1515"/>
      <point x="550" y="1515" type="curve" smooth="yes"/>
      <point x="364" y="1515"/>
      <point x="195" y="1379"/>
      <point x="195" y="1155" type="curve" smooth="yes"/>
      <point x="195" y="919"/>
      <point x="370" y="834"/>
      <point x="553" y="750" type="curve" smooth="yes"/>
      <point x="719" y="674"/>
      <point x="895" y="593"/>
      <point x="895" y="383" type="curve" smooth="yes"/>
      <point x="895" y="164"/>
      <point x="734" y="19"/>
      <point x="526" y="19" type="curve" smooth="yes"/>
      <point x="373" y="19"/>
      <point x="255" y="71"/>
      <point x="164" y="176" type="curve" smooth="yes"/>
      <point x="151" y="190"/>
      <point x="144" y="189"/>
      <point x="135" y="181" type="curve" smooth="yes"/>
      <point x="125" y="173"/>
      <point x="125" y="165"/>
      <point x="136" y="153" type="curve" smooth="yes"/>
      <point x="235" y="34"/>
      <point x="369" y="-19"/>
    </contour>
  </outline>
</glyph>
<glyph name="V" format="2">
	<unicode hex="0056"/>
	<advance width="899"/>
	<outline>
		<contour>
			<point x="450" y="-11" type="curve" smooth="yes"/>
			<point x="461" y="-11"/>
			<point x="465" y="-8"/>
			<point x="468" y="1" type="curve" smooth="yes"/>
			<point x="852" y="1195" type="line" smooth="yes"/>
			<point x="855" y="1204"/>
			<point x="854" y="1208"/>
			<point x="844" y="1212" type="curve" smooth="yes"/>
			<point x="833" y="1216"/>
			<point x="828" y="1213"/>
			<point x="824" y="1200" type="curve" smooth="yes"/>
			<point x="451" y="34" type="line"/>
			<point x="76" y="1200" type="line" smooth="yes"/>
			<point x="72" y="1213"/>
			<point x="66" y="1216"/>
			<point x="55" y="1212" type="curve" smooth="yes"/>
			<point x="45" y="1208"/>
			<point x="44" y="1204"/>
			<point x="47" y="1195" type="curve" smooth="yes"/>
			<point x="433" y="1" type="line" smooth="yes"/>
			<point x="436" y="-8"/>
			<point x="440" y="-11"/>
		</contour>
	</outline>
</glyph>
<glyph name="W" format="2">
	<unicode hex="0057"/>
	<advance width="1450"/>
	<outline>
		<contour>
			<point x="364" y="-11" type="curve" smooth="yes"/>
			<point x="375" y="-11"/>
			<point x="379" y="-8"/>
			<point x="382" y="1" type="curve" smooth="yes"/>
			<point x="726" y="1164" type="line"/>
			<point x="1065" y="1" type="line" smooth="yes"/>
			<point x="1068" y="-8"/>
			<point x="1072" y="-11"/>
			<point x="1082" y="-11" type="curve" smooth="yes"/>
			<point x="1093" y="-11"/>
			<point x="1098" y="-8"/>
			<point x="1100" y="1" type="curve" smooth="yes"/>
			<point x="1403" y="1194" type="line" smooth="yes"/>
			<point x="1405" y="1203"/>
			<point x="1405" y="1208"/>
			<point x="1395" y="1211" type="curve" smooth="yes"/>
			<point x="1385" y="1214"/>
			<point x="1380" y="1212"/>
			<point x="1377" y="1200" type="curve" smooth="yes"/>
			<point x="1082" y="38" type="line"/>
			<point x="744" y="1200" type="line" smooth="yes"/>
			<point x="741" y="1209"/>
			<point x="738" y="1212"/>
			<point x="725" y="1212" type="curve" smooth="yes"/>
			<point x="714" y="1212"/>
			<point x="712" y="1209"/>
			<point x="709" y="1200" type="curve" smooth="yes"/>
			<point x="365" y="38" type="line"/>
			<point x="75" y="1199" type="line" smooth="yes"/>
			<point x="71" y="1213"/>
			<point x="66" y="1214"/>
			<point x="56" y="1211" type="curve" smooth="yes"/>
			<point x="46" y="1208"/>
			<point x="45" y="1203"/>
			<point x="47" y="1194" type="curve" smooth="yes"/>
			<point x="347" y="1" type="line" smooth="yes"/>
			<point x="349" y="-8"/>
			<point x="354" y="-11"/>
		</contour>
	</outline>
	<anchor name="bottom" x="725" y="0"/>
	<anchor name="top" x="725" y="1139"/>
</glyph>
<glyph name="X" format="2">
	<unicode hex="0058"/>
	<advance width="850"/>
	<outline>
		<contour>
			<point x="56" y="-9" type="curve" smooth="yes"/>
			<point x="64" y="-14"/>
			<point x="69" y="-12"/>
			<point x="74" y="-4" type="curve" smooth="yes"/>
			<point x="426" y="583" type="line"/>
			<point x="775" y="-5" type="line" smooth="yes"/>
			<point x="780" y="-14"/>
			<point x="786" y="-14"/>
			<point x="794" y="-9" type="curve" smooth="yes"/>
			<point x="803" y="-3"/>
			<point x="804" y="1"/>
			<point x="799" y="9" type="curve" smooth="yes"/>
			<point x="445" y="605" type="line"/>
			<point x="791" y="1191" type="line" smooth="yes"/>
			<point x="796" y="1199"/>
			<point x="795" y="1203"/>
			<point x="786" y="1209" type="curve" smooth="yes"/>
			<point x="778" y="1214"/>
			<point x="774" y="1214"/>
			<point x="769" y="1205" type="curve" smooth="yes"/>
			<point x="430" y="631" type="line"/>
			<point x="89" y="1205" type="line" smooth="yes"/>
			<point x="84" y="1214"/>
			<point x="78" y="1214"/>
			<point x="70" y="1209" type="curve" smooth="yes"/>
			<point x="61" y="1203"/>
			<point x="60" y="1199"/>
			<point x="65" y="1191" type="curve" smooth="yes"/>
			<point x="411" y="608" type="line"/>
			<point x="51" y="9" type="line" smooth="yes"/>
			<point x="46" y="1"/>
			<point x="47" y="-3"/>
		</contour>
	</outline>
</glyph>
<glyph name="Y" format="2">
  <advance width="1001"/>
  <unicode hex="0059"/>
  <anchor x="488" y="0" name="bottom"/>
  <anchor x="500" y="1424" name="top"/>
  <outline>
    <contour>
      <point x="488" y="-14" type="curve" smooth="yes"/>
      <point x="501" y="-14"/>
      <point x="506" y="-10"/>
      <point x="506" y="1" type="curve" smooth="yes"/>
      <point x="506" y="650" type="line"/>
      <point x="985" y="1491" type="line" smooth="yes"/>
      <point x="990" y="1501"/>
      <point x="989" y="1506"/>
      <point x="976" y="1513" type="curve" smooth="yes"/>
      <point x="965" y="1518"/>
      <point x="959" y="1514"/>
      <point x="950" y="1498" type="curve" smooth="yes"/>
      <point x="489" y="685" type="line"/>
      <point x="45" y="1506" type="line" smooth="yes"/>
      <point x="41" y="1514"/>
      <point x="36" y="1519"/>
      <point x="24" y="1513" type="curve" smooth="yes"/>
      <point x="13" y="1508"/>
      <point x="10" y="1501"/>
      <point x="15" y="1491" type="curve" smooth="yes"/>
      <point x="469" y="650" type="line"/>
      <point x="469" y="1" type="line" smooth="yes"/>
      <point x="469" y="-10"/>
      <point x="474" y="-14"/>
    </contour>
  </outline>
</glyph>
<glyph name="Z" format="2">
	<unicode hex="005A"/>
	<advance width="759"/>
	<outline>
		<contour>
			<point x="45" y="0" type="curve" smooth="yes"/>
			<point x="715" y="0" type="line" smooth="yes"/>
			<point x="720" y="0"/>
			<point x="724" y="5"/>
			<point x="724" y="15" type="curve" smooth="yes"/>
			<point x="724" y="25"/>
			<point x="720" y="28"/>
			<point x="715" y="28" type="curve" smooth="yes"/>
			<point x="76" y="28" type="line"/>
			<point x="704" y="1174" type="line" smooth="yes"/>
			<point x="708" y="1182"/>
			<point x="706" y="1190"/>
			<point x="695" y="1190" type="curve" smooth="yes"/>
			<point x="80" y="1190" type="line" smooth="yes"/>
			<point x="75" y="1190"/>
			<point x="71" y="1186"/>
			<point x="71" y="1176" type="curve" smooth="yes"/>
			<point x="71" y="1166"/>
			<point x="75" y="1162"/>
			<point x="80" y="1162" type="curve" smooth="yes"/>
			<point x="664" y="1162" type="line"/>
			<point x="36" y="16" type="line" smooth="yes"/>
			<point x="32" y="8"/>
			<point x="34" y="0"/>
		</contour>
	</outline>
	<anchor name="bottom" x="380" y="0"/>
	<anchor name="center" x="380" y="629"/>
	<anchor name="top" x="380" y="1139"/>
</glyph>
<glyph name="backslash" format="2">
  <advance width="420"/>
  <unicode hex="005C"/>
  <outline>
    <contour>
      <point x="382" y="-60" type="curve" smooth="yes"/>
      <point x="392" y="-57"/>
      <point x="395" y="-53"/>
      <point x="393" y="-45" type="curve" smooth="yes"/>
      <point x="56" y="1252" type="line"/>
      <point x="54" y="1261"/>
      <point x="49" y="1263"/>
      <point x="38" y="1260" type="curve"/>
      <point x="29" y="1257"/>
      <point x="25" y="1253"/>
      <point x="27" y="1245" type="curve" smooth="yes"/>
      <point x="364" y="-52" type="line"/>
      <point x="366" y="-61"/>
      <point x="371" y="-63"/>
    </contour>
  </outline>
</glyph>
<glyph name="bracketright" format="2">
	<unicode hex="005D"/>
	<advance width="500"/>
	<outline>
		<contour>
			<point x="100" y="-46" type="curve" smooth="yes"/>
			<point x="100" y="-56"/>
			<point x="104" y="-60"/>
			<point x="109" y="-60" type="curve" smooth="yes"/>
			<point x="265" y="-60" type="line" smooth="yes"/>
			<point x="276" y="-60"/>
			<point x="280" y="-57"/>
			<point x="280" y="-48" type="curve" smooth="yes"/>
			<point x="280" y="1248" type="line" smooth="yes"/>
			<point x="280" y="1257"/>
			<point x="276" y="1260"/>
			<point x="265" y="1260" type="curve" smooth="yes"/>
			<point x="109" y="1260" type="line" smooth="yes"/>
			<point x="104" y="1260"/>
			<point x="100" y="1256"/>
			<point x="100" y="1246" type="curve" smooth="yes"/>
			<point x="100" y="1236"/>
			<point x="104" y="1232"/>
			<point x="109" y="1232" type="curve" smooth="yes"/>
			<point x="250" y="1232" type="line"/>
			<point x="250" y="-32" type="line"/>
			<point x="109" y="-32" type="line" smooth="yes"/>
			<point x="104" y="-32"/>
			<point x="100" y="-36"/>
		</contour>
	</outline>
</glyph>
<glyph name="asciicircum" format="2">
  <advance width="610"/>
  <unicode hex="005E"/>
  <outline>
    <contour>
      <point x="103" y="900" type="line" smooth="yes"/>
      <point x="98" y="892"/>
      <point x="98" y="886"/>
      <point x="107" y="880" type="curve" smooth="yes"/>
      <point x="117" y="874"/>
      <point x="123" y="877"/>
      <point x="128" y="885" type="curve" smooth="yes"/>
      <point x="305" y="1180" type="line"/>
      <point x="482" y="885" type="line" smooth="yes"/>
      <point x="487" y="877"/>
      <point x="493" y="874"/>
      <point x="502" y="880" type="curve" smooth="yes"/>
      <point x="512" y="886"/>
      <point x="512" y="892"/>
      <point x="507" y="900" type="curve" smooth="yes"/>
      <point x="334" y="1187" type="line" smooth="yes"/>
      <point x="324" y="1204"/>
      <point x="319" y="1212"/>
      <point x="305" y="1212" type="curve" smooth="yes"/>
      <point x="292" y="1212"/>
      <point x="286" y="1204"/>
      <point x="276" y="1187" type="curve" smooth="yes"/>
    </contour>
  </outline>
</glyph>
<glyph name="underscore" format="2">
	<unicode hex="005F"/>
	<advance width="440"/>
	<outline>
		<contour>
			<point x="52" y="-90" type="curve" smooth="yes"/>
			<point x="388" y="-90" type="line" smooth="yes"/>
			<point x="397" y="-90"/>
			<point x="400" y="-86"/>
			<point x="400" y="-77" type="curve" smooth="yes"/>
			<point x="400" y="-67"/>
			<point x="397" y="-62"/>
			<point x="388" y="-62" type="curve" smooth="yes"/>
			<point x="52" y="-62" type="line" smooth="yes"/>
			<point x="43" y="-62"/>
			<point x="40" y="-67"/>
			<point x="40" y="-77" type="curve" smooth="yes"/>
			<point x="40" y="-86"/>
			<point x="43" y="-90"/>
		</contour>
	</outline>
</glyph>
<glyph name="b" format="2">
  <advance width="598"/>
  <unicode hex="0062"/>
  <anchor x="316" y="0" name="bottom"/>
  <anchor x="316" y="250" name="center"/>
  <anchor x="316" y="500" name="top"/>
  <outline>
    <contour>
      <point x="136" y="-14" type="curve" smooth="yes"/>
      <point x="149" y="-14"/>
      <point x="155" y="-10"/>
      <point x="155" y="1" type="curve" smooth="yes"/>
      <point x="155" y="33" type="line"/>
      <point x="200" y="-1"/>
      <point x="243" y="-17"/>
      <point x="293" y="-17" type="curve" smooth="yes"/>
      <point x="441" y="-17"/>
      <point x="523" y="93"/>
      <point x="523" y="266" type="curve" smooth="yes"/>
      <point x="523" y="436"/>
      <point x="445" y="519"/>
      <point x="335" y="519" type="curve" smooth="yes"/>
      <point x="274" y="519"/>
      <point x="203" y="498"/>
      <point x="155" y="401" type="curve"/>
      <point x="155" y="1501" type="line" smooth="yes"/>
      <point x="155" y="1513"/>
      <point x="150" y="1516"/>
      <point x="138" y="1516" type="curve" smooth="yes"/>
      <point x="125" y="1516"/>
      <point x="119" y="1513"/>
      <point x="119" y="1501" type="curve" smooth="yes"/>
      <point x="119" y="1" type="line" smooth="yes"/>
      <point x="119" y="-10"/>
      <point x="124" y="-14"/>
    </contour>
    <contour>
      <point x="155" y="70" type="curve"/>
      <point x="155" y="328" type="line"/>
      <point x="193" y="441"/>
      <point x="256" y="484"/>
      <point x="328" y="484" type="curve" smooth="yes"/>
      <point x="433" y="484"/>
      <point x="483" y="400"/>
      <point x="483" y="263" type="curve" smooth="yes"/>
      <point x="483" y="98"/>
      <point x="409" y="16"/>
      <point x="296" y="16" type="curve" smooth="yes"/>
      <point x="249" y="16"/>
      <point x="204" y="31"/>
    </contour>
  </outline>
</glyph>
<glyph name="d" format="2">
	<unicode hex="0064"/>
	<advance width="503"/>
	<outline>
		<contour>
			<point x="215" y="-14" type="curve" smooth="yes"/>
			<point x="258" y="-14"/>
			<point x="317" y="2"/>
			<point x="354" y="80" type="curve"/>
			<point x="354" y="74"/>
			<point x="354" y="67"/>
			<point x="354" y="61" type="curve" smooth="yes"/>
			<point x="354" y="11"/>
			<point x="380" y="-14"/>
			<point x="420" y="-14" type="curve" smooth="yes"/>
			<point x="447" y="-14"/>
			<point x="477" y="3"/>
			<point x="495" y="28" type="curve" smooth="yes"/>
			<point x="499" y="34"/>
			<point x="497" y="39"/>
			<point x="492" y="44" type="curve" smooth="yes"/>
			<point x="486" y="50"/>
			<point x="481" y="50"/>
			<point x="476" y="44" type="curve" smooth="yes"/>
			<point x="458" y="22"/>
			<point x="440" y="13"/>
			<point x="423" y="13" type="curve" smooth="yes"/>
			<point x="395" y="13"/>
			<point x="383" y="32"/>
			<point x="383" y="70" type="curve" smooth="yes"/>
			<point x="383" y="1200" type="line" smooth="yes"/>
			<point x="383" y="1209"/>
			<point x="379" y="1212"/>
			<point x="369" y="1212" type="curve" smooth="yes"/>
			<point x="359" y="1212"/>
			<point x="354" y="1209"/>
			<point x="354" y="1200" type="curve" smooth="yes"/>
			<point x="354" y="382" type="line"/>
			<point x="317" y="405"/>
			<point x="284" y="415"/>
			<point x="247" y="415" type="curve" smooth="yes"/>
			<point x="125" y="415"/>
			<point x="60" y="321"/>
			<point x="60" y="191" type="curve" smooth="yes"/>
			<point x="60" y="61"/>
			<point x="126" y="-14"/>
		</contour>
		<contour>
			<point x="92" y="194" type="curve" smooth="yes"/>
			<point x="92" y="317"/>
			<point x="151" y="388"/>
			<point x="244" y="388" type="curve" smooth="yes"/>
			<point x="280" y="388"/>
			<point x="314" y="379"/>
			<point x="354" y="352" type="curve"/>
			<point x="354" y="150" type="line"/>
			<point x="330" y="46"/>
			<point x="273" y="14"/>
			<point x="221" y="14" type="curve" smooth="yes"/>
			<point x="136" y="14"/>
			<point x="92" y="90"/>
		</contour>
	</outline>
	<anchor name="bottom" x="222" y="0"/>
	<anchor name="center" x="350" y="758"/>
	<anchor name="top" x="222" y="400"/>
	<anchor name="topright" x="383" y="1200"/>
</glyph>
<glyph name="e" format="2">
	<unicode hex="0065"/>
	<advance width="421"/>
	<outline>
		<contour>
			<point x="234" y="-14" type="curve" smooth="yes"/>
			<point x="316" y="-14"/>
			<point x="360" y="30"/>
			<point x="379" y="58" type="curve" smooth="yes"/>
			<point x="384" y="65"/>
			<point x="379" y="71"/>
			<point x="374" y="75" type="curve" smooth="yes"/>
			<point x="368" y="79"/>
			<point x="362" y="81"/>
			<point x="357" y="75" type="curve" smooth="yes"/>
			<point x="335" y="48"/>
			<point x="306" y="13"/>
			<point x="237" y="13" type="curve" smooth="yes"/>
			<point x="161" y="13"/>
			<point x="91" y="62"/>
			<point x="91" y="190" type="curve" smooth="yes"/>
			<point x="91" y="330"/>
			<point x="166" y="388"/>
			<point x="244" y="388" type="curve" smooth="yes"/>
			<point x="303" y="388"/>
			<point x="337" y="363"/>
			<point x="337" y="316" type="curve" smooth="yes"/>
			<point x="337" y="230"/>
			<point x="221" y="193"/>
			<point x="86" y="194" type="curve"/>
			<point x="86" y="167" type="line"/>
			<point x="246" y="168"/>
			<point x="369" y="216"/>
			<point x="369" y="317" type="curve" smooth="yes"/>
			<point x="369" y="365"/>
			<point x="336" y="415"/>
			<point x="247" y="415" type="curve" smooth="yes"/>
			<point x="130" y="415"/>
			<point x="60" y="322"/>
			<point x="60" y="183" type="curve" smooth="yes"/>
			<point x="60" y="71"/>
			<point x="119" y="-14"/>
		</contour>
	</outline>
	<anchor name="bottom" x="233" y="0"/>
	<anchor name="ogonek" x="327" y="10"/>
	<anchor name="top" x="233" y="400"/>
</glyph>
<glyph name="g" format="2">
	<unicode hex="0067"/>
	<advance width="478"/>
	<outline>
		<contour>
			<point x="223" y="-815" type="curve" smooth="yes"/>
			<point x="322" y="-815"/>
			<point x="383" y="-752"/>
			<point x="383" y="-627" type="curve" smooth="yes"/>
			<point x="383" y="400" type="line" smooth="yes"/>
			<point x="383" y="409"/>
			<point x="379" y="412"/>
			<point x="369" y="412" type="curve" smooth="yes"/>
			<point x="359" y="412"/>
			<point x="354" y="409"/>
			<point x="354" y="400" type="curve" smooth="yes"/>
			<point x="354" y="-625" type="line" smooth="yes"/>
			<point x="354" y="-736"/>
			<point x="306" y="-787"/>
			<point x="227" y="-787" type="curve" smooth="yes"/>
			<point x="160" y="-787"/>
			<point x="124" y="-764"/>
			<point x="101" y="-716" type="curve" smooth="yes"/>
			<point x="98" y="-709"/>
			<point x="92" y="-706"/>
			<point x="83" y="-711" type="curve" smooth="yes"/>
			<point x="74" y="-716"/>
			<point x="72" y="-721"/>
			<point x="76" y="-729" type="curve" smooth="yes"/>
			<point x="102" y="-784"/>
			<point x="149" y="-815"/>
		</contour>
		<contour>
			<point x="215" y="-14" type="curve" smooth="yes"/>
			<point x="265" y="-14"/>
			<point x="337" y="8"/>
			<point x="370" y="123" type="curve"/>
			<point x="354" y="150" type="line"/>
			<point x="330" y="46"/>
			<point x="273" y="14"/>
			<point x="221" y="14" type="curve" smooth="yes"/>
			<point x="136" y="14"/>
			<point x="92" y="90"/>
			<point x="92" y="194" type="curve" smooth="yes"/>
			<point x="92" y="317"/>
			<point x="151" y="388"/>
			<point x="244" y="388" type="curve" smooth="yes"/>
			<point x="281" y="388"/>
			<point x="317" y="378"/>
			<point x="359" y="349" type="curve"/>
			<point x="359" y="379" type="line"/>
			<point x="320" y="404"/>
			<point x="286" y="415"/>
			<point x="247" y="415" type="curve" smooth="yes"/>
			<point x="125" y="415"/>
			<point x="60" y="321"/>
			<point x="60" y="191" type="curve" smooth="yes"/>
			<point x="60" y="61"/>
			<point x="126" y="-14"/>
		</contour>
	</outline>
	<anchor name="top" x="236" y="400"/>
</glyph>
<glyph name="h" format="2">
	<unicode hex="0068"/>
	<advance width="521"/>
	<outline>
		<contour>
			<point x="440" y="-14" type="curve" smooth="yes"/>
			<point x="469" y="-14"/>
			<point x="500" y="3"/>
			<point x="518" y="28" type="curve" smooth="yes"/>
			<point x="522" y="34"/>
			<point x="520" y="39"/>
			<point x="515" y="44" type="curve" smooth="yes"/>
			<point x="509" y="50"/>
			<point x="503" y="49"/>
			<point x="498" y="42" type="curve" smooth="yes"/>
			<point x="480" y="21"/>
			<point x="461" y="14"/>
			<point x="445" y="14" type="curve" smooth="yes"/>
			<point x="417" y="14"/>
			<point x="407" y="36"/>
			<point x="407" y="74" type="curve" smooth="yes"/>
			<point x="407" y="267" type="line" smooth="yes"/>
			<point x="407" y="372"/>
			<point x="351" y="415"/>
			<point x="278" y="415" type="curve" smooth="yes"/>
			<point x="225" y="415"/>
			<point x="159" y="397"/>
			<point x="124" y="316" type="curve"/>
			<point x="124" y="1200" type="line" smooth="yes"/>
			<point x="124" y="1209"/>
			<point x="119" y="1212"/>
			<point x="109" y="1212" type="curve" smooth="yes"/>
			<point x="99" y="1212"/>
			<point x="95" y="1209"/>
			<point x="95" y="1200" type="curve" smooth="yes"/>
			<point x="95" y="0" type="line" smooth="yes"/>
			<point x="95" y="-9"/>
			<point x="99" y="-12"/>
			<point x="109" y="-12" type="curve" smooth="yes"/>
			<point x="119" y="-12"/>
			<point x="124" y="-9"/>
			<point x="124" y="0" type="curve" smooth="yes"/>
			<point x="124" y="247" type="line"/>
			<point x="146" y="353"/>
			<point x="209" y="387"/>
			<point x="274" y="387" type="curve" smooth="yes"/>
			<point x="348" y="387"/>
			<point x="378" y="340"/>
			<point x="378" y="261" type="curve" smooth="yes"/>
			<point x="378" y="64" type="line" smooth="yes"/>
			<point x="378" y="11"/>
			<point x="403" y="-14"/>
		</contour>
	</outline>
	<anchor name="bottom" x="261" y="0"/>
	<anchor name="center" x="130" y="758"/>
	<anchor name="top" x="111" y="1139"/>
</glyph>
<glyph name="j" format="2">
  <advance width="214"/>
  <unicode hex="006A"/>
  <outline>
    <contour>
      <point x="31" y="-814" type="curve" smooth="yes"/>
      <point x="94" y="-814"/>
      <point x="119" y="-771"/>
      <point x="119" y="-708" type="curve" smooth="yes"/>
      <point x="119" y="400" type="line" smooth="yes"/>
      <point x="119" y="409"/>
      <point x="115" y="412"/>
      <point x="105" y="412" type="curve" smooth="yes"/>
      <point x="95" y="412"/>
      <point x="90" y="409"/>
      <point x="90" y="400" type="curve" smooth="yes"/>
      <point x="90" y="-706" type="line" smooth="yes"/>
      <point x="90" y="-754"/>
      <point x="80" y="-786"/>
      <point x="32" y="-786" type="curve" smooth="yes"/>
      <point x="4" y="-786"/>
      <point x="-13" y="-770"/>
      <point x="-25" y="-747" type="curve" smooth="yes"/>
      <point x="-29" y="-740"/>
      <point x="-34" y="-738"/>
      <point x="-43" y="-743" type="curve" smooth="yes"/>
      <point x="-50" y="-747"/>
      <point x="-50" y="-754"/>
      <point x="-48" y="-760" type="curve" smooth="yes"/>
      <point x="-37" y="-791"/>
      <point x="-7" y="-814"/>
    </contour>
    <contour>
      <point x="104" y="552" type="curve" smooth="yes"/>
      <point x="124" y="552"/>
      <point x="134" y="563"/>
      <point x="134" y="586" type="curve" smooth="yes"/>
      <point x="134" y="609"/>
      <point x="124" y="620"/>
      <point x="104" y="620" type="curve" smooth="yes"/>
      <point x="84" y="620"/>
      <point x="74" y="609"/>
      <point x="74" y="586" type="curve" smooth="yes"/>
      <point x="74" y="563"/>
      <point x="84" y="552"/>
    </contour>
  </outline>
</glyph>
<glyph name="k" format="2">
  <advance width="451"/>
  <unicode hex="006B"/>
  <anchor x="236" y="0" name="bottom"/>
  <anchor x="109" y="670" name="top"/>
  <outline>
    <contour>
      <point x="109" y="-12" type="curve" smooth="yes"/>
      <point x="119" y="-12"/>
      <point x="124" y="-9"/>
      <point x="124" y="0" type="curve" smooth="yes"/>
      <point x="124" y="204" type="line"/>
      <point x="259" y="23"/>
      <point x="293" y="-15"/>
      <point x="345" y="-15" type="curve" smooth="yes"/>
      <point x="364" y="-15"/>
      <point x="404" y="-8"/>
      <point x="444" y="43" type="curve" smooth="yes"/>
      <point x="449" y="49"/>
      <point x="445" y="55"/>
      <point x="440" y="59" type="curve" smooth="yes"/>
      <point x="434" y="64"/>
      <point x="428" y="65"/>
      <point x="422" y="58" type="curve" smooth="yes"/>
      <point x="390" y="22"/>
      <point x="368" y="14"/>
      <point x="346" y="14" type="curve" smooth="yes"/>
      <point x="309" y="14"/>
      <point x="279" y="47"/>
      <point x="153" y="216" type="curve"/>
      <point x="365" y="387" type="line" smooth="yes"/>
      <point x="372" y="393"/>
      <point x="369" y="400"/>
      <point x="365" y="405" type="curve" smooth="yes"/>
      <point x="360" y="411"/>
      <point x="353" y="414"/>
      <point x="344" y="407" type="curve" smooth="yes"/>
      <point x="124" y="226" type="line"/>
      <point x="124" y="1200" type="line" smooth="yes"/>
      <point x="124" y="1209"/>
      <point x="119" y="1212"/>
      <point x="109" y="1212" type="curve" smooth="yes"/>
      <point x="99" y="1212"/>
      <point x="95" y="1209"/>
      <point x="95" y="1200" type="curve" smooth="yes"/>
      <point x="95" y="0" type="line" smooth="yes"/>
      <point x="95" y="-9"/>
      <point x="99" y="-12"/>
    </contour>
  </outline>
</glyph>
<glyph name="l" format="2">
	<unicode hex="006C"/>
	<advance width="239"/>
	<outline>
		<contour>
			<point x="152" y="-14" type="curve" smooth="yes"/>
			<point x="182" y="-14"/>
			<point x="213" y="3"/>
			<point x="231" y="28" type="curve" smooth="yes"/>
			<point x="235" y="34"/>
			<point x="233" y="39"/>
			<point x="228" y="44" type="curve" smooth="yes"/>
			<point x="222" y="50"/>
			<point x="216" y="49"/>
			<point x="211" y="42" type="curve" smooth="yes"/>
			<point x="193" y="21"/>
			<point x="174" y="14"/>
			<point x="157" y="14" type="curve" smooth="yes"/>
			<point x="129" y="14"/>
			<point x="119" y="36"/>
			<point x="119" y="74" type="curve" smooth="yes"/>
			<point x="119" y="1200" type="line" smooth="yes"/>
			<point x="119" y="1209"/>
			<point x="114" y="1212"/>
			<point x="104" y="1212" type="curve" smooth="yes"/>
			<point x="94" y="1212"/>
			<point x="90" y="1209"/>
			<point x="90" y="1200" type="curve" smooth="yes"/>
			<point x="90" y="64" type="line" smooth="yes"/>
			<point x="90" y="11"/>
			<point x="115" y="-14"/>
		</contour>
	</outline>
	<anchor name="bottom" x="160" y="0"/>
	<anchor name="center" x="104" y="580"/>
	<anchor name="top" x="104" y="1137"/>
	<anchor name="topright" x="119" y="1200"/>
</glyph>
<glyph name="m" format="2">
  <advance width="771"/>
  <unicode hex="006D"/>
  <anchor x="375" y="0" name="bottom"/>
  <anchor x="379" y="400" name="top"/>
  <outline>
    <contour>
      <point x="689" y="-14" type="curve" smooth="yes"/>
      <point x="719" y="-14"/>
      <point x="750" y="3"/>
      <point x="768" y="28" type="curve" smooth="yes"/>
      <point x="772" y="34"/>
      <point x="770" y="39"/>
      <point x="765" y="44" type="curve" smooth="yes"/>
      <point x="759" y="50"/>
      <point x="753" y="49"/>
      <point x="748" y="42" type="curve" smooth="yes"/>
      <point x="730" y="21"/>
      <point x="711" y="14"/>
      <point x="694" y="14" type="curve" smooth="yes"/>
      <point x="667" y="14"/>
      <point x="657" y="36"/>
      <point x="657" y="74" type="curve" smooth="yes"/>
      <point x="657" y="267" type="line" smooth="yes"/>
      <point x="657" y="372"/>
      <point x="603" y="415"/>
      <point x="535" y="415" type="curve" smooth="yes"/>
      <point x="481" y="415"/>
      <point x="405" y="392"/>
      <point x="376" y="277" type="curve"/>
      <point x="389" y="247" type="line"/>
      <point x="411" y="353"/>
      <point x="472" y="387"/>
      <point x="531" y="387" type="curve" smooth="yes"/>
      <point x="600" y="387"/>
      <point x="628" y="340"/>
      <point x="628" y="261" type="curve" smooth="yes"/>
      <point x="628" y="64" type="line" smooth="yes"/>
      <point x="628" y="11"/>
      <point x="653" y="-14"/>
    </contour>
    <contour>
      <point x="104" y="-12" type="curve" smooth="yes"/>
      <point x="114" y="-12"/>
      <point x="119" y="-9"/>
      <point x="119" y="0" type="curve" smooth="yes"/>
      <point x="119" y="400" type="line" smooth="yes"/>
      <point x="119" y="409"/>
      <point x="114" y="412"/>
      <point x="104" y="412" type="curve" smooth="yes"/>
      <point x="94" y="412"/>
      <point x="90" y="409"/>
      <point x="90" y="400" type="curve" smooth="yes"/>
      <point x="90" y="0" type="line" smooth="yes"/>
      <point x="90" y="-9"/>
      <point x="94" y="-12"/>
    </contour>
    <contour>
      <point x="374" y="-12" type="curve" smooth="yes"/>
      <point x="384" y="-12"/>
      <point x="389" y="-9"/>
      <point x="389" y="0" type="curve" smooth="yes"/>
      <point x="389" y="267" type="line" smooth="yes"/>
      <point x="389" y="372"/>
      <point x="335" y="415"/>
      <point x="266" y="415" type="curve" smooth="yes"/>
      <point x="211" y="415"/>
      <point x="135" y="392"/>
      <point x="106" y="277" type="curve"/>
      <point x="119" y="247" type="line"/>
      <point x="141" y="353"/>
      <point x="202" y="387"/>
      <point x="262" y="387" type="curve" smooth="yes"/>
      <point x="332" y="387"/>
      <point x="360" y="340"/>
      <point x="360" y="261" type="curve" smooth="yes"/>
      <point x="360" y="0" type="line" smooth="yes"/>
      <point x="360" y="-9"/>
      <point x="364" y="-12"/>
    </contour>
  </outline>
</glyph>
<glyph name="q" format="2">
	<unicode hex="0071"/>
	<advance width="478"/>
	<outline>
		<contour>
			<point x="215" y="-14" type="curve" smooth="yes"/>
			<point x="258" y="-14"/>
			<point x="317" y="2"/>
			<point x="354" y="80" type="curve"/>
			<point x="354" y="-800" type="line" smooth="yes"/>
			<point x="354" y="-809"/>
			<point x="358" y="-812"/>
			<point x="368" y="-812" type="curve" smooth="yes"/>
			<point x="378" y="-812"/>
			<point x="383" y="-809"/>
			<point x="383" y="-800" type="curve" smooth="yes"/>
			<point x="383" y="400" type="line" smooth="yes"/>
			<point x="383" y="409"/>
			<point x="379" y="412"/>
			<point x="369" y="412" type="curve" smooth="yes"/>
			<point x="359" y="412"/>
			<point x="354" y="409"/>
			<point x="354" y="400" type="curve" smooth="yes"/>
			<point x="354" y="382" type="line"/>
			<point x="317" y="405"/>
			<point x="284" y="415"/>
			<point x="247" y="415" type="curve" smooth="yes"/>
			<point x="125" y="415"/>
			<point x="60" y="321"/>
			<point x="60" y="191" type="curve" smooth="yes"/>
			<point x="60" y="61"/>
			<point x="126" y="-14"/>
		</contour>
		<contour>
			<point x="92" y="194" type="curve" smooth="yes"/>
			<point x="92" y="317"/>
			<point x="151" y="388"/>
			<point x="244" y="388" type="curve" smooth="yes"/>
			<point x="280" y="388"/>
			<point x="314" y="379"/>
			<point x="354" y="352" type="curve"/>
			<point x="354" y="150" type="line"/>
			<point x="330" y="46"/>
			<point x="273" y="14"/>
			<point x="221" y="14" type="curve" smooth="yes"/>
			<point x="136" y="14"/>
			<point x="92" y="90"/>
		</contour>
	</outline>
</glyph>
<glyph name="s" format="2">
  <advance width="383"/>
  <unicode hex="0073"/>
  <anchor x="190" y="0" name="bottom"/>
  <anchor x="202" y="400" name="top"/>
  <outline>
    <contour>
      <point x="201" y="-15" type="curve" smooth="yes"/>
      <point x="293" y="-15"/>
      <point x="331" y="49"/>
      <point x="331" y="107" type="curve" smooth="yes"/>
      <point x="331" y="253"/>
      <point x="105" y="186"/>
      <point x="105" y="309" type="curve" smooth="yes"/>
      <point x="105" y="355"/>
      <point x="136" y="388"/>
      <point x="201" y="388" type="curve" smooth="yes"/>
      <point x="245" y="388"/>
      <point x="271" y="373"/>
      <point x="308" y="344" type="curve" smooth="yes"/>
      <point x="314" y="339"/>
      <point x="322" y="338"/>
      <point x="327" y="343" type="curve" smooth="yes"/>
      <point x="333" y="349"/>
      <point x="336" y="354"/>
      <point x="330" y="361" type="curve" smooth="yes"/>
      <point x="308" y="388"/>
      <point x="261" y="415"/>
      <point x="203" y="415" type="curve" smooth="yes"/>
      <point x="122" y="415"/>
      <point x="75" y="368"/>
      <point x="75" y="307" type="curve" smooth="yes"/>
      <point x="75" y="161"/>
      <point x="300" y="226"/>
      <point x="300" y="106" type="curve" smooth="yes"/>
      <point x="300" y="53"/>
      <point x="264" y="12"/>
      <point x="204" y="12" type="curve" smooth="yes"/>
      <point x="148" y="12"/>
      <point x="107" y="33"/>
      <point x="77" y="60" type="curve" smooth="yes"/>
      <point x="69" y="67"/>
      <point x="62" y="67"/>
      <point x="56" y="60" type="curve" smooth="yes"/>
      <point x="50" y="53"/>
      <point x="47" y="47"/>
      <point x="54" y="39" type="curve" smooth="yes"/>
      <point x="72" y="20"/>
      <point x="124" y="-15"/>
    </contour>
  </outline>
</glyph>
<glyph name="u" format="2">
  <advance width="646"/>
  <unicode hex="0075"/>
  <guideline x="244" y="400" angle="90.2301"/>
  <anchor x="303" y="0" name="bottom"/>
  <anchor x="581" y="13" name="ogonek"/>
  <anchor x="303" y="500" name="top"/>
  <anchor x="470" y="514" name="topright"/>
  <outline>
    <contour>
      <point x="270" y="-19" type="curve" smooth="yes"/>
      <point x="343" y="-19"/>
      <point x="440" y="10"/>
      <point x="476" y="154" type="curve"/>
      <point x="460" y="191" type="line"/>
      <point x="433" y="59"/>
      <point x="354" y="16"/>
      <point x="275" y="16" type="curve" smooth="yes"/>
      <point x="186" y="16"/>
      <point x="149" y="75"/>
      <point x="149" y="174" type="curve" smooth="yes"/>
      <point x="149" y="499" type="line" smooth="yes"/>
      <point x="149" y="510"/>
      <point x="143" y="514"/>
      <point x="130" y="514" type="curve" smooth="yes"/>
      <point x="118" y="514"/>
      <point x="113" y="510"/>
      <point x="113" y="499" type="curve" smooth="yes"/>
      <point x="113" y="166" type="line" smooth="yes"/>
      <point x="113" y="35"/>
      <point x="183" y="-19"/>
    </contour>
    <contour>
      <point x="538" y="-19" type="curve" smooth="yes"/>
      <point x="575" y="-19"/>
      <point x="614" y="3"/>
      <point x="636" y="34" type="curve" smooth="yes"/>
      <point x="641" y="41"/>
      <point x="639" y="48"/>
      <point x="633" y="54" type="curve" smooth="yes"/>
      <point x="625" y="61"/>
      <point x="618" y="60"/>
      <point x="611" y="51" type="curve" smooth="yes"/>
      <point x="589" y="25"/>
      <point x="565" y="16"/>
      <point x="544" y="16" type="curve" smooth="yes"/>
      <point x="509" y="16"/>
      <point x="496" y="44"/>
      <point x="496" y="91" type="curve" smooth="yes"/>
      <point x="496" y="500" type="line" smooth="yes"/>
      <point x="496" y="511"/>
      <point x="491" y="515"/>
      <point x="479" y="515" type="curve" smooth="yes"/>
      <point x="466" y="515"/>
      <point x="460" y="511"/>
      <point x="460" y="500" type="curve" smooth="yes"/>
      <point x="460" y="79" type="line" smooth="yes"/>
      <point x="460" y="13"/>
      <point x="491" y="-19"/>
    </contour>
  </outline>
</glyph>
<glyph name="v" format="2">
	<unicode hex="0076"/>
	<advance width="407"/>
	<outline>
		<contour>
			<point x="203" y="-12" type="curve" smooth="yes"/>
			<point x="213" y="-12"/>
			<point x="214" y="-8"/>
			<point x="217" y="0" type="curve" smooth="yes"/>
			<point x="375" y="394" type="line" smooth="yes"/>
			<point x="380" y="406"/>
			<point x="374" y="412"/>
			<point x="361" y="412" type="curve" smooth="yes"/>
			<point x="351" y="412"/>
			<point x="348" y="408"/>
			<point x="345" y="400" type="curve" smooth="yes"/>
			<point x="204" y="36" type="line"/>
			<point x="61" y="400" type="line" smooth="yes"/>
			<point x="58" y="408"/>
			<point x="55" y="412"/>
			<point x="45" y="412" type="curve" smooth="yes"/>
			<point x="33" y="412"/>
			<point x="27" y="403"/>
			<point x="31" y="394" type="curve" smooth="yes"/>
			<point x="189" y="0" type="line" smooth="yes"/>
			<point x="192" y="-8"/>
			<point x="193" y="-12"/>
		</contour>
	</outline>
</glyph>
<glyph name="w" format="2">
	<unicode hex="0077"/>
	<advance width="643"/>
	<outline>
		<contour>
			<point x="173" y="-12" type="curve" smooth="yes"/>
			<point x="183" y="-12"/>
			<point x="186" y="-7"/>
			<point x="189" y="1" type="curve" smooth="yes"/>
			<point x="322" y="365" type="line"/>
			<point x="456" y="1" type="line" smooth="yes"/>
			<point x="459" y="-7"/>
			<point x="462" y="-12"/>
			<point x="472" y="-12" type="curve" smooth="yes"/>
			<point x="481" y="-12"/>
			<point x="485" y="-7"/>
			<point x="488" y="1" type="curve" smooth="yes"/>
			<point x="612" y="393" type="line" smooth="yes"/>
			<point x="616" y="405"/>
			<point x="612" y="412"/>
			<point x="599" y="412" type="curve" smooth="yes"/>
			<point x="589" y="412"/>
			<point x="585" y="408"/>
			<point x="583" y="400" type="curve" smooth="yes"/>
			<point x="472" y="36" type="line"/>
			<point x="339" y="400" type="line" smooth="yes"/>
			<point x="336" y="408"/>
			<point x="333" y="412"/>
			<point x="323" y="412" type="curve" smooth="yes"/>
			<point x="312" y="412"/>
			<point x="309" y="409"/>
			<point x="305" y="399" type="curve" smooth="yes"/>
			<point x="174" y="36" type="line"/>
			<point x="61" y="400" type="line" smooth="yes"/>
			<point x="58" y="408"/>
			<point x="55" y="412"/>
			<point x="45" y="412" type="curve" smooth="yes"/>
			<point x="33" y="412"/>
			<point x="28" y="403"/>
			<point x="31" y="394" type="curve" smooth="yes"/>
			<point x="157" y="1" type="line" smooth="yes"/>
			<point x="160" y="-7"/>
			<point x="163" y="-12"/>
		</contour>
	</outline>
	<anchor name="bottom" x="322" y="0"/>
	<anchor name="top" x="322" y="400"/>
</glyph>
<glyph name="x" format="2">
	<unicode hex="0078"/>
	<advance width="427"/>
	<outline>
		<contour>
			<point x="382" y="9" type="curve" smooth="yes"/>
			<point x="232" y="202" type="line"/>
			<point x="382" y="392" type="line" smooth="yes"/>
			<point x="391" y="403"/>
			<point x="383" y="412"/>
			<point x="371" y="412" type="curve" smooth="yes"/>
			<point x="362" y="412"/>
			<point x="360" y="408"/>
			<point x="351" y="397" type="curve" smooth="yes"/>
			<point x="214" y="224" type="line"/>
			<point x="77" y="400" type="line" smooth="yes"/>
			<point x="71" y="408"/>
			<point x="68" y="412"/>
			<point x="60" y="412" type="curve" smooth="yes"/>
			<point x="48" y="412"/>
			<point x="38" y="403"/>
			<point x="47" y="392" type="curve" smooth="yes"/>
			<point x="195" y="201" type="line"/>
			<point x="44" y="10" type="line" smooth="yes"/>
			<point x="35" y="-1"/>
			<point x="43" y="-10"/>
			<point x="55" y="-10" type="curve" smooth="yes"/>
			<point x="64" y="-10"/>
			<point x="66" y="-6"/>
			<point x="75" y="5" type="curve" smooth="yes"/>
			<point x="213" y="179" type="line"/>
			<point x="351" y="1" type="line" smooth="yes"/>
			<point x="359" y="-10"/>
			<point x="363" y="-11"/>
			<point x="368" y="-11" type="curve" smooth="yes"/>
			<point x="380" y="-11"/>
			<point x="391" y="-2"/>
		</contour>
	</outline>
</glyph>
<glyph name="y" format="2">
  <advance width="615"/>
  <unicode hex="0079"/>
  <anchor x="296" y="0" name="bottom"/>
  <anchor x="308" y="500" name="top"/>
  <outline>
    <contour>
      <point x="270" y="-19" type="curve" smooth="yes"/>
      <point x="334" y="-19"/>
      <point x="416" y="4"/>
      <point x="460" y="105" type="curve"/>
      <point x="460" y="-781" type="line" smooth="yes"/>
      <point x="460" y="-920"/>
      <point x="400" y="-984"/>
      <point x="301" y="-984" type="curve" smooth="yes"/>
      <point x="220" y="-984"/>
      <point x="175" y="-955"/>
      <point x="146" y="-895" type="curve" smooth="yes"/>
      <point x="143" y="-886"/>
      <point x="135" y="-882"/>
      <point x="124" y="-889" type="curve" smooth="yes"/>
      <point x="113" y="-895"/>
      <point x="110" y="-901"/>
      <point x="115" y="-911" type="curve" smooth="yes"/>
      <point x="148" y="-980"/>
      <point x="206" y="-1019"/>
      <point x="296" y="-1019" type="curve" smooth="yes"/>
      <point x="420" y="-1019"/>
      <point x="496" y="-940"/>
      <point x="496" y="-784" type="curve" smooth="yes"/>
      <point x="496" y="500" type="line" smooth="yes"/>
      <point x="496" y="511"/>
      <point x="491" y="515"/>
      <point x="479" y="515" type="curve" smooth="yes"/>
      <point x="466" y="515"/>
      <point x="460" y="511"/>
      <point x="460" y="500" type="curve" smooth="yes"/>
      <point x="460" y="191" type="line"/>
      <point x="433" y="59"/>
      <point x="354" y="16"/>
      <point x="275" y="16" type="curve" smooth="yes"/>
      <point x="186" y="16"/>
      <point x="149" y="75"/>
      <point x="149" y="174" type="curve" smooth="yes"/>
      <point x="149" y="499" type="line" smooth="yes"/>
      <point x="149" y="510"/>
      <point x="143" y="514"/>
      <point x="130" y="514" type="curve" smooth="yes"/>
      <point x="118" y="514"/>
      <point x="113" y="510"/>
      <point x="113" y="499" type="curve" smooth="yes"/>
      <point x="113" y="166" type="line" smooth="yes"/>
      <point x="113" y="35"/>
      <point x="183" y="-19"/>
    </contour>
  </outline>
</glyph>
<glyph name="z" format="2">
	<unicode hex="007A"/>
	<advance width="396"/>
	<outline>
		<contour>
			<point x="70" y="0" type="curve" smooth="yes"/>
			<point x="354" y="0" type="line" smooth="yes"/>
			<point x="363" y="0"/>
			<point x="366" y="4"/>
			<point x="366" y="12" type="curve" smooth="yes"/>
			<point x="366" y="23"/>
			<point x="363" y="28"/>
			<point x="354" y="28" type="curve" smooth="yes"/>
			<point x="97" y="28" type="line"/>
			<point x="352" y="374" type="line" smooth="yes"/>
			<point x="361" y="386"/>
			<point x="355" y="400"/>
			<point x="343" y="400" type="curve" smooth="yes"/>
			<point x="68" y="400" type="line" smooth="yes"/>
			<point x="59" y="400"/>
			<point x="56" y="395"/>
			<point x="56" y="386" type="curve" smooth="yes"/>
			<point x="56" y="376"/>
			<point x="59" y="372"/>
			<point x="68" y="372" type="curve" smooth="yes"/>
			<point x="317" y="372" type="line"/>
			<point x="58" y="24" type="line" smooth="yes"/>
			<point x="53" y="17"/>
			<point x="53" y="0"/>
		</contour>
	</outline>
	<anchor name="bottom" x="210" y="0"/>
	<anchor name="center" x="210" y="200"/>
	<anchor name="top" x="200" y="400"/>
</glyph>
<glyph name="bar" format="2">
  <advance width="575"/>
  <unicode hex="007C"/>
  <outline>
    <contour>
      <point x="288" y="-76" type="curve" smooth="yes"/>
      <point x="301" y="-76"/>
      <point x="306" y="-72"/>
      <point x="306" y="-61" type="curve" smooth="yes"/>
      <point x="306" y="1563" type="line" smooth="yes"/>
      <point x="306" y="1574"/>
      <point x="300" y="1578"/>
      <point x="288" y="1578" type="curve" smooth="yes"/>
      <point x="274" y="1578"/>
      <point x="269" y="1574"/>
      <point x="269" y="1563" type="curve" smooth="yes"/>
      <point x="269" y="-61" type="line" smooth="yes"/>
      <point x="269" y="-72"/>
      <point x="274" y="-76"/>
    </contour>
  </outline>
</glyph>
<glyph name="cent" format="2">
  <advance width="821"/>
  <unicode hex="00A2"/>
  <outline>
    <contour>
      <point x="433" y="-19" type="curve" smooth="yes"/>
      <point x="546" y="-19"/>
      <point x="640" y="33"/>
      <point x="713" y="136" type="curve" smooth="yes"/>
      <point x="718" y="144"/>
      <point x="714" y="150"/>
      <point x="706" y="155" type="curve" smooth="yes"/>
      <point x="699" y="160"/>
      <point x="693" y="161"/>
      <point x="686" y="154" type="curve" smooth="yes"/>
      <point x="615" y="60"/>
      <point x="548" y="15"/>
      <point x="433" y="15" type="curve" smooth="yes"/>
      <point x="253" y="15"/>
      <point x="143" y="168"/>
      <point x="143" y="416" type="curve" smooth="yes"/>
      <point x="143" y="694"/>
      <point x="249" y="863"/>
      <point x="435" y="863" type="curve" smooth="yes"/>
      <point x="515" y="863"/>
      <point x="586" y="831"/>
      <point x="658" y="759" type="curve" smooth="yes"/>
      <point x="665" y="751"/>
      <point x="670" y="749"/>
      <point x="680" y="756" type="curve" smooth="yes"/>
      <point x="689" y="764"/>
      <point x="688" y="770"/>
      <point x="683" y="776" type="curve" smooth="yes"/>
      <point x="630" y="839"/>
      <point x="534" y="896"/>
      <point x="435" y="896" type="curve" smooth="yes"/>
      <point x="229" y="896"/>
      <point x="104" y="715"/>
      <point x="104" y="416" type="curve" smooth="yes"/>
      <point x="104" y="146"/>
      <point x="229" y="-19"/>
    </contour>
    <contour>
      <point x="438" y="-126" type="curve" smooth="yes"/>
      <point x="451" y="-126"/>
      <point x="456" y="-122"/>
      <point x="456" y="-111" type="curve" smooth="yes"/>
      <point x="456" y="1003" type="line" smooth="yes"/>
      <point x="456" y="1014"/>
      <point x="450" y="1018"/>
      <point x="438" y="1018" type="curve" smooth="yes"/>
      <point x="424" y="1018"/>
      <point x="419" y="1014"/>
      <point x="419" y="1003" type="curve" smooth="yes"/>
      <point x="419" y="-111" type="line" smooth="yes"/>
      <point x="419" y="-122"/>
      <point x="424" y="-126"/>
    </contour>
  </outline>
</glyph>
<glyph name="sterling" format="2">
  <advance width="1046"/>
  <unicode hex="00A3"/>
  <outline>
    <contour>
      <point x="90" y="0" type="curve" smooth="yes"/>
      <point x="983" y="0" type="line" smooth="yes"/>
      <point x="989" y="0"/>
      <point x="994" y="5"/>
      <point x="994" y="18" type="curve" smooth="yes"/>
      <point x="994" y="30"/>
      <point x="989" y="35"/>
      <point x="983" y="35" type="curve" smooth="yes"/>
      <point x="370" y="35" type="line"/>
      <point x="370" y="625" type="line"/>
      <point x="733" y="625" type="line" smooth="yes"/>
      <point x="739" y="625"/>
      <point x="744" y="630"/>
      <point x="744" y="643" type="curve" smooth="yes"/>
      <point x="744" y="655"/>
      <point x="739" y="660"/>
      <point x="733" y="660" type="curve" smooth="yes"/>
      <point x="370" y="660" type="line"/>
      <point x="370" y="1148" type="line" smooth="yes"/>
      <point x="370" y="1359"/>
      <point x="475" y="1478"/>
      <point x="648" y="1478" type="curve" smooth="yes"/>
      <point x="751" y="1478"/>
      <point x="851" y="1435"/>
      <point x="945" y="1350" type="curve" smooth="yes"/>
      <point x="954" y="1343"/>
      <point x="964" y="1341"/>
      <point x="973" y="1351" type="curve" smooth="yes"/>
      <point x="983" y="1364"/>
      <point x="979" y="1371"/>
      <point x="970" y="1379" type="curve" smooth="yes"/>
      <point x="870" y="1469"/>
      <point x="761" y="1515"/>
      <point x="648" y="1515" type="curve" smooth="yes"/>
      <point x="451" y="1515"/>
      <point x="331" y="1376"/>
      <point x="331" y="1148" type="curve" smooth="yes"/>
      <point x="331" y="660" type="line"/>
      <point x="135" y="660" type="line" smooth="yes"/>
      <point x="129" y="660"/>
      <point x="124" y="655"/>
      <point x="124" y="643" type="curve" smooth="yes"/>
      <point x="124" y="630"/>
      <point x="129" y="625"/>
      <point x="135" y="625" type="curve" smooth="yes"/>
      <point x="331" y="625" type="line"/>
      <point x="331" y="35" type="line"/>
      <point x="90" y="35" type="line" smooth="yes"/>
      <point x="84" y="35"/>
      <point x="79" y="30"/>
      <point x="79" y="18" type="curve" smooth="yes"/>
      <point x="79" y="5"/>
      <point x="84" y="0"/>
    </contour>
  </outline>
</glyph>
<glyph name="yen" format="2">
  <advance width="1050"/>
  <unicode hex="00A5"/>
  <outline>
    <contour>
      <point x="513" y="-14" type="curve" smooth="yes"/>
      <point x="526" y="-14"/>
      <point x="531" y="-10"/>
      <point x="531" y="1" type="curve" smooth="yes"/>
      <point x="531" y="650" type="line"/>
      <point x="1010" y="1491" type="line" smooth="yes"/>
      <point x="1015" y="1501"/>
      <point x="1014" y="1506"/>
      <point x="1001" y="1513" type="curve" smooth="yes"/>
      <point x="990" y="1518"/>
      <point x="984" y="1514"/>
      <point x="975" y="1498" type="curve" smooth="yes"/>
      <point x="514" y="685" type="line"/>
      <point x="70" y="1506" type="line" smooth="yes"/>
      <point x="66" y="1514"/>
      <point x="61" y="1519"/>
      <point x="49" y="1513" type="curve" smooth="yes"/>
      <point x="38" y="1508"/>
      <point x="35" y="1501"/>
      <point x="40" y="1491" type="curve" smooth="yes"/>
      <point x="494" y="650" type="line"/>
      <point x="494" y="1" type="line" smooth="yes"/>
      <point x="494" y="-10"/>
      <point x="499" y="-14"/>
    </contour>
    <contour>
      <point x="149" y="641" type="curve" smooth="yes"/>
      <point x="876" y="641" type="line" smooth="yes"/>
      <point x="883" y="641"/>
      <point x="888" y="648"/>
      <point x="888" y="660" type="curve" smooth="yes"/>
      <point x="888" y="673"/>
      <point x="883" y="676"/>
      <point x="876" y="676" type="curve" smooth="yes"/>
      <point x="149" y="676" type="line" smooth="yes"/>
      <point x="143" y="676"/>
      <point x="138" y="671"/>
      <point x="138" y="659" type="curve" smooth="yes"/>
      <point x="138" y="646"/>
      <point x="143" y="641"/>
    </contour>
    <contour>
      <point x="149" y="461" type="curve" smooth="yes"/>
      <point x="876" y="461" type="line" smooth="yes"/>
      <point x="883" y="461"/>
      <point x="888" y="468"/>
      <point x="888" y="480" type="curve" smooth="yes"/>
      <point x="888" y="493"/>
      <point x="883" y="496"/>
      <point x="876" y="496" type="curve" smooth="yes"/>
      <point x="149" y="496" type="line" smooth="yes"/>
      <point x="143" y="496"/>
      <point x="138" y="491"/>
      <point x="138" y="479" type="curve" smooth="yes"/>
      <point x="138" y="466"/>
      <point x="143" y="461"/>
    </contour>
  </outline>
</glyph>
<glyph name="section" format="2">
  <advance width="826"/>
  <unicode hex="00A7"/>
  <outline>
    <contour>
      <point x="731" y="322" type="curve" smooth="yes"/>
      <point x="731" y="710"/>
      <point x="190" y="594"/>
      <point x="190" y="936" type="curve" smooth="yes"/>
      <point x="190" y="1079"/>
      <point x="289" y="1182"/>
      <point x="426" y="1182" type="curve" smooth="yes"/>
      <point x="526" y="1182"/>
      <point x="602" y="1138"/>
      <point x="678" y="1066" type="curve" smooth="yes"/>
      <point x="688" y="1056"/>
      <point x="694" y="1054"/>
      <point x="703" y="1063" type="curve" smooth="yes"/>
      <point x="710" y="1070"/>
      <point x="710" y="1075"/>
      <point x="701" y="1083" type="curve" smooth="yes"/>
      <point x="636" y="1148"/>
      <point x="553" y="1212"/>
      <point x="426" y="1212" type="curve" smooth="yes"/>
      <point x="271" y="1212"/>
      <point x="158" y="1096"/>
      <point x="158" y="936" type="curve" smooth="yes"/>
      <point x="158" y="568"/>
      <point x="699" y="683"/>
      <point x="699" y="322" type="curve" smooth="yes"/>
      <point x="699" y="192"/>
      <point x="628" y="98"/>
      <point x="537" y="36" type="curve"/>
      <point x="561" y="18" type="line"/>
      <point x="659" y="88"/>
      <point x="731" y="181"/>
    </contour>
    <contour>
      <point x="108" y="418" type="curve" smooth="yes"/>
      <point x="108" y="34"/>
      <point x="656" y="161"/>
      <point x="656" y="-226" type="curve" smooth="yes"/>
      <point x="656" y="-388"/>
      <point x="547" y="-506"/>
      <point x="397" y="-506" type="curve" smooth="yes"/>
      <point x="288" y="-506"/>
      <point x="208" y="-471"/>
      <point x="129" y="-388" type="curve" smooth="yes"/>
      <point x="119" y="-378"/>
      <point x="114" y="-376"/>
      <point x="105" y="-385" type="curve" smooth="yes"/>
      <point x="98" y="-392"/>
      <point x="98" y="-399"/>
      <point x="108" y="-409" type="curve" smooth="yes"/>
      <point x="188" y="-488"/>
      <point x="270" y="-536"/>
      <point x="398" y="-536" type="curve" smooth="yes"/>
      <point x="566" y="-536"/>
      <point x="688" y="-406"/>
      <point x="688" y="-226" type="curve" smooth="yes"/>
      <point x="688" y="185"/>
      <point x="140" y="65"/>
      <point x="140" y="418" type="curve" smooth="yes"/>
      <point x="140" y="543"/>
      <point x="206" y="638"/>
      <point x="301" y="703" type="curve"/>
      <point x="280" y="723" type="line"/>
      <point x="181" y="653"/>
      <point x="108" y="553"/>
    </contour>
  </outline>
</glyph>
<glyph name="copyright" format="2">
  <advance width="1125"/>
  <unicode hex="00A9"/>
  <guideline x="471" y="1089" angle="0"/>
  <outline>
    <contour>
      <point x="562" y="101" type="curve" smooth="yes"/>
      <point x="819" y="101"/>
      <point x="1005" y="305"/>
      <point x="1005" y="587" type="curve" smooth="yes"/>
      <point x="1005" y="868"/>
      <point x="819" y="1072"/>
      <point x="562" y="1072" type="curve" smooth="yes"/>
      <point x="306" y="1072"/>
      <point x="120" y="868"/>
      <point x="120" y="587" type="curve" smooth="yes"/>
      <point x="120" y="305"/>
      <point x="306" y="101"/>
    </contour>
    <contour>
      <point x="562" y="125" type="curve" smooth="yes"/>
      <point x="321" y="125"/>
      <point x="146" y="319"/>
      <point x="146" y="587" type="curve" smooth="yes"/>
      <point x="146" y="854"/>
      <point x="321" y="1048"/>
      <point x="562" y="1048" type="curve" smooth="yes"/>
      <point x="804" y="1048"/>
      <point x="979" y="854"/>
      <point x="979" y="586" type="curve" smooth="yes"/>
      <point x="979" y="319"/>
      <point x="804" y="125"/>
    </contour>
    <contour>
      <point x="567" y="311" type="curve" smooth="yes"/>
      <point x="624" y="311"/>
      <point x="679" y="342"/>
      <point x="723" y="404" type="curve" smooth="yes"/>
      <point x="726" y="408"/>
      <point x="725" y="414"/>
      <point x="720" y="418" type="curve" smooth="yes"/>
      <point x="714" y="423"/>
      <point x="708" y="424"/>
      <point x="705" y="420" type="curve" smooth="yes"/>
      <point x="662" y="366"/>
      <point x="614" y="339"/>
      <point x="567" y="339" type="curve" smooth="yes"/>
      <point x="457" y="339"/>
      <point x="393" y="434"/>
      <point x="393" y="590" type="curve" smooth="yes"/>
      <point x="393" y="735"/>
      <point x="469" y="840"/>
      <point x="573" y="840" type="curve" smooth="yes"/>
      <point x="619" y="840"/>
      <point x="664" y="819"/>
      <point x="691" y="784" type="curve" smooth="yes"/>
      <point x="695" y="779"/>
      <point x="700" y="778"/>
      <point x="707" y="784" type="curve" smooth="yes"/>
      <point x="712" y="788"/>
      <point x="714" y="793"/>
      <point x="710" y="799" type="curve" smooth="yes"/>
      <point x="678" y="842"/>
      <point x="627" y="867"/>
      <point x="573" y="867" type="curve" smooth="yes"/>
      <point x="451" y="867"/>
      <point x="363" y="751"/>
      <point x="363" y="590" type="curve" smooth="yes"/>
      <point x="363" y="417"/>
      <point x="438" y="311"/>
    </contour>
  </outline>
</glyph>
<glyph name="ordfeminine" format="2">
  <advance width="383"/>
  <unicode hex="00AA"/>
  <outline>
    <contour>
      <point x="164" y="889" type="curve" smooth="yes"/>
      <point x="203" y="889"/>
      <point x="244" y="906"/>
      <point x="270" y="959" type="curve"/>
      <point x="270" y="955"/>
      <point x="270" y="950"/>
      <point x="270" y="946" type="curve" smooth="yes"/>
      <point x="270" y="910"/>
      <point x="290" y="889"/>
      <point x="322" y="889" type="curve" smooth="yes"/>
      <point x="344" y="889"/>
      <point x="367" y="902"/>
      <point x="381" y="921" type="curve" smooth="yes"/>
      <point x="384" y="925"/>
      <point x="383" y="932"/>
      <point x="379" y="936" type="curve" smooth="yes"/>
      <point x="374" y="941"/>
      <point x="369" y="940"/>
      <point x="365" y="936" type="curve" smooth="yes"/>
      <point x="352" y="921"/>
      <point x="338" y="914"/>
      <point x="326" y="914" type="curve" smooth="yes"/>
      <point x="306" y="914"/>
      <point x="297" y="928"/>
      <point x="297" y="955" type="curve" smooth="yes"/>
      <point x="297" y="1207" type="line" smooth="yes"/>
      <point x="297" y="1214"/>
      <point x="294" y="1217"/>
      <point x="284" y="1217" type="curve" smooth="yes"/>
      <point x="275" y="1217"/>
      <point x="270" y="1214"/>
      <point x="270" y="1207" type="curve" smooth="yes"/>
      <point x="270" y="1195" type="line"/>
      <point x="242" y="1212"/>
      <point x="215" y="1220"/>
      <point x="188" y="1220" type="curve" smooth="yes"/>
      <point x="96" y="1220"/>
      <point x="45" y="1148"/>
      <point x="45" y="1047" type="curve" smooth="yes"/>
      <point x="45" y="946"/>
      <point x="96" y="889"/>
    </contour>
    <contour>
      <point x="75" y="1049" type="curve" smooth="yes"/>
      <point x="75" y="1142"/>
      <point x="119" y="1194"/>
      <point x="187" y="1194" type="curve" smooth="yes"/>
      <point x="213" y="1194"/>
      <point x="240" y="1188"/>
      <point x="270" y="1168" type="curve"/>
      <point x="270" y="1013" type="line"/>
      <point x="251" y="939"/>
      <point x="209" y="915"/>
      <point x="170" y="915" type="curve" smooth="yes"/>
      <point x="107" y="915"/>
      <point x="75" y="971"/>
    </contour>
  </outline>
</glyph>
<glyph name="registered" format="2">
  <advance width="683"/>
  <unicode hex="00AE"/>
  <outline>
    <contour>
      <point x="341" y="1053" type="curve" smooth="yes"/>
      <point x="499" y="1053"/>
      <point x="623" y="1176"/>
      <point x="623" y="1334" type="curve" smooth="yes"/>
      <point x="623" y="1491"/>
      <point x="499" y="1615"/>
      <point x="341" y="1615" type="curve" smooth="yes"/>
      <point x="184" y="1615"/>
      <point x="60" y="1491"/>
      <point x="60" y="1334" type="curve" smooth="yes"/>
      <point x="60" y="1176"/>
      <point x="184" y="1053"/>
    </contour>
    <contour>
      <point x="341" y="1083" type="curve" smooth="yes"/>
      <point x="201" y="1083"/>
      <point x="90" y="1194"/>
      <point x="90" y="1334" type="curve" smooth="yes"/>
      <point x="90" y="1474"/>
      <point x="201" y="1585"/>
      <point x="341" y="1585" type="curve" smooth="yes"/>
      <point x="481" y="1585"/>
      <point x="593" y="1474"/>
      <point x="593" y="1334" type="curve" smooth="yes"/>
      <point x="593" y="1194"/>
      <point x="481" y="1083"/>
    </contour>
    <contour>
      <point x="261" y="1161" type="curve" smooth="yes"/>
      <point x="271" y="1161"/>
      <point x="279" y="1164"/>
      <point x="279" y="1171" type="curve" smooth="yes"/>
      <point x="279" y="1319" type="line"/>
      <point x="324" y="1266"/>
      <point x="373" y="1216"/>
      <point x="436" y="1164" type="curve" smooth="yes"/>
      <point x="444" y="1158"/>
      <point x="451" y="1159"/>
      <point x="458" y="1165" type="curve" smooth="yes"/>
      <point x="466" y="1174"/>
      <point x="464" y="1183"/>
      <point x="459" y="1186" type="curve" smooth="yes"/>
      <point x="405" y="1229"/>
      <point x="363" y="1270"/>
      <point x="315" y="1324" type="curve"/>
      <point x="401" y="1330"/>
      <point x="449" y="1374"/>
      <point x="449" y="1431" type="curve" smooth="yes"/>
      <point x="449" y="1494"/>
      <point x="410" y="1516"/>
      <point x="328" y="1516" type="curve" smooth="yes"/>
      <point x="263" y="1516" type="line" smooth="yes"/>
      <point x="250" y="1516"/>
      <point x="245" y="1513"/>
      <point x="245" y="1506" type="curve" smooth="yes"/>
      <point x="245" y="1171" type="line" smooth="yes"/>
      <point x="245" y="1164"/>
      <point x="251" y="1161"/>
    </contour>
    <contour>
      <point x="279" y="1350" type="curve"/>
      <point x="279" y="1486" type="line"/>
      <point x="333" y="1486" type="line" smooth="yes"/>
      <point x="389" y="1486"/>
      <point x="414" y="1471"/>
      <point x="414" y="1431" type="curve" smooth="yes"/>
      <point x="414" y="1379"/>
      <point x="370" y="1351"/>
    </contour>
  </outline>
</glyph>
<glyph name="degree" format="2">
  <advance width="505"/>
  <unicode hex="00B0"/>
  <outline>
    <contour>
      <point x="252" y="861" type="curve" smooth="yes"/>
      <point x="349" y="861"/>
      <point x="413" y="935"/>
      <point x="413" y="1038" type="curve" smooth="yes"/>
      <point x="413" y="1139"/>
      <point x="349" y="1212"/>
      <point x="252" y="1212" type="curve" smooth="yes"/>
      <point x="156" y="1212"/>
      <point x="92" y="1139"/>
      <point x="92" y="1038" type="curve" smooth="yes"/>
      <point x="92" y="935"/>
      <point x="156" y="861"/>
    </contour>
    <contour>
      <point x="252" y="891" type="curve" smooth="yes"/>
      <point x="177" y="891"/>
      <point x="124" y="943"/>
      <point x="124" y="1038" type="curve" smooth="yes"/>
      <point x="124" y="1131"/>
      <point x="177" y="1182"/>
      <point x="252" y="1182" type="curve" smooth="yes"/>
      <point x="328" y="1182"/>
      <point x="381" y="1131"/>
      <point x="381" y="1038" type="curve" smooth="yes"/>
      <point x="381" y="943"/>
      <point x="328" y="891"/>
    </contour>
  </outline>
</glyph>
<glyph name="plusminus" format="2">
	<unicode hex="00B1"/>
	<advance width="610"/>
	<outline>
		<contour>
			<point x="304" y="184" type="curve" smooth="yes"/>
			<point x="314" y="184"/>
			<point x="319" y="187"/>
			<point x="319" y="196" type="curve" smooth="yes"/>
			<point x="319" y="562" type="line" smooth="yes"/>
			<point x="319" y="571"/>
			<point x="314" y="574"/>
			<point x="304" y="574" type="curve" smooth="yes"/>
			<point x="295" y="574"/>
			<point x="291" y="571"/>
			<point x="291" y="562" type="curve" smooth="yes"/>
			<point x="291" y="196" type="line" smooth="yes"/>
			<point x="291" y="187"/>
			<point x="295" y="184"/>
		</contour>
		<component base="minus" yOffset="-252"/>
		<component base="minus" yOffset="30"/>
	</outline>
</glyph>
<glyph name="paragraph" format="2">
  <advance width="1500"/>
  <unicode hex="00B6"/>
  <outline>
    <contour>
      <point x="450" y="-389" type="curve" smooth="yes"/>
      <point x="464" y="-389"/>
      <point x="469" y="-385"/>
      <point x="469" y="-374" type="curve" smooth="yes"/>
      <point x="469" y="840" type="line"/>
      <point x="650" y="840" type="line"/>
      <point x="650" y="-374" type="line" smooth="yes"/>
      <point x="650" y="-385"/>
      <point x="655" y="-389"/>
      <point x="669" y="-389" type="curve" smooth="yes"/>
      <point x="683" y="-389"/>
      <point x="688" y="-385"/>
      <point x="688" y="-374" type="curve" smooth="yes"/>
      <point x="688" y="840" type="line"/>
      <point x="813" y="840" type="line" smooth="yes"/>
      <point x="819" y="840"/>
      <point x="824" y="846"/>
      <point x="824" y="859" type="curve" smooth="yes"/>
      <point x="824" y="871"/>
      <point x="819" y="875"/>
      <point x="813" y="875" type="curve" smooth="yes"/>
      <point x="431" y="875" type="line"/>
      <point x="431" y="-374" type="line" smooth="yes"/>
      <point x="431" y="-385"/>
      <point x="436" y="-389"/>
    </contour>
    <contour>
      <point x="374" y="286" type="curve"/>
      <point x="450" y="286" type="line"/>
      <point x="458" y="875" type="line"/>
      <point x="374" y="875" type="line" smooth="yes"/>
      <point x="210" y="875"/>
      <point x="93" y="760"/>
      <point x="93" y="581" type="curve" smooth="yes"/>
      <point x="93" y="401"/>
      <point x="210" y="286"/>
    </contour>
  </outline>
</glyph>
<glyph name="AE" format="2">
  <advance width="1494"/>
  <unicode hex="00C6"/>
  <anchor x="1075" y="1424" name="top"/>
  <outline>
    <contour>
      <point x="1401" y="0" type="line" smooth="yes"/>
      <point x="1408" y="0"/>
      <point x="1413" y="6"/>
      <point x="1413" y="19" type="curve" smooth="yes"/>
      <point x="1413" y="31"/>
      <point x="1408" y="35"/>
      <point x="1401" y="35" type="curve" smooth="yes"/>
      <point x="825" y="35" type="line"/>
      <point x="825" y="726" type="line"/>
      <point x="1304" y="726" type="line" smooth="yes"/>
      <point x="1310" y="726"/>
      <point x="1315" y="733"/>
      <point x="1315" y="745" type="curve" smooth="yes"/>
      <point x="1315" y="758"/>
      <point x="1310" y="761"/>
      <point x="1304" y="761" type="curve" smooth="yes"/>
      <point x="825" y="761" type="line"/>
      <point x="825" y="1453" type="line"/>
      <point x="1401" y="1453" type="line" smooth="yes"/>
      <point x="1408" y="1453"/>
      <point x="1413" y="1459"/>
      <point x="1413" y="1471" type="curve" smooth="yes"/>
      <point x="1413" y="1484"/>
      <point x="1408" y="1488"/>
      <point x="1401" y="1488" type="curve" smooth="yes"/>
      <point x="785" y="1488" type="line" smooth="yes"/>
      <point x="771" y="1488"/>
      <point x="764" y="1484"/>
      <point x="759" y="1473" type="curve" smooth="yes"/>
      <point x="53" y="16" type="line" smooth="yes"/>
      <point x="46" y="3"/>
      <point x="48" y="-4"/>
      <point x="59" y="-10" type="curve" smooth="yes"/>
      <point x="71" y="-16"/>
      <point x="79" y="-14"/>
      <point x="85" y="0" type="curve" smooth="yes"/>
      <point x="437" y="726" type="line"/>
      <point x="788" y="726" type="line"/>
      <point x="788" y="15" type="line" smooth="yes"/>
      <point x="788" y="4"/>
      <point x="793" y="0"/>
      <point x="806" y="0" type="curve" smooth="yes"/>
    </contour>
    <contour>
      <point x="454" y="761" type="line"/>
      <point x="788" y="1449" type="line"/>
      <point x="788" y="761" type="line"/>
    </contour>
  </outline>
</glyph>
<glyph name="ae" format="2">
  <advance width="894"/>
  <unicode hex="00E6"/>
  <anchor x="494" y="500" name="top"/>
  <outline>
    <contour>
      <point x="75" y="214" type="curve" smooth="yes"/>
      <point x="75" y="64"/>
      <point x="136" y="-17"/>
      <point x="226" y="-17" type="curve" smooth="yes"/>
      <point x="343" y="-17"/>
      <point x="423" y="86"/>
      <point x="494" y="368" type="curve"/>
      <point x="465" y="378" type="line"/>
      <point x="393" y="109"/>
      <point x="321" y="18"/>
      <point x="230" y="18" type="curve" smooth="yes"/>
      <point x="150" y="18"/>
      <point x="115" y="100"/>
      <point x="115" y="218" type="curve" smooth="yes"/>
      <point x="115" y="371"/>
      <point x="201" y="485"/>
      <point x="330" y="485" type="curve" smooth="yes"/>
      <point x="399" y="485"/>
      <point x="444" y="466"/>
      <point x="505" y="439" type="curve"/>
      <point x="495" y="461" type="line"/>
      <point x="471" y="406"/>
      <point x="445" y="330"/>
      <point x="445" y="229" type="curve" smooth="yes"/>
      <point x="445" y="86"/>
      <point x="520" y="-17"/>
      <point x="645" y="-17" type="curve" smooth="yes"/>
      <point x="743" y="-17"/>
      <point x="818" y="38"/>
      <point x="841" y="73" type="curve" smooth="yes"/>
      <point x="848" y="81"/>
      <point x="841" y="89"/>
      <point x="835" y="94" type="curve" smooth="yes"/>
      <point x="828" y="99"/>
      <point x="820" y="101"/>
      <point x="814" y="94" type="curve" smooth="yes"/>
      <point x="786" y="60"/>
      <point x="729" y="16"/>
      <point x="645" y="16" type="curve" smooth="yes"/>
      <point x="563" y="16"/>
      <point x="481" y="78"/>
      <point x="481" y="238" type="curve" smooth="yes"/>
      <point x="481" y="315"/>
      <point x="503" y="391"/>
      <point x="538" y="466" type="curve"/>
      <point x="470" y="496"/>
      <point x="415" y="519"/>
      <point x="334" y="519" type="curve" smooth="yes"/>
      <point x="169" y="519"/>
      <point x="75" y="376"/>
    </contour>
    <contour>
      <point x="829" y="396" type="curve" smooth="yes"/>
      <point x="829" y="471"/>
      <point x="765" y="519"/>
      <point x="664" y="519" type="curve" smooth="yes"/>
      <point x="594" y="519"/>
      <point x="549" y="500"/>
      <point x="496" y="468" type="curve"/>
      <point x="518" y="438" type="line"/>
      <point x="560" y="469"/>
      <point x="611" y="485"/>
      <point x="660" y="485" type="curve" smooth="yes"/>
      <point x="734" y="485"/>
      <point x="789" y="454"/>
      <point x="789" y="395" type="curve" smooth="yes"/>
      <point x="789" y="288"/>
      <point x="644" y="241"/>
      <point x="475" y="243" type="curve"/>
      <point x="475" y="209" type="line"/>
      <point x="675" y="210"/>
      <point x="829" y="270"/>
    </contour>
  </outline>
</glyph>
<glyph name="eth" format="2">
  <advance width="482"/>
  <unicode hex="00F0"/>
  <outline>
    <contour>
      <point x="235" y="-15" type="curve" smooth="yes"/>
      <point x="336" y="-15"/>
      <point x="421" y="72"/>
      <point x="421" y="277" type="curve" smooth="yes"/>
      <point x="421" y="697"/>
      <point x="339" y="1026"/>
      <point x="179" y="1210" type="curve" smooth="yes"/>
      <point x="173" y="1216"/>
      <point x="167" y="1217"/>
      <point x="159" y="1210" type="curve" smooth="yes"/>
      <point x="152" y="1203"/>
      <point x="152" y="1198"/>
      <point x="158" y="1190" type="curve" smooth="yes"/>
      <point x="312" y="1010"/>
      <point x="390" y="697"/>
      <point x="390" y="277" type="curve" smooth="yes"/>
      <point x="390" y="84"/>
      <point x="317" y="13"/>
      <point x="235" y="13" type="curve" smooth="yes"/>
      <point x="148" y="13"/>
      <point x="101" y="90"/>
      <point x="101" y="200" type="curve" smooth="yes"/>
      <point x="101" y="308"/>
      <point x="154" y="387"/>
      <point x="243" y="387" type="curve" smooth="yes"/>
      <point x="307" y="387"/>
      <point x="358" y="349"/>
      <point x="397" y="281" type="curve"/>
      <point x="408" y="303" type="line"/>
      <point x="368" y="377"/>
      <point x="314" y="415"/>
      <point x="243" y="415" type="curve" smooth="yes"/>
      <point x="142" y="415"/>
      <point x="70" y="326"/>
      <point x="70" y="200" type="curve" smooth="yes"/>
      <point x="70" y="72"/>
      <point x="127" y="-15"/>
    </contour>
    <contour>
      <point x="189" y="911" type="curve" smooth="yes"/>
      <point x="404" y="1030" type="line" smooth="yes"/>
      <point x="412" y="1034"/>
      <point x="413" y="1039"/>
      <point x="410" y="1048" type="curve" smooth="yes"/>
      <point x="406" y="1058"/>
      <point x="400" y="1061"/>
      <point x="392" y="1057" type="curve" smooth="yes"/>
      <point x="178" y="938" type="line" smooth="yes"/>
      <point x="169" y="933"/>
      <point x="168" y="928"/>
      <point x="171" y="920" type="curve" smooth="yes"/>
      <point x="175" y="910"/>
      <point x="181" y="907"/>
    </contour>
  </outline>
</glyph>
<glyph name="Eng" format="2">
  <advance width="1100"/>
  <unicode hex="014A"/>
  <outline>
    <contour>
      <point x="907" y="-172" type="curve" smooth="yes"/>
      <point x="907" y="1200" type="line" smooth="yes"/>
      <point x="907" y="1209"/>
      <point x="903" y="1212"/>
      <point x="892" y="1212" type="curve" smooth="yes"/>
      <point x="881" y="1212"/>
      <point x="877" y="1209"/>
      <point x="877" y="1200" type="curve" smooth="yes"/>
      <point x="877" y="54" type="line"/>
      <point x="224" y="1205" type="line" smooth="yes"/>
      <point x="221" y="1210"/>
      <point x="217" y="1212"/>
      <point x="207" y="1212" type="curve" smooth="yes"/>
      <point x="198" y="1212"/>
      <point x="193" y="1209"/>
      <point x="193" y="1200" type="curve" smooth="yes"/>
      <point x="193" y="1" type="line" smooth="yes"/>
      <point x="193" y="-8"/>
      <point x="197" y="-11"/>
      <point x="208" y="-11" type="curve" smooth="yes"/>
      <point x="219" y="-11"/>
      <point x="223" y="-8"/>
      <point x="223" y="1" type="curve" smooth="yes"/>
      <point x="223" y="1148" type="line"/>
      <point x="878" y="-7" type="line"/>
      <point x="878" y="-172" type="line" smooth="yes"/>
      <point x="878" y="-280"/>
      <point x="851" y="-326"/>
      <point x="778" y="-326" type="curve" smooth="yes"/>
      <point x="737" y="-326"/>
      <point x="705" y="-300"/>
      <point x="683" y="-248" type="curve" smooth="yes"/>
      <point x="680" y="-240"/>
      <point x="672" y="-238"/>
      <point x="663" y="-244" type="curve" smooth="yes"/>
      <point x="658" y="-247"/>
      <point x="655" y="-253"/>
      <point x="657" y="-260" type="curve" smooth="yes"/>
      <point x="678" y="-318"/>
      <point x="720" y="-354"/>
      <point x="778" y="-354" type="curve" smooth="yes"/>
      <point x="868" y="-354"/>
      <point x="907" y="-300"/>
    </contour>
  </outline>
</glyph>
<glyph name="OE" format="2">
  <advance width="1580"/>
  <unicode hex="0152"/>
  <anchor x="872" y="1139" name="top"/>
  <outline>
    <contour>
      <point x="555" y="-15" type="curve" smooth="yes"/>
      <point x="813" y="-15"/>
      <point x="982" y="228"/>
      <point x="982" y="599" type="curve" smooth="yes"/>
      <point x="982" y="969"/>
      <point x="813" y="1212"/>
      <point x="555" y="1212" type="curve" smooth="yes"/>
      <point x="292" y="1212"/>
      <point x="120" y="969"/>
      <point x="120" y="599" type="curve" smooth="yes"/>
      <point x="120" y="228"/>
      <point x="292" y="-15"/>
    </contour>
    <contour>
      <point x="555" y="15" type="curve" smooth="yes"/>
      <point x="312" y="15"/>
      <point x="153" y="246"/>
      <point x="153" y="599" type="curve" smooth="yes"/>
      <point x="153" y="951"/>
      <point x="312" y="1182"/>
      <point x="555" y="1182" type="curve" smooth="yes"/>
      <point x="796" y="1182"/>
      <point x="954" y="951"/>
      <point x="954" y="599" type="curve" smooth="yes"/>
      <point x="954" y="246"/>
      <point x="796" y="15"/>
    </contour>
    <contour>
      <point x="969" y="0" type="curve" smooth="yes"/>
      <point x="1506" y="0" type="line" smooth="yes"/>
      <point x="1511" y="0"/>
      <point x="1515" y="4"/>
      <point x="1515" y="14" type="curve" smooth="yes"/>
      <point x="1515" y="24"/>
      <point x="1511" y="28"/>
      <point x="1506" y="28" type="curve" smooth="yes"/>
      <point x="984" y="28" type="line"/>
      <point x="984" y="615" type="line"/>
      <point x="1428" y="615" type="line" smooth="yes"/>
      <point x="1433" y="615"/>
      <point x="1437" y="619"/>
      <point x="1437" y="629" type="curve" smooth="yes"/>
      <point x="1437" y="639"/>
      <point x="1433" y="643"/>
      <point x="1428" y="643" type="curve" smooth="yes"/>
      <point x="984" y="643" type="line"/>
      <point x="984" y="1162" type="line"/>
      <point x="1506" y="1162" type="line" smooth="yes"/>
      <point x="1511" y="1162"/>
      <point x="1515" y="1166"/>
      <point x="1515" y="1176" type="curve" smooth="yes"/>
      <point x="1515" y="1186"/>
      <point x="1511" y="1190"/>
      <point x="1506" y="1190" type="curve" smooth="yes"/>
      <point x="970" y="1190" type="line" smooth="yes"/>
      <point x="959" y="1190"/>
      <point x="954" y="1187"/>
      <point x="954" y="1178" type="curve" smooth="yes"/>
      <point x="954" y="12" type="line" smooth="yes"/>
      <point x="954" y="3"/>
      <point x="958" y="0"/>
    </contour>
  </outline>
</glyph>
<glyph name="oe" format="2">
  <advance width="737"/>
  <unicode hex="0153"/>
  <anchor x="395" y="400" name="top"/>
  <outline>
    <contour>
      <point x="236" y="-15" type="curve" smooth="yes"/>
      <point x="340" y="-15"/>
      <point x="407" y="72"/>
      <point x="407" y="200" type="curve" smooth="yes"/>
      <point x="407" y="328"/>
      <point x="337" y="415"/>
      <point x="236" y="415" type="curve" smooth="yes"/>
      <point x="134" y="415"/>
      <point x="60" y="328"/>
      <point x="60" y="200" type="curve" smooth="yes"/>
      <point x="60" y="72"/>
      <point x="125" y="-15"/>
    </contour>
    <contour>
      <point x="236" y="13" type="curve" smooth="yes"/>
      <point x="146" y="13"/>
      <point x="91" y="90"/>
      <point x="91" y="200" type="curve" smooth="yes"/>
      <point x="91" y="310"/>
      <point x="146" y="387"/>
      <point x="236" y="387" type="curve" smooth="yes"/>
      <point x="325" y="387"/>
      <point x="380" y="310"/>
      <point x="380" y="200" type="curve" smooth="yes"/>
      <point x="380" y="90"/>
      <point x="325" y="13"/>
    </contour>
    <contour>
      <point x="550" y="-14" type="curve" smooth="yes"/>
      <point x="632" y="-14"/>
      <point x="676" y="30"/>
      <point x="695" y="58" type="curve" smooth="yes"/>
      <point x="700" y="65"/>
      <point x="695" y="71"/>
      <point x="690" y="75" type="curve" smooth="yes"/>
      <point x="684" y="79"/>
      <point x="678" y="81"/>
      <point x="673" y="75" type="curve" smooth="yes"/>
      <point x="651" y="48"/>
      <point x="622" y="13"/>
      <point x="553" y="13" type="curve" smooth="yes"/>
      <point x="477" y="13"/>
      <point x="407" y="62"/>
      <point x="407" y="190" type="curve" smooth="yes"/>
      <point x="407" y="330"/>
      <point x="482" y="388"/>
      <point x="560" y="388" type="curve" smooth="yes"/>
      <point x="619" y="388"/>
      <point x="653" y="363"/>
      <point x="653" y="316" type="curve" smooth="yes"/>
      <point x="653" y="230"/>
      <point x="537" y="193"/>
      <point x="402" y="194" type="curve"/>
      <point x="402" y="167" type="line"/>
      <point x="562" y="168"/>
      <point x="685" y="216"/>
      <point x="685" y="317" type="curve" smooth="yes"/>
      <point x="685" y="365"/>
      <point x="652" y="415"/>
      <point x="563" y="415" type="curve" smooth="yes"/>
      <point x="448" y="415"/>
      <point x="380" y="322"/>
      <point x="380" y="183" type="curve" smooth="yes"/>
      <point x="380" y="71"/>
      <point x="445" y="-14"/>
    </contour>
  </outline>
</glyph>
<glyph name="Ohorn" format="2">
  <advance width="1434"/>
  <unicode hex="01A0"/>
  <anchor x="718" y="0" name="bottom"/>
  <anchor x="718" y="744" name="center"/>
  <anchor x="916" y="11" name="ogonek"/>
  <anchor x="718" y="1424" name="top"/>
  <outline>
    <contour>
      <point x="719" y="-19" type="curve" smooth="yes"/>
      <point x="1060" y="-19"/>
      <point x="1284" y="285"/>
      <point x="1284" y="749" type="curve" smooth="yes"/>
      <point x="1284" y="1040"/>
      <point x="1195" y="1268"/>
      <point x="1044" y="1398" type="curve"/>
      <point x="1182" y="1415"/>
      <point x="1238" y="1553"/>
      <point x="1137" y="1689" type="curve" smooth="yes"/>
      <point x="1123" y="1707"/>
      <point x="1088" y="1681"/>
      <point x="1100" y="1664" type="curve" smooth="yes"/>
      <point x="1187" y="1544"/>
      <point x="1143" y="1428"/>
      <point x="1010" y="1424" type="curve"/>
      <point x="928" y="1483"/>
      <point x="830" y="1515"/>
      <point x="719" y="1515" type="curve" smooth="yes"/>
      <point x="375" y="1515"/>
      <point x="150" y="1211"/>
      <point x="150" y="749" type="curve" smooth="yes"/>
      <point x="150" y="285"/>
      <point x="375" y="-19"/>
    </contour>
    <contour>
      <point x="719" y="19" type="curve" smooth="yes"/>
      <point x="400" y="19"/>
      <point x="191" y="308"/>
      <point x="191" y="749" type="curve" smooth="yes"/>
      <point x="191" y="1189"/>
      <point x="400" y="1478"/>
      <point x="719" y="1478" type="curve" smooth="yes"/>
      <point x="1035" y="1478"/>
      <point x="1243" y="1189"/>
      <point x="1243" y="749" type="curve" smooth="yes"/>
      <point x="1243" y="308"/>
      <point x="1035" y="19"/>
    </contour>
  </outline>
</glyph>
<glyph name="Uhorn" format="2">
  <advance width="1337"/>
  <unicode hex="01AF"/>
  <anchor x="669" y="0" name="bottom"/>
  <anchor x="910" y="21" name="ogonek"/>
  <anchor x="669" y="1424" name="top"/>
  <anchor x="1096" y="1509" name="topright"/>
  <outline>
    <contour>
      <point x="1229" y="1684" type="curve" smooth="yes"/>
      <point x="1215" y="1703"/>
      <point x="1180" y="1677"/>
      <point x="1192" y="1659" type="curve" smooth="yes"/>
      <point x="1244" y="1585"/>
      <point x="1224" y="1514"/>
      <point x="1096" y="1509" type="curve"/>
      <point x="1096" y="1481" type="line"/>
      <point x="1245" y="1471"/>
      <point x="1300" y="1584"/>
    </contour>
    <component base="U"/>
  </outline>
</glyph>
<glyph name="uhorn" format="2">
  <advance width="646"/>
  <unicode hex="01B0"/>
  <anchor x="303" y="0" name="bottom"/>
  <anchor x="581" y="13" name="ogonek"/>
  <anchor x="303" y="500" name="top"/>
  <outline>
    <contour>
      <point x="270" y="-19" type="curve" smooth="yes"/>
      <point x="334" y="-19"/>
      <point x="416" y="3"/>
      <point x="460" y="106" type="curve"/>
      <point x="460" y="79" type="line" smooth="yes"/>
      <point x="460" y="13"/>
      <point x="491" y="-19"/>
      <point x="538" y="-19" type="curve" smooth="yes"/>
      <point x="575" y="-19"/>
      <point x="614" y="3"/>
      <point x="636" y="34" type="curve" smooth="yes"/>
      <point x="641" y="41"/>
      <point x="639" y="48"/>
      <point x="633" y="54" type="curve" smooth="yes"/>
      <point x="625" y="61"/>
      <point x="618" y="60"/>
      <point x="611" y="51" type="curve" smooth="yes"/>
      <point x="589" y="25"/>
      <point x="565" y="16"/>
      <point x="544" y="16" type="curve" smooth="yes"/>
      <point x="509" y="16"/>
      <point x="496" y="44"/>
      <point x="496" y="91" type="curve" smooth="yes"/>
      <point x="496" y="488" type="line"/>
      <point x="625" y="492"/>
      <point x="672" y="600"/>
      <point x="603" y="697" type="curve" smooth="yes"/>
      <point x="589" y="715"/>
      <point x="554" y="689"/>
      <point x="566" y="672" type="curve" smooth="yes"/>
      <point x="620" y="595"/>
      <point x="598" y="519"/>
      <point x="479" y="515" type="curve" smooth="yes"/>
      <point x="466" y="515"/>
      <point x="460" y="511"/>
      <point x="460" y="500" type="curve" smooth="yes"/>
      <point x="460" y="191" type="line"/>
      <point x="433" y="59"/>
      <point x="354" y="16"/>
      <point x="275" y="16" type="curve" smooth="yes"/>
      <point x="186" y="16"/>
      <point x="149" y="75"/>
      <point x="149" y="174" type="curve" smooth="yes"/>
      <point x="149" y="499" type="line" smooth="yes"/>
      <point x="149" y="510"/>
      <point x="143" y="514"/>
      <point x="130" y="514" type="curve" smooth="yes"/>
      <point x="118" y="514"/>
      <point x="113" y="510"/>
      <point x="113" y="499" type="curve" smooth="yes"/>
      <point x="113" y="166" type="line" smooth="yes"/>
      <point x="113" y="35"/>
      <point x="183" y="-19"/>
    </contour>
  </outline>
</glyph>
<glyph name="jdotless" format="2">
	<unicode hex="0237"/>
	<advance width="214"/>
	<outline>
		<contour>
			<point x="31" y="-314" type="curve" smooth="yes"/>
			<point x="94" y="-314"/>
			<point x="119" y="-271"/>
			<point x="119" y="-208" type="curve" smooth="yes"/>
			<point x="119" y="400" type="line" smooth="yes"/>
			<point x="119" y="409"/>
			<point x="115" y="412"/>
			<point x="105" y="412" type="curve" smooth="yes"/>
			<point x="95" y="412"/>
			<point x="90" y="409"/>
			<point x="90" y="400" type="curve" smooth="yes"/>
			<point x="90" y="-206" type="line" smooth="yes"/>
			<point x="90" y="-254"/>
			<point x="80" y="-286"/>
			<point x="32" y="-286" type="curve" smooth="yes"/>
			<point x="4" y="-286"/>
			<point x="-13" y="-270"/>
			<point x="-25" y="-247" type="curve" smooth="yes"/>
			<point x="-29" y="-240"/>
			<point x="-34" y="-238"/>
			<point x="-43" y="-243" type="curve" smooth="yes"/>
			<point x="-50" y="-247"/>
			<point x="-50" y="-254"/>
			<point x="-48" y="-260" type="curve" smooth="yes"/>
			<point x="-37" y="-291"/>
			<point x="-7" y="-314"/>
		</contour>
	</outline>
	<anchor name="top" x="104" y="400"/>
</glyph>
<glyph name="circumflexcomb" format="2">
	<unicode hex="0302"/>
	<outline>
		<contour>
			<point x="-117" y="504" type="curve" smooth="yes"/>
			<point x="-113" y="504"/>
			<point x="-110" y="506"/>
			<point x="-107" y="509" type="curve" smooth="yes"/>
			<point x="0" y="627" type="line"/>
			<point x="107" y="509" type="line" smooth="yes"/>
			<point x="110" y="506"/>
			<point x="113" y="504"/>
			<point x="117" y="504" type="curve" smooth="yes"/>
			<point x="124" y="504"/>
			<point x="131" y="510"/>
			<point x="131" y="518" type="curve" smooth="yes"/>
			<point x="131" y="521"/>
			<point x="130" y="524"/>
			<point x="127" y="527" type="curve" smooth="yes"/>
			<point x="13" y="662" type="line" smooth="yes"/>
			<point x="8" y="668"/>
			<point x="4" y="669"/>
			<point x="0" y="669" type="curve" smooth="yes"/>
			<point x="-4" y="669"/>
			<point x="-8" y="668"/>
			<point x="-13" y="662" type="curve" smooth="yes"/>
			<point x="-127" y="527" type="line" smooth="yes"/>
			<point x="-130" y="524"/>
			<point x="-131" y="521"/>
			<point x="-131" y="518" type="curve" smooth="yes"/>
			<point x="-131" y="510"/>
			<point x="-124" y="504"/>
		</contour>
	</outline>
	<anchor name="_top" x="0" y="400"/>
	<anchor name="top" x="0" y="654"/>
</glyph>
<glyph name="tildecomb" format="2">
	<unicode hex="0303"/>
	<outline>
		<contour>
			<point x="-124" y="524" type="curve" smooth="yes"/>
			<point x="-114" y="524"/>
			<point x="-111" y="527"/>
			<point x="-110" y="537" type="curve" smooth="yes"/>
			<point x="-107" y="577"/>
			<point x="-93" y="597"/>
			<point x="-68" y="597" type="curve" smooth="yes"/>
			<point x="-20" y="597"/>
			<point x="6" y="526"/>
			<point x="66" y="526" type="curve" smooth="yes"/>
			<point x="108" y="526"/>
			<point x="135" y="558"/>
			<point x="138" y="612" type="curve" smooth="yes"/>
			<point x="138" y="623"/>
			<point x="135" y="626"/>
			<point x="124" y="626" type="curve" smooth="yes"/>
			<point x="114" y="626"/>
			<point x="110" y="623"/>
			<point x="109" y="613" type="curve" smooth="yes"/>
			<point x="107" y="574"/>
			<point x="93" y="554"/>
			<point x="67" y="554" type="curve" smooth="yes"/>
			<point x="20" y="554"/>
			<point x="-5" y="625"/>
			<point x="-68" y="625" type="curve" smooth="yes"/>
			<point x="-108" y="625"/>
			<point x="-135" y="591"/>
			<point x="-138" y="538" type="curve" smooth="yes"/>
			<point x="-138" y="529"/>
			<point x="-133" y="524"/>
		</contour>
	</outline>
	<anchor name="_top" x="0" y="400"/>
	<anchor name="top" x="0" y="604"/>
</glyph>
<glyph name="brevecomb" format="2">
	<unicode hex="0306"/>
	<outline>
		<contour>
			<point x="0" y="504" type="curve" smooth="yes"/>
			<point x="75" y="504"/>
			<point x="123" y="559"/>
			<point x="123" y="656" type="curve" smooth="yes"/>
			<point x="123" y="665"/>
			<point x="119" y="669"/>
			<point x="109" y="669" type="curve" smooth="yes"/>
			<point x="99" y="669"/>
			<point x="95" y="665"/>
			<point x="95" y="656" type="curve" smooth="yes"/>
			<point x="95" y="578"/>
			<point x="60" y="536"/>
			<point x="0" y="536" type="curve" smooth="yes"/>
			<point x="-60" y="536"/>
			<point x="-95" y="578"/>
			<point x="-95" y="656" type="curve" smooth="yes"/>
			<point x="-95" y="665"/>
			<point x="-99" y="669"/>
			<point x="-109" y="669" type="curve" smooth="yes"/>
			<point x="-119" y="669"/>
			<point x="-123" y="665"/>
			<point x="-123" y="656" type="curve" smooth="yes"/>
			<point x="-123" y="559"/>
			<point x="-75" y="504"/>
		</contour>
	</outline>
	<anchor name="_top" x="0" y="400"/>
	<anchor name="top" x="0" y="654"/>
	<guideline x="-19" y="559" angle="0"/>
	<guideline x="-48" y="504" angle="0"/>
</glyph>
<glyph name="hookabovecomb" format="2">
  <unicode hex="0309"/>
  <anchor x="0" y="400" name="_top"/>
  <anchor x="0" y="654" name="top"/>
  <outline>
    <contour>
      <point x="6" y="670" type="curve" smooth="yes"/>
      <point x="-22" y="670"/>
      <point x="-44" y="663"/>
      <point x="-63" y="648" type="curve" smooth="yes"/>
      <point x="-69" y="643"/>
      <point x="-70" y="636"/>
      <point x="-66" y="629" type="curve" smooth="yes"/>
      <point x="-63" y="622"/>
      <point x="-56" y="620"/>
      <point x="-49" y="624" type="curve"/>
      <point x="-32" y="636"/>
      <point x="-15" y="642"/>
      <point x="3" y="642" type="curve" smooth="yes"/>
      <point x="27" y="642"/>
      <point x="43" y="630"/>
      <point x="43" y="612" type="curve" smooth="yes"/>
      <point x="43" y="596"/>
      <point x="35" y="585"/>
      <point x="13" y="570" type="curve" smooth="yes"/>
      <point x="-13" y="553"/>
      <point x="-19" y="534"/>
      <point x="-7" y="507" type="curve" smooth="yes"/>
      <point x="-1" y="494" type="line" smooth="yes"/>
      <point x="4" y="482"/>
      <point x="31" y="492"/>
      <point x="24" y="507" type="curve" smooth="yes"/>
      <point x="22" y="511" type="line" smooth="yes"/>
      <point x="12" y="531"/>
      <point x="14" y="536"/>
      <point x="38" y="553" type="curve" smooth="yes"/>
      <point x="66" y="573"/>
      <point x="75" y="588"/>
      <point x="75" y="612" type="curve" smooth="yes"/>
      <point x="75" y="645"/>
      <point x="45" y="670"/>
    </contour>
  </outline>
</glyph>
<glyph name="hungarumlautcomb" format="2">
  <unicode hex="030B"/>
  <anchor x="0" y="400" name="_top"/>
  <anchor x="45" y="654" name="top"/>
  <outline>
    <contour>
      <point x="-74" y="504" type="curve" smooth="yes"/>
      <point x="-70" y="504"/>
      <point x="-67" y="507"/>
      <point x="-65" y="511" type="curve" smooth="yes"/>
      <point x="12" y="644" type="line" smooth="yes"/>
      <point x="14" y="648"/>
      <point x="15" y="651"/>
      <point x="15" y="654" type="curve" smooth="yes"/>
      <point x="15" y="662"/>
      <point x="2" y="669"/>
      <point x="-5" y="669" type="curve" smooth="yes"/>
      <point x="-10" y="669"/>
      <point x="-13" y="666"/>
      <point x="-16" y="661" type="curve" smooth="yes"/>
      <point x="-87" y="526" type="line" smooth="yes"/>
      <point x="-90" y="520"/>
      <point x="-90" y="518"/>
      <point x="-90" y="516" type="curve" smooth="yes"/>
      <point x="-90" y="509"/>
      <point x="-81" y="504"/>
    </contour>
    <contour>
      <point x="46" y="504" type="curve" smooth="yes"/>
      <point x="50" y="504"/>
      <point x="53" y="507"/>
      <point x="55" y="511" type="curve" smooth="yes"/>
      <point x="137" y="644" type="line" smooth="yes"/>
      <point x="139" y="648"/>
      <point x="140" y="651"/>
      <point x="140" y="654" type="curve" smooth="yes"/>
      <point x="140" y="662"/>
      <point x="127" y="669"/>
      <point x="120" y="669" type="curve" smooth="yes"/>
      <point x="115" y="669"/>
      <point x="112" y="666"/>
      <point x="109" y="661" type="curve" smooth="yes"/>
      <point x="33" y="526" type="line" smooth="yes"/>
      <point x="30" y="520"/>
      <point x="30" y="518"/>
      <point x="30" y="516" type="curve" smooth="yes"/>
      <point x="30" y="509"/>
      <point x="39" y="504"/>
    </contour>
  </outline>
</glyph>
<glyph name="commaturnedabovecomb" format="2">
	<unicode hex="0312"/>
	<outline>
		<contour>
			<point x="39" y="669" type="curve" smooth="yes"/>
			<point x="29" y="673"/>
			<point x="24" y="668"/>
			<point x="19" y="660" type="curve" smooth="yes"/>
			<point x="-5" y="622"/>
			<point x="-21" y="566"/>
			<point x="-21" y="521" type="curve" smooth="yes"/>
			<point x="-21" y="512"/>
			<point x="-16" y="504"/>
			<point x="-4" y="504" type="curve" smooth="yes"/>
			<point x="8" y="504"/>
			<point x="11" y="512"/>
			<point x="11" y="521" type="curve" smooth="yes"/>
			<point x="11" y="581"/>
			<point x="22" y="611"/>
			<point x="42" y="647" type="curve" smooth="yes"/>
			<point x="49" y="660"/>
			<point x="49" y="665"/>
		</contour>
	</outline>
	<anchor name="_top" x="0" y="400"/>
	<anchor name="top" x="0" y="654"/>
</glyph>
<glyph name="dotbelowcomb" format="2">
	<unicode hex="0323"/>
	<outline>
		<contour>
			<point x="0" y="-170" type="curve" smooth="yes"/>
			<point x="20" y="-170"/>
			<point x="30" y="-159"/>
			<point x="30" y="-136" type="curve" smooth="yes"/>
			<point x="30" y="-113"/>
			<point x="20" y="-102"/>
			<point x="0" y="-102" type="curve" smooth="yes"/>
			<point x="-20" y="-102"/>
			<point x="-30" y="-113"/>
			<point x="-30" y="-136" type="curve" smooth="yes"/>
			<point x="-30" y="-159"/>
			<point x="-20" y="-170"/>
		</contour>
	</outline>
	<anchor name="_bottom" x="0" y="0"/>
	<anchor name="bottom" x="0" y="-159"/>
</glyph>
<glyph name="commaaccentcomb" format="2">
	<unicode hex="0326"/>
	<outline>
		<contour>
			<point x="-42" y="-218" type="curve" smooth="yes"/>
			<point x="-32" y="-222"/>
			<point x="-27" y="-217"/>
			<point x="-22" y="-209" type="curve" smooth="yes"/>
			<point x="2" y="-171"/>
			<point x="15" y="-126"/>
			<point x="15" y="-81" type="curve" smooth="yes"/>
			<point x="15" y="-72"/>
			<point x="10" y="-64"/>
			<point x="-2" y="-64" type="curve" smooth="yes"/>
			<point x="-14" y="-64"/>
			<point x="-17" y="-72"/>
			<point x="-17" y="-81" type="curve" smooth="yes"/>
			<point x="-17" y="-141"/>
			<point x="-25" y="-160"/>
			<point x="-45" y="-196" type="curve" smooth="yes"/>
			<point x="-52" y="-209"/>
			<point x="-52" y="-214"/>
		</contour>
	</outline>
	<anchor name="_bottom" x="0" y="0"/>
</glyph>
<glyph name="ogonekcomb" format="2">
	<unicode hex="0328"/>
	<outline>
		<contour>
			<point x="-18" y="-206" type="curve" smooth="yes"/>
			<point x="13" y="-206"/>
			<point x="50" y="-188"/>
			<point x="71" y="-159" type="curve" smooth="yes"/>
			<point x="76" y="-152"/>
			<point x="76" y="-146"/>
			<point x="69" y="-140" type="curve" smooth="yes"/>
			<point x="65" y="-136"/>
			<point x="58" y="-136"/>
			<point x="52" y="-143" type="curve" smooth="yes"/>
			<point x="30" y="-169"/>
			<point x="1" y="-180"/>
			<point x="-16" y="-180" type="curve" smooth="yes"/>
			<point x="-40" y="-180"/>
			<point x="-53" y="-163"/>
			<point x="-53" y="-134" type="curve" smooth="yes"/>
			<point x="-53" y="-85"/>
			<point x="1" y="-36"/>
			<point x="53" y="1" type="curve"/>
			<point x="53" y="4" type="line"/>
			<point x="24" y="4" type="line"/>
			<point x="-34" y="-36"/>
			<point x="-82" y="-86"/>
			<point x="-82" y="-136" type="curve" smooth="yes"/>
			<point x="-82" y="-182"/>
			<point x="-56" y="-206"/>
		</contour>
	</outline>
	<anchor name="_ogonek" x="53" y="0"/>
</glyph>
<glyph name="Germandbls" format="2">
  <advance width="1060"/>
  <unicode hex="1E9E"/>
  <outline>
    <contour>
      <point x="633" y="-15" type="curve" smooth="yes"/>
      <point x="805" y="-15"/>
      <point x="959" y="109"/>
      <point x="959" y="333" type="curve" smooth="yes"/>
      <point x="959" y="698"/>
      <point x="546" y="669"/>
      <point x="546" y="950" type="curve" smooth="yes"/>
      <point x="546" y="1069"/>
      <point x="604" y="1184"/>
      <point x="787" y="1184" type="curve" smooth="yes"/>
      <point x="796" y="1184"/>
      <point x="798" y="1189"/>
      <point x="798" y="1199" type="curve" smooth="yes"/>
      <point x="798" y="1209"/>
      <point x="796" y="1212"/>
      <point x="787" y="1212" type="curve" smooth="yes"/>
      <point x="743" y="1212" type="line" smooth="yes"/>
      <point x="290" y="1212"/>
      <point x="183" y="1003"/>
      <point x="183" y="715" type="curve" smooth="yes"/>
      <point x="183" y="1" type="line" smooth="yes"/>
      <point x="183" y="-8"/>
      <point x="187" y="-11"/>
      <point x="198" y="-11" type="curve" smooth="yes"/>
      <point x="209" y="-11"/>
      <point x="213" y="-8"/>
      <point x="213" y="1" type="curve" smooth="yes"/>
      <point x="213" y="715" type="line" smooth="yes"/>
      <point x="213" y="995"/>
      <point x="313" y="1188"/>
      <point x="745" y="1188" type="curve"/>
      <point x="745" y="1203" type="line"/>
      <point x="610" y="1203"/>
      <point x="514" y="1096"/>
      <point x="514" y="950" type="curve" smooth="yes"/>
      <point x="514" y="647"/>
      <point x="926" y="678"/>
      <point x="926" y="333" type="curve" smooth="yes"/>
      <point x="926" y="119"/>
      <point x="785" y="15"/>
      <point x="633" y="15" type="curve" smooth="yes"/>
      <point x="562" y="15"/>
      <point x="504" y="28"/>
      <point x="441" y="59" type="curve" smooth="yes"/>
      <point x="423" y="67"/>
      <point x="411" y="63"/>
      <point x="410" y="61" type="curve" smooth="yes"/>
      <point x="404" y="48"/>
      <point x="407" y="38"/>
      <point x="425" y="30" type="curve" smooth="yes"/>
      <point x="501" y="-4"/>
      <point x="553" y="-15"/>
    </contour>
  </outline>
</glyph>
<glyph name="endash" format="2">
  <advance width="625"/>
  <unicode hex="2013"/>
  <outline>
    <contour>
      <point x="90" y="325" type="curve" smooth="yes"/>
      <point x="535" y="325" type="line" smooth="yes"/>
      <point x="546" y="325"/>
      <point x="550" y="330"/>
      <point x="550" y="341" type="curve" smooth="yes"/>
      <point x="550" y="354"/>
      <point x="546" y="360"/>
      <point x="535" y="360" type="curve" smooth="yes"/>
      <point x="90" y="360" type="line" smooth="yes"/>
      <point x="79" y="360"/>
      <point x="75" y="354"/>
      <point x="75" y="341" type="curve" smooth="yes"/>
      <point x="75" y="330"/>
      <point x="79" y="325"/>
    </contour>
  </outline>
</glyph>
<glyph name="quoteleft" format="2">
	<unicode hex="2018"/>
	<advance width="145"/>
	<outline>
		<contour>
			<point x="74" y="988" type="curve" smooth="yes"/>
			<point x="91" y="988"/>
			<point x="97" y="997"/>
			<point x="97" y="1008" type="curve" smooth="yes"/>
			<point x="97" y="1071"/>
			<point x="96" y="1118"/>
			<point x="124" y="1188" type="curve" smooth="yes"/>
			<point x="126" y="1194"/>
			<point x="128" y="1198"/>
			<point x="128" y="1202" type="curve" smooth="yes"/>
			<point x="128" y="1209"/>
			<point x="117" y="1215"/>
			<point x="109" y="1215" type="curve" smooth="yes"/>
			<point x="103" y="1215"/>
			<point x="98" y="1210"/>
			<point x="94" y="1204" type="curve" smooth="yes"/>
			<point x="58" y="1145"/>
			<point x="50" y="1049"/>
			<point x="50" y="1010" type="curve" smooth="yes"/>
			<point x="50" y="999"/>
			<point x="56" y="988"/>
		</contour>
	</outline>
</glyph>
<glyph name="euro" format="2">
  <advance width="961"/>
  <unicode hex="20AC"/>
  <outline>
    <contour>
      <point x="550" y="-15" type="curve" smooth="yes"/>
      <point x="687" y="-15"/>
      <point x="778" y="46"/>
      <point x="890" y="171" type="curve" smooth="yes"/>
      <point x="898" y="180"/>
      <point x="898" y="185"/>
      <point x="890" y="192" type="curve" smooth="yes"/>
      <point x="881" y="200"/>
      <point x="876" y="198"/>
      <point x="867" y="188" type="curve" smooth="yes"/>
      <point x="773" y="83"/>
      <point x="685" y="15"/>
      <point x="550" y="15" type="curve" smooth="yes"/>
      <point x="306" y="15"/>
      <point x="153" y="251"/>
      <point x="153" y="593" type="curve" smooth="yes"/>
      <point x="153" y="950"/>
      <point x="333" y="1182"/>
      <point x="579" y="1182" type="curve" smooth="yes"/>
      <point x="673" y="1182"/>
      <point x="764" y="1147"/>
      <point x="842" y="1060" type="curve" smooth="yes"/>
      <point x="851" y="1050"/>
      <point x="856" y="1048"/>
      <point x="865" y="1056" type="curve" smooth="yes"/>
      <point x="873" y="1063"/>
      <point x="873" y="1068"/>
      <point x="865" y="1077" type="curve" smooth="yes"/>
      <point x="794" y="1163"/>
      <point x="686" y="1212"/>
      <point x="579" y="1212" type="curve" smooth="yes"/>
      <point x="316" y="1212"/>
      <point x="120" y="975"/>
      <point x="120" y="593" type="curve" smooth="yes"/>
      <point x="120" y="222"/>
      <point x="289" y="-15"/>
    </contour>
    <contour>
      <point x="9" y="653" type="curve" smooth="yes"/>
      <point x="701" y="653" type="line" smooth="yes"/>
      <point x="706" y="653"/>
      <point x="710" y="658"/>
      <point x="710" y="668" type="curve" smooth="yes"/>
      <point x="710" y="678"/>
      <point x="706" y="681"/>
      <point x="701" y="681" type="curve" smooth="yes"/>
      <point x="9" y="681" type="line" smooth="yes"/>
      <point x="4" y="681"/>
      <point x="0" y="677"/>
      <point x="0" y="667" type="curve" smooth="yes"/>
      <point x="0" y="657"/>
      <point x="4" y="653"/>
    </contour>
    <contour>
      <point x="9" y="509" type="curve" smooth="yes"/>
      <point x="701" y="509" type="line" smooth="yes"/>
      <point x="706" y="509"/>
      <point x="710" y="514"/>
      <point x="710" y="524" type="curve" smooth="yes"/>
      <point x="710" y="534"/>
      <point x="706" y="537"/>
      <point x="701" y="537" type="curve" smooth="yes"/>
      <point x="9" y="537" type="line" smooth="yes"/>
      <point x="4" y="537"/>
      <point x="0" y="533"/>
      <point x="0" y="523" type="curve" smooth="yes"/>
      <point x="0" y="513"/>
      <point x="4" y="509"/>
    </contour>
  </outline>
</glyph>
<glyph name="trademark" format="2">
  <advance width="2156"/>
  <unicode hex="2122"/>
  <outline>
    <contour>
      <point x="170" y="355" type="curve" smooth="yes"/>
      <point x="179" y="355"/>
      <point x="185" y="358"/>
      <point x="185" y="365" type="curve" smooth="yes"/>
      <point x="185" y="685" type="line"/>
      <point x="292" y="685" type="line" smooth="yes"/>
      <point x="298" y="685"/>
      <point x="301" y="689"/>
      <point x="301" y="698" type="curve" smooth="yes"/>
      <point x="301" y="707"/>
      <point x="298" y="711"/>
      <point x="292" y="711" type="curve" smooth="yes"/>
      <point x="49" y="711" type="line" smooth="yes"/>
      <point x="43" y="711"/>
      <point x="40" y="708"/>
      <point x="40" y="698" type="curve" smooth="yes"/>
      <point x="40" y="688"/>
      <point x="43" y="685"/>
      <point x="49" y="685" type="curve" smooth="yes"/>
      <point x="156" y="685" type="line"/>
      <point x="156" y="365" type="line" smooth="yes"/>
      <point x="156" y="358"/>
      <point x="161" y="355"/>
    </contour>
    <contour>
      <point x="375" y="355" type="curve" smooth="yes"/>
      <point x="384" y="355"/>
      <point x="389" y="357"/>
      <point x="389" y="364" type="curve" smooth="yes"/>
      <point x="389" y="649" type="line"/>
      <point x="502" y="458" type="line" smooth="yes"/>
      <point x="505" y="452"/>
      <point x="510" y="451"/>
      <point x="518" y="451" type="curve" smooth="yes"/>
      <point x="525" y="451"/>
      <point x="529" y="452"/>
      <point x="533" y="459" type="curve" smooth="yes"/>
      <point x="646" y="649" type="line"/>
      <point x="646" y="364" type="line" smooth="yes"/>
      <point x="646" y="357"/>
      <point x="652" y="355"/>
      <point x="660" y="355" type="curve" smooth="yes"/>
      <point x="669" y="355"/>
      <point x="674" y="357"/>
      <point x="674" y="364" type="curve" smooth="yes"/>
      <point x="674" y="702" type="line" smooth="yes"/>
      <point x="674" y="708"/>
      <point x="670" y="711"/>
      <point x="660" y="711" type="curve" smooth="yes"/>
      <point x="652" y="711"/>
      <point x="648" y="708"/>
      <point x="645" y="702" type="curve" smooth="yes"/>
      <point x="518" y="484" type="line"/>
      <point x="390" y="702" type="line" smooth="yes"/>
      <point x="387" y="708"/>
      <point x="383" y="711"/>
      <point x="375" y="711" type="curve" smooth="yes"/>
      <point x="366" y="711"/>
      <point x="361" y="708"/>
      <point x="361" y="702" type="curve" smooth="yes"/>
      <point x="361" y="364" type="line" smooth="yes"/>
      <point x="361" y="357"/>
      <point x="367" y="355"/>
    </contour>
  </outline>
</glyph>
<glyph name="product" format="2">
  <advance width="1130"/>
  <unicode hex="220F"/>
  <outline>
    <contour>
      <point x="250" y="-82" type="curve" smooth="yes"/>
      <point x="264" y="-82"/>
      <point x="269" y="-79"/>
      <point x="269" y="-67" type="curve" smooth="yes"/>
      <point x="269" y="1453" type="line"/>
      <point x="861" y="1453" type="line"/>
      <point x="861" y="-67" type="line" smooth="yes"/>
      <point x="861" y="-79"/>
      <point x="866" y="-82"/>
      <point x="880" y="-82" type="curve" smooth="yes"/>
      <point x="893" y="-82"/>
      <point x="898" y="-79"/>
      <point x="898" y="-67" type="curve" smooth="yes"/>
      <point x="898" y="1453" type="line"/>
      <point x="1083" y="1453" type="line" smooth="yes"/>
      <point x="1090" y="1453"/>
      <point x="1095" y="1459"/>
      <point x="1095" y="1472" type="curve" smooth="yes"/>
      <point x="1095" y="1484"/>
      <point x="1090" y="1488"/>
      <point x="1083" y="1488" type="curve" smooth="yes"/>
      <point x="46" y="1488" type="line" smooth="yes"/>
      <point x="40" y="1488"/>
      <point x="35" y="1483"/>
      <point x="35" y="1471" type="curve" smooth="yes"/>
      <point x="35" y="1458"/>
      <point x="40" y="1453"/>
      <point x="46" y="1453" type="curve" smooth="yes"/>
      <point x="231" y="1453" type="line"/>
      <point x="231" y="-67" type="line" smooth="yes"/>
      <point x="231" y="-79"/>
      <point x="236" y="-82"/>
    </contour>
  </outline>
</glyph>
<glyph name="notequal" format="2">
  <advance width="610"/>
  <unicode hex="2260"/>
  <outline>
    <contour>
      <point x="228" y="56" type="curve" smooth="yes"/>
      <point x="239" y="53"/>
      <point x="244" y="55"/>
      <point x="246" y="64" type="curve" smooth="yes"/>
      <point x="393" y="629" type="line" smooth="yes"/>
      <point x="395" y="637"/>
      <point x="391" y="641"/>
      <point x="382" y="644" type="curve" smooth="yes"/>
      <point x="371" y="647"/>
      <point x="366" y="645"/>
      <point x="364" y="636" type="curve" smooth="yes"/>
      <point x="217" y="71" type="line" smooth="yes"/>
      <point x="215" y="63"/>
      <point x="218" y="59"/>
    </contour>
    <component base="equal"/>
  </outline>
</glyph>
<glyph name="A.cur" format="2">
	<advance width="1214"/>
	<outline>
		<contour>
			<point x="484" y="-15" type="curve" smooth="yes"/>
			<point x="710" y="-15"/>
			<point x="874" y="235"/>
			<point x="911" y="638" type="curve"/>
			<point x="891" y="653" type="line"/>
			<point x="846" y="256"/>
			<point x="693" y="15"/>
			<point x="488" y="15" type="curve" smooth="yes"/>
			<point x="270" y="15"/>
			<point x="141" y="222"/>
			<point x="141" y="571" type="curve" smooth="yes"/>
			<point x="141" y="925"/>
			<point x="322" y="1182"/>
			<point x="572" y="1182" type="curve" smooth="yes"/>
			<point x="727" y="1182"/>
			<point x="842" y="1091"/>
			<point x="905" y="919" type="curve" smooth="yes"/>
			<point x="910" y="904"/>
			<point x="916" y="900"/>
			<point x="926" y="904" type="curve" smooth="yes"/>
			<point x="936" y="908"/>
			<point x="937" y="917"/>
			<point x="933" y="928" type="curve" smooth="yes"/>
			<point x="874" y="1106"/>
			<point x="747" y="1212"/>
			<point x="572" y="1212" type="curve" smooth="yes"/>
			<point x="303" y="1212"/>
			<point x="108" y="943"/>
			<point x="108" y="571" type="curve" smooth="yes"/>
			<point x="108" y="203"/>
			<point x="248" y="-15"/>
		</contour>
		<contour>
			<point x="1027" y="-15" type="curve" smooth="yes"/>
			<point x="1099" y="-15"/>
			<point x="1144" y="21"/>
			<point x="1185" y="96" type="curve" smooth="yes"/>
			<point x="1188" y="102"/>
			<point x="1188" y="109"/>
			<point x="1181" y="113" type="curve" smooth="yes"/>
			<point x="1173" y="117"/>
			<point x="1166" y="117"/>
			<point x="1162" y="110" type="curve" smooth="yes"/>
			<point x="1115" y="32"/>
			<point x="1083" y="14"/>
			<point x="1032" y="14" type="curve" smooth="yes"/>
			<point x="951" y="14"/>
			<point x="921" y="63"/>
			<point x="921" y="193" type="curve" smooth="yes"/>
			<point x="921" y="653" type="line" smooth="yes"/>
			<point x="921" y="662"/>
			<point x="916" y="665"/>
			<point x="906" y="665" type="curve" smooth="yes"/>
			<point x="895" y="665"/>
			<point x="891" y="662"/>
			<point x="891" y="653" type="curve" smooth="yes"/>
			<point x="891" y="193" type="line" smooth="yes"/>
			<point x="891" y="47"/>
			<point x="932" y="-15"/>
		</contour>
	</outline>
	<anchor name="bottom" x="484" y="0"/>
	<anchor name="ogonek" x="1135" y="17"/>
	<anchor name="top" x="569" y="1139"/>
</glyph>
<glyph name="A.cur.ini" format="2">
  <advance width="1439"/>
  <anchor x="605" y="0" name="bottom"/>
  <anchor x="1440" y="0" name="cnct"/>
  <anchor x="1419" y="21" name="ogonek"/>
  <anchor x="711" y="1424" name="top"/>
  <outline>
    <contour>
      <point x="605" y="-17" type="curve" smooth="yes"/>
      <point x="851" y="-17"/>
      <point x="1040" y="220"/>
      <point x="1114" y="616" type="curve"/>
      <point x="1114" y="383" type="line" smooth="yes"/>
      <point x="1114" y="103"/>
      <point x="1193" y="-17"/>
      <point x="1379" y="-17" type="curve" smooth="yes"/>
      <point x="1404" y="-17"/>
      <point x="1404" y="18"/>
      <point x="1379" y="18" type="curve" smooth="yes"/>
      <point x="1219" y="18"/>
      <point x="1151" y="126"/>
      <point x="1151" y="383" type="curve" smooth="yes"/>
      <point x="1151" y="816" type="line" smooth="yes"/>
      <point x="1151" y="828"/>
      <point x="1145" y="831"/>
      <point x="1133" y="831" type="curve" smooth="yes"/>
      <point x="1119" y="831"/>
      <point x="1114" y="828"/>
      <point x="1114" y="816" type="curve"/>
      <point x="1058" y="320"/>
      <point x="866" y="20"/>
      <point x="610" y="20" type="curve" smooth="yes"/>
      <point x="338" y="20"/>
      <point x="176" y="278"/>
      <point x="176" y="714" type="curve" smooth="yes"/>
      <point x="176" y="1156"/>
      <point x="403" y="1478"/>
      <point x="715" y="1478" type="curve" smooth="yes"/>
      <point x="909" y="1478"/>
      <point x="1053" y="1364"/>
      <point x="1131" y="1149" type="curve" smooth="yes"/>
      <point x="1138" y="1130"/>
      <point x="1145" y="1125"/>
      <point x="1158" y="1130" type="curve" smooth="yes"/>
      <point x="1170" y="1135"/>
      <point x="1171" y="1146"/>
      <point x="1166" y="1160" type="curve" smooth="yes"/>
      <point x="1093" y="1383"/>
      <point x="934" y="1515"/>
      <point x="715" y="1515" type="curve" smooth="yes"/>
      <point x="379" y="1515"/>
      <point x="135" y="1179"/>
      <point x="135" y="714" type="curve" smooth="yes"/>
      <point x="135" y="254"/>
      <point x="310" y="-17"/>
    </contour>
  </outline>
</glyph>
<glyph name="A.cur_locl" format="2">
  <advance width="1214"/>
  <anchor x="484" y="0" name="bottom"/>
  <anchor x="1135" y="17" name="ogonek"/>
  <anchor x="569" y="1139" name="top"/>
  <outline>
    <contour>
      <point x="484" y="-15" type="curve" smooth="yes"/>
      <point x="710" y="-15"/>
      <point x="874" y="235"/>
      <point x="911" y="638" type="curve"/>
      <point x="891" y="653" type="line"/>
      <point x="846" y="256"/>
      <point x="693" y="15"/>
      <point x="488" y="15" type="curve" smooth="yes"/>
      <point x="270" y="15"/>
      <point x="141" y="222"/>
      <point x="141" y="571" type="curve" smooth="yes"/>
      <point x="141" y="925"/>
      <point x="322" y="1182"/>
      <point x="572" y="1182" type="curve" smooth="yes"/>
      <point x="721" y="1182"/>
      <point x="832" y="1097"/>
      <point x="901" y="929" type="curve"/>
      <point x="901" y="994" type="line"/>
      <point x="835" y="1129"/>
      <point x="711" y="1212"/>
      <point x="572" y="1212" type="curve" smooth="yes"/>
      <point x="303" y="1212"/>
      <point x="108" y="943"/>
      <point x="108" y="571" type="curve" smooth="yes"/>
      <point x="108" y="203"/>
      <point x="248" y="-15"/>
    </contour>
    <contour>
      <point x="1027" y="-15" type="curve" smooth="yes"/>
      <point x="1099" y="-15"/>
      <point x="1144" y="21"/>
      <point x="1185" y="96" type="curve" smooth="yes"/>
      <point x="1188" y="102"/>
      <point x="1188" y="109"/>
      <point x="1181" y="113" type="curve" smooth="yes"/>
      <point x="1173" y="117"/>
      <point x="1166" y="117"/>
      <point x="1162" y="110" type="curve" smooth="yes"/>
      <point x="1115" y="32"/>
      <point x="1083" y="14"/>
      <point x="1032" y="14" type="curve" smooth="yes"/>
      <point x="951" y="14"/>
      <point x="921" y="63"/>
      <point x="921" y="193" type="curve" smooth="yes"/>
      <point x="921" y="1200" type="line" smooth="yes"/>
      <point x="921" y="1209"/>
      <point x="916" y="1212"/>
      <point x="906" y="1212" type="curve" smooth="yes"/>
      <point x="895" y="1212"/>
      <point x="891" y="1209"/>
      <point x="891" y="1200" type="curve" smooth="yes"/>
      <point x="891" y="193" type="line" smooth="yes"/>
      <point x="891" y="47"/>
      <point x="932" y="-15"/>
    </contour>
  </outline>
</glyph>
<glyph name="A.cur_locl.ini" format="2">
	<advance width="1151"/>
	<outline>
		<contour>
			<point x="484" y="-15" type="curve" smooth="yes"/>
			<point x="710" y="-15"/>
			<point x="874" y="235"/>
			<point x="911" y="638" type="curve"/>
			<point x="891" y="653" type="line"/>
			<point x="846" y="256"/>
			<point x="693" y="15"/>
			<point x="488" y="15" type="curve" smooth="yes"/>
			<point x="270" y="15"/>
			<point x="141" y="222"/>
			<point x="141" y="571" type="curve" smooth="yes"/>
			<point x="141" y="925"/>
			<point x="322" y="1182"/>
			<point x="572" y="1182" type="curve" smooth="yes"/>
			<point x="721" y="1182"/>
			<point x="832" y="1097"/>
			<point x="901" y="929" type="curve"/>
			<point x="901" y="994" type="line"/>
			<point x="835" y="1129"/>
			<point x="711" y="1212"/>
			<point x="572" y="1212" type="curve" smooth="yes"/>
			<point x="303" y="1212"/>
			<point x="108" y="943"/>
			<point x="108" y="571" type="curve" smooth="yes"/>
			<point x="108" y="203"/>
			<point x="248" y="-15"/>
		</contour>
		<contour>
			<point x="1103" y="-14" type="curve" smooth="yes"/>
			<point x="1123" y="-14"/>
			<point x="1123" y="14"/>
			<point x="1103" y="14" type="curve" smooth="yes"/>
			<point x="975" y="14"/>
			<point x="921" y="101"/>
			<point x="921" y="306" type="curve" smooth="yes"/>
			<point x="921" y="1200" type="line" smooth="yes"/>
			<point x="921" y="1209"/>
			<point x="916" y="1212"/>
			<point x="906" y="1212" type="curve" smooth="yes"/>
			<point x="895" y="1212"/>
			<point x="891" y="1209"/>
			<point x="891" y="1200" type="curve" smooth="yes"/>
			<point x="891" y="306" type="line" smooth="yes"/>
			<point x="891" y="82"/>
			<point x="954" y="-14"/>
		</contour>
	</outline>
	<anchor name="bottom" x="484" y="0"/>
	<anchor name="cnct" x="1152" y="0"/>
	<anchor name="ogonek" x="1135" y="17"/>
	<anchor name="top" x="569" y="1139"/>
</glyph>
<glyph name="A.dec" format="2">
  <advance width="1454"/>
  <anchor x="789" y="0" name="bottom"/>
  <anchor x="1278" y="0" name="ogonek"/>
  <anchor x="864" y="1424" name="top"/>
  <outline>
    <contour>
      <point x="213" y="-17" type="curve" smooth="yes"/>
      <point x="501" y="-17"/>
      <point x="668" y="356"/>
      <point x="870" y="1454" type="curve"/>
      <point x="860" y="1451" type="line"/>
      <point x="936" y="1036"/>
      <point x="1081" y="483"/>
      <point x="1240" y="-4" type="curve" smooth="yes"/>
      <point x="1245" y="-20"/>
      <point x="1253" y="-21"/>
      <point x="1265" y="-16" type="curve" smooth="yes"/>
      <point x="1278" y="-11"/>
      <point x="1281" y="-6"/>
      <point x="1276" y="9" type="curve" smooth="yes"/>
      <point x="1121" y="463"/>
      <point x="979" y="1025"/>
      <point x="891" y="1493" type="curve" smooth="yes"/>
      <point x="889" y="1508"/>
      <point x="881" y="1515"/>
      <point x="866" y="1515" type="curve" smooth="yes"/>
      <point x="851" y="1515"/>
      <point x="843" y="1506"/>
      <point x="840" y="1493" type="curve" smooth="yes"/>
      <point x="634" y="394"/>
      <point x="475" y="20"/>
      <point x="213" y="20" type="curve" smooth="yes"/>
      <point x="161" y="20"/>
      <point x="119" y="30"/>
      <point x="88" y="46" type="curve" smooth="yes"/>
      <point x="76" y="51"/>
      <point x="68" y="51"/>
      <point x="61" y="36" type="curve" smooth="yes"/>
      <point x="54" y="19"/>
      <point x="69" y="11"/>
      <point x="75" y="9" type="curve" smooth="yes"/>
      <point x="104" y="-4"/>
      <point x="154" y="-17"/>
    </contour>
    <contour>
      <point x="1205" y="106" type="curve"/>
      <point x="1234" y="123" type="line"/>
      <point x="1099" y="505"/>
      <point x="910" y="666"/>
      <point x="615" y="666" type="curve" smooth="yes"/>
      <point x="471" y="666"/>
      <point x="368" y="589"/>
      <point x="368" y="476" type="curve" smooth="yes"/>
      <point x="368" y="341"/>
      <point x="524" y="239"/>
      <point x="739" y="239" type="curve" smooth="yes"/>
      <point x="1059" y="239"/>
      <point x="1219" y="333"/>
      <point x="1359" y="603" type="curve" smooth="yes"/>
      <point x="1363" y="611"/>
      <point x="1359" y="619"/>
      <point x="1350" y="623" type="curve" smooth="yes"/>
      <point x="1341" y="628"/>
      <point x="1333" y="625"/>
      <point x="1329" y="618" type="curve" smooth="yes"/>
      <point x="1194" y="363"/>
      <point x="1044" y="274"/>
      <point x="739" y="274" type="curve" smooth="yes"/>
      <point x="548" y="274"/>
      <point x="409" y="361"/>
      <point x="409" y="474" type="curve" smooth="yes"/>
      <point x="409" y="568"/>
      <point x="495" y="631"/>
      <point x="615" y="631" type="curve" smooth="yes"/>
      <point x="891" y="631"/>
      <point x="1071" y="476"/>
    </contour>
  </outline>
</glyph>
<glyph name="A.dec2.ini" format="2">
	<advance width="1109"/>
	<outline>
		<contour>
			<point x="1061" y="-14" type="curve" smooth="yes"/>
			<point x="1081" y="-14"/>
			<point x="1081" y="14"/>
			<point x="1061" y="14" type="curve" smooth="yes"/>
			<point x="981" y="14"/>
			<point x="942" y="54"/>
			<point x="914" y="182" type="curve" smooth="yes"/>
			<point x="846" y="495"/>
			<point x="810" y="789"/>
			<point x="775" y="1196" type="curve"/>
			<point x="747" y="1186" type="line"/>
			<point x="776" y="833"/>
			<point x="812" y="504"/>
			<point x="884" y="176" type="curve" smooth="yes"/>
			<point x="915" y="35"/>
			<point x="963" y="-14"/>
		</contour>
		<contour>
			<point x="293" y="-14" type="curve" smooth="yes"/>
			<point x="683" y="-14"/>
			<point x="455" y="1022"/>
			<point x="780" y="1183" type="curve" smooth="yes"/>
			<point x="786" y="1186"/>
			<point x="787" y="1192"/>
			<point x="783" y="1202" type="curve" smooth="yes"/>
			<point x="780" y="1209"/>
			<point x="775" y="1211"/>
			<point x="769" y="1208" type="curve" smooth="yes"/>
			<point x="421" y="1032"/>
			<point x="641" y="16"/>
			<point x="296" y="16" type="curve" smooth="yes"/>
			<point x="201" y="16"/>
			<point x="129" y="105"/>
			<point x="129" y="229" type="curve" smooth="yes"/>
			<point x="129" y="464"/>
			<point x="264" y="544"/>
			<point x="661" y="544" type="curve" smooth="yes"/>
			<point x="928" y="544" type="line" smooth="yes"/>
			<point x="935" y="544"/>
			<point x="938" y="549"/>
			<point x="938" y="559" type="curve" smooth="yes"/>
			<point x="938" y="568"/>
			<point x="935" y="573"/>
			<point x="928" y="573" type="curve" smooth="yes"/>
			<point x="661" y="573" type="line" smooth="yes"/>
			<point x="240" y="573"/>
			<point x="96" y="486"/>
			<point x="96" y="229" type="curve" smooth="yes"/>
			<point x="96" y="88"/>
			<point x="179" y="-14"/>
		</contour>
	</outline>
	<anchor name="bottom" x="680" y="0"/>
	<anchor name="cnct" x="1109" y="0"/>
	<anchor name="ogonek" x="1095" y="-3"/>
	<anchor name="top" x="692" y="1139"/>
</glyph>
<glyph name="A.dec_locl" format="2">
  <advance width="1283"/>
  <anchor x="631" y="0" name="bottom"/>
  <anchor x="1164" y="0" name="ogonek"/>
  <anchor x="691" y="1139" name="top"/>
  <outline>
    <contour>
      <point x="170" y="-14" type="curve" smooth="yes"/>
      <point x="401" y="-14"/>
      <point x="534" y="285"/>
      <point x="696" y="1163" type="curve"/>
      <point x="688" y="1161" type="line"/>
      <point x="731" y="924"/>
      <point x="803" y="631"/>
      <point x="896" y="306" type="curve" smooth="yes"/>
      <point x="964" y="66"/>
      <point x="1022" y="-14"/>
      <point x="1111" y="-14" type="curve" smooth="yes"/>
      <point x="1203" y="-14"/>
      <point x="1261" y="99"/>
      <point x="1283" y="320" type="curve" smooth="yes"/>
      <point x="1284" y="328"/>
      <point x="1278" y="332"/>
      <point x="1269" y="332" type="curve" smooth="yes"/>
      <point x="1259" y="332"/>
      <point x="1255" y="328"/>
      <point x="1254" y="320" type="curve" smooth="yes"/>
      <point x="1233" y="118"/>
      <point x="1185" y="15"/>
      <point x="1111" y="15" type="curve" smooth="yes"/>
      <point x="1040" y="15"/>
      <point x="989" y="90"/>
      <point x="924" y="315" type="curve" smooth="yes"/>
      <point x="833" y="632"/>
      <point x="762" y="932"/>
      <point x="713" y="1194" type="curve" smooth="yes"/>
      <point x="711" y="1206"/>
      <point x="705" y="1212"/>
      <point x="693" y="1212" type="curve" smooth="yes"/>
      <point x="681" y="1212"/>
      <point x="674" y="1205"/>
      <point x="672" y="1194" type="curve" smooth="yes"/>
      <point x="507" y="315"/>
      <point x="380" y="16"/>
      <point x="170" y="16" type="curve" smooth="yes"/>
      <point x="129" y="16"/>
      <point x="95" y="24"/>
      <point x="70" y="37" type="curve" smooth="yes"/>
      <point x="61" y="41"/>
      <point x="54" y="41"/>
      <point x="49" y="29" type="curve" smooth="yes"/>
      <point x="43" y="15"/>
      <point x="55" y="9"/>
      <point x="60" y="7" type="curve" smooth="yes"/>
      <point x="83" y="-3"/>
      <point x="123" y="-14"/>
    </contour>
    <contour>
      <point x="502" y="390" type="line"/>
      <point x="883" y="390" type="line"/>
      <point x="883" y="416" type="line"/>
      <point x="502" y="416" type="line"/>
    </contour>
  </outline>
</glyph>
<glyph name="A.dec_locl.ini" format="2">
  <advance width="1454"/>
  <anchor x="789" y="0" name="bottom"/>
  <anchor x="1454" y="0" name="cnct"/>
  <anchor x="1428" y="0" name="ogonek"/>
  <anchor x="864" y="1424" name="top"/>
  <outline>
    <contour>
      <point x="213" y="-17" type="curve" smooth="yes"/>
      <point x="390" y="-17"/>
      <point x="521" y="124"/>
      <point x="643" y="488" type="curve"/>
      <point x="1091" y="488" type="line"/>
      <point x="1107" y="430"/>
      <point x="1124" y="373"/>
      <point x="1140" y="315" type="curve" smooth="yes"/>
      <point x="1210" y="68"/>
      <point x="1275" y="-17"/>
      <point x="1394" y="-17" type="curve" smooth="yes"/>
      <point x="1419" y="-17"/>
      <point x="1419" y="18"/>
      <point x="1394" y="18" type="curve" smooth="yes"/>
      <point x="1298" y="18"/>
      <point x="1241" y="96"/>
      <point x="1175" y="326" type="curve" smooth="yes"/>
      <point x="1041" y="790"/>
      <point x="953" y="1165"/>
      <point x="891" y="1493" type="curve" smooth="yes"/>
      <point x="889" y="1508"/>
      <point x="881" y="1515"/>
      <point x="866" y="1515" type="curve" smooth="yes"/>
      <point x="851" y="1515"/>
      <point x="843" y="1506"/>
      <point x="840" y="1493" type="curve" smooth="yes"/>
      <point x="634" y="394"/>
      <point x="475" y="20"/>
      <point x="213" y="20" type="curve" smooth="yes"/>
      <point x="161" y="20"/>
      <point x="119" y="30"/>
      <point x="88" y="46" type="curve" smooth="yes"/>
      <point x="76" y="51"/>
      <point x="68" y="51"/>
      <point x="61" y="36" type="curve" smooth="yes"/>
      <point x="54" y="19"/>
      <point x="69" y="11"/>
      <point x="75" y="9" type="curve" smooth="yes"/>
      <point x="104" y="-4"/>
      <point x="154" y="-17"/>
    </contour>
    <contour>
      <point x="654" y="520" type="line"/>
      <point x="725" y="740"/>
      <point x="792" y="1036"/>
      <point x="865" y="1425" type="curve"/>
      <point x="911" y="1179"/>
      <point x="981" y="884"/>
      <point x="1082" y="520" type="curve"/>
    </contour>
  </outline>
</glyph>
<glyph name="AE.cur" format="2">
  <advance width="1601"/>
  <anchor x="931" y="1139" name="top"/>
  <outline>
    <contour>
      <point x="138" y="-14" type="curve" smooth="yes"/>
      <point x="286" y="-14"/>
      <point x="395" y="138"/>
      <point x="769" y="1172" type="curve"/>
      <point x="763" y="1170" type="line"/>
      <point x="776" y="896"/>
      <point x="820" y="535"/>
      <point x="872" y="245" type="curve" smooth="yes"/>
      <point x="875" y="232"/>
      <point x="879" y="232"/>
      <point x="890" y="235" type="curve" smooth="yes"/>
      <point x="902" y="238"/>
      <point x="904" y="241"/>
      <point x="900" y="262" type="curve" smooth="yes"/>
      <point x="848" y="541"/>
      <point x="808" y="908"/>
      <point x="792" y="1186" type="curve" smooth="yes"/>
      <point x="791" y="1203"/>
      <point x="784" y="1212"/>
      <point x="770" y="1212" type="curve" smooth="yes"/>
      <point x="757" y="1212"/>
      <point x="751" y="1204"/>
      <point x="748" y="1197" type="curve" smooth="yes"/>
      <point x="370" y="164"/>
      <point x="263" y="16"/>
      <point x="137" y="16" type="curve" smooth="yes"/>
      <point x="117" y="16"/>
      <point x="96" y="22"/>
      <point x="75" y="31" type="curve" smooth="yes"/>
      <point x="68" y="34"/>
      <point x="60" y="36"/>
      <point x="54" y="24" type="curve" smooth="yes"/>
      <point x="48" y="11"/>
      <point x="54" y="6"/>
      <point x="60" y="3" type="curve" smooth="yes"/>
      <point x="88" y="-8"/>
      <point x="110" y="-14"/>
    </contour>
    <contour>
      <point x="447" y="400" type="line"/>
      <point x="858" y="400" type="line"/>
      <point x="852" y="426" type="line"/>
      <point x="456" y="426" type="line"/>
    </contour>
    <contour>
      <point x="1189" y="-15" type="curve" smooth="yes"/>
      <point x="1312" y="-15"/>
      <point x="1448" y="60"/>
      <point x="1531" y="174" type="curve" smooth="yes"/>
      <point x="1537" y="183"/>
      <point x="1539" y="193"/>
      <point x="1532" y="199" type="curve" smooth="yes"/>
      <point x="1525" y="206"/>
      <point x="1517" y="203"/>
      <point x="1512" y="196" type="curve" smooth="yes"/>
      <point x="1433" y="87"/>
      <point x="1306" y="15"/>
      <point x="1190" y="15" type="curve" smooth="yes"/>
      <point x="1012" y="15"/>
      <point x="901" y="121"/>
      <point x="901" y="300" type="curve" smooth="yes"/>
      <point x="901" y="482"/>
      <point x="1029" y="614"/>
      <point x="1200" y="614" type="curve" smooth="yes"/>
      <point x="1345" y="614" type="line" smooth="yes"/>
      <point x="1350" y="614"/>
      <point x="1354" y="618"/>
      <point x="1354" y="628" type="curve" smooth="yes"/>
      <point x="1354" y="638"/>
      <point x="1350" y="642"/>
      <point x="1345" y="642" type="curve" smooth="yes"/>
      <point x="1200" y="642" type="line" smooth="yes"/>
      <point x="1048" y="642"/>
      <point x="948" y="744"/>
      <point x="948" y="899" type="curve" smooth="yes"/>
      <point x="948" y="1065"/>
      <point x="1055" y="1182"/>
      <point x="1209" y="1182" type="curve" smooth="yes"/>
      <point x="1306" y="1182"/>
      <point x="1410" y="1135"/>
      <point x="1473" y="1063" type="curve" smooth="yes"/>
      <point x="1483" y="1051"/>
      <point x="1491" y="1049"/>
      <point x="1499" y="1057" type="curve" smooth="yes"/>
      <point x="1506" y="1064"/>
      <point x="1505" y="1071"/>
      <point x="1499" y="1078" type="curve" smooth="yes"/>
      <point x="1432" y="1159"/>
      <point x="1319" y="1212"/>
      <point x="1213" y="1212" type="curve" smooth="yes"/>
      <point x="1037" y="1212"/>
      <point x="915" y="1081"/>
      <point x="915" y="897" type="curve" smooth="yes"/>
      <point x="915" y="764"/>
      <point x="991" y="658"/>
      <point x="1108" y="629" type="curve"/>
      <point x="969" y="593"/>
      <point x="868" y="455"/>
      <point x="868" y="300" type="curve" smooth="yes"/>
      <point x="868" y="102"/>
      <point x="991" y="-15"/>
    </contour>
  </outline>
</glyph>
<glyph name="AE.cur.locl" format="2">
  <advance width="1860"/>
  <anchor x="1025" y="1424" name="top"/>
  <outline>
    <contour>
      <point x="126" y="-17" type="curve" smooth="yes"/>
      <point x="282" y="-17"/>
      <point x="414" y="104"/>
      <point x="695" y="726" type="curve"/>
      <point x="1001" y="726" type="line"/>
      <point x="1001" y="14" type="line" smooth="yes"/>
      <point x="1001" y="3"/>
      <point x="1005" y="0"/>
      <point x="1021" y="0" type="curve" smooth="yes"/>
      <point x="1441" y="0" type="line" smooth="yes"/>
      <point x="1638" y="0"/>
      <point x="1780" y="111"/>
      <point x="1816" y="294" type="curve" smooth="yes"/>
      <point x="1819" y="305"/>
      <point x="1815" y="311"/>
      <point x="1805" y="314" type="curve" smooth="yes"/>
      <point x="1791" y="318"/>
      <point x="1785" y="313"/>
      <point x="1783" y="303" type="curve" smooth="yes"/>
      <point x="1748" y="136"/>
      <point x="1626" y="35"/>
      <point x="1434" y="35" type="curve" smooth="yes"/>
      <point x="1039" y="35" type="line"/>
      <point x="1041" y="726" type="line"/>
      <point x="1448" y="726" type="line" smooth="yes"/>
      <point x="1454" y="726"/>
      <point x="1459" y="731"/>
      <point x="1459" y="744" type="curve" smooth="yes"/>
      <point x="1459" y="756"/>
      <point x="1454" y="761"/>
      <point x="1448" y="761" type="curve" smooth="yes"/>
      <point x="1041" y="761" type="line"/>
      <point x="1039" y="1453" type="line"/>
      <point x="1624" y="1453" type="line" smooth="yes"/>
      <point x="1630" y="1453"/>
      <point x="1635" y="1458"/>
      <point x="1635" y="1470" type="curve" smooth="yes"/>
      <point x="1635" y="1483"/>
      <point x="1630" y="1488"/>
      <point x="1624" y="1488" type="curve" smooth="yes"/>
      <point x="1001" y="1488" type="line" smooth="yes"/>
      <point x="984" y="1488"/>
      <point x="974" y="1481"/>
      <point x="966" y="1463" type="curve" smooth="yes"/>
      <point x="454" y="190"/>
      <point x="299" y="20"/>
      <point x="124" y="20" type="curve" smooth="yes"/>
      <point x="95" y="20"/>
      <point x="71" y="26"/>
      <point x="41" y="39" type="curve" smooth="yes"/>
      <point x="31" y="44"/>
      <point x="23" y="41"/>
      <point x="18" y="30" type="curve" smooth="yes"/>
      <point x="11" y="16"/>
      <point x="14" y="9"/>
      <point x="26" y="4" type="curve" smooth="yes"/>
      <point x="59" y="-10"/>
      <point x="93" y="-17"/>
    </contour>
    <contour>
      <point x="711" y="761" type="line"/>
      <point x="793" y="946"/>
      <point x="889" y="1174"/>
      <point x="1001" y="1453" type="curve"/>
      <point x="1001" y="761" type="line"/>
    </contour>
  </outline>
</glyph>
<glyph name="B.cur" format="2">
  <advance width="1108"/>
  <guideline y="571"/>
  <anchor x="609" y="0" name="bottom"/>
  <anchor x="370" y="350" name="center"/>
  <anchor x="609" y="1139" name="top"/>
  <outline>
    <contour>
      <point x="654" y="-15" type="curve" smooth="yes"/>
      <point x="867" y="-15"/>
      <point x="1007" y="140"/>
      <point x="1007" y="376" type="curve" smooth="yes"/>
      <point x="1007" y="537"/>
      <point x="885" y="654"/>
      <point x="717" y="654" type="curve"/>
      <point x="717" y="656" type="line"/>
      <point x="854" y="690"/>
      <point x="944" y="803"/>
      <point x="944" y="943" type="curve" smooth="yes"/>
      <point x="944" y="1112"/>
      <point x="807" y="1212"/>
      <point x="550" y="1212" type="curve" smooth="yes"/>
      <point x="357" y="1212"/>
      <point x="194" y="1133"/>
      <point x="98" y="1008" type="curve" smooth="yes"/>
      <point x="91" y="999"/>
      <point x="94" y="990"/>
      <point x="106" y="984" type="curve" smooth="yes"/>
      <point x="113" y="981"/>
      <point x="118" y="984"/>
      <point x="122" y="989" type="curve" smooth="yes"/>
      <point x="219" y="1111"/>
      <point x="372" y="1182"/>
      <point x="546" y="1182" type="curve" smooth="yes"/>
      <point x="784" y="1182"/>
      <point x="911" y="1100"/>
      <point x="911" y="942" type="curve" smooth="yes"/>
      <point x="911" y="801"/>
      <point x="812" y="693"/>
      <point x="662" y="669" type="curve"/>
      <point x="636" y="676"/>
      <point x="626" y="679"/>
      <point x="601" y="679" type="curve" smooth="yes"/>
      <point x="570" y="679"/>
      <point x="549" y="664"/>
      <point x="549" y="642" type="curve" smooth="yes"/>
      <point x="549" y="624"/>
      <point x="565" y="613"/>
      <point x="590" y="613" type="curve" smooth="yes"/>
      <point x="609" y="613"/>
      <point x="634" y="618"/>
      <point x="664" y="632" type="curve"/>
      <point x="859" y="632"/>
      <point x="974" y="535"/>
      <point x="974" y="372" type="curve" smooth="yes"/>
      <point x="974" y="156"/>
      <point x="848" y="15"/>
      <point x="655" y="15" type="curve" smooth="yes"/>
      <point x="590" y="15"/>
      <point x="525" y="30"/>
      <point x="480" y="57" type="curve" smooth="yes"/>
      <point x="473" y="61"/>
      <point x="466" y="62"/>
      <point x="461" y="55" type="curve" smooth="yes"/>
      <point x="454" y="46"/>
      <point x="455" y="39"/>
      <point x="463" y="33" type="curve" smooth="yes"/>
      <point x="507" y="4"/>
      <point x="582" y="-15"/>
    </contour>
    <contour>
      <point x="232" y="-15" type="curve" smooth="yes"/>
      <point x="330" y="-15"/>
      <point x="388" y="62"/>
      <point x="388" y="193" type="curve" smooth="yes"/>
      <point x="388" y="1049" type="line" smooth="yes"/>
      <point x="388" y="1058"/>
      <point x="383" y="1061"/>
      <point x="373" y="1061" type="curve" smooth="yes"/>
      <point x="362" y="1061"/>
      <point x="358" y="1058"/>
      <point x="358" y="1049" type="curve" smooth="yes"/>
      <point x="358" y="193" type="line" smooth="yes"/>
      <point x="358" y="78"/>
      <point x="314" y="14"/>
      <point x="232" y="14" type="curve" smooth="yes"/>
      <point x="165" y="14"/>
      <point x="111" y="49"/>
      <point x="76" y="114" type="curve" smooth="yes"/>
      <point x="73" y="120"/>
      <point x="66" y="122"/>
      <point x="59" y="117" type="curve" smooth="yes"/>
      <point x="51" y="113"/>
      <point x="47" y="106"/>
      <point x="51" y="99" type="curve" smooth="yes"/>
      <point x="95" y="17"/>
      <point x="159" y="-15"/>
    </contour>
  </outline>
</glyph>
<glyph name="B.dec" format="2">
	<advance width="1139"/>
	<outline>
		<contour>
			<point x="683" y="-10" type="curve" smooth="yes"/>
			<point x="877" y="-10"/>
			<point x="1034" y="150"/>
			<point x="1034" y="372" type="curve" smooth="yes"/>
			<point x="1034" y="546"/>
			<point x="920" y="651"/>
			<point x="738" y="653" type="curve"/>
			<point x="738" y="655" type="line"/>
			<point x="874" y="687"/>
			<point x="971" y="766"/>
			<point x="971" y="937" type="curve" smooth="yes"/>
			<point x="971" y="1097"/>
			<point x="879" y="1212"/>
			<point x="701" y="1212" type="curve" smooth="yes"/>
			<point x="491" y="1212"/>
			<point x="311" y="1030"/>
			<point x="311" y="632" type="curve"/>
			<point x="334" y="632" type="line"/>
			<point x="334" y="998"/>
			<point x="506" y="1183"/>
			<point x="698" y="1183" type="curve" smooth="yes"/>
			<point x="866" y="1183"/>
			<point x="939" y="1079"/>
			<point x="939" y="937" type="curve" smooth="yes"/>
			<point x="939" y="772"/>
			<point x="838" y="693"/>
			<point x="686" y="667" type="curve"/>
			<point x="669" y="676"/>
			<point x="649" y="678"/>
			<point x="631" y="678" type="curve"/>
			<point x="596" y="675"/>
			<point x="576" y="658"/>
			<point x="576" y="638" type="curve" smooth="yes"/>
			<point x="576" y="619"/>
			<point x="594" y="607"/>
			<point x="619" y="609" type="curve"/>
			<point x="639" y="609"/>
			<point x="663" y="615"/>
			<point x="688" y="628" type="curve"/>
			<point x="888" y="628"/>
			<point x="1001" y="537"/>
			<point x="1001" y="371" type="curve" smooth="yes"/>
			<point x="1001" y="167"/>
			<point x="857" y="20"/>
			<point x="683" y="20" type="curve" smooth="yes"/>
			<point x="625" y="20"/>
			<point x="554" y="37"/>
			<point x="513" y="61" type="curve" smooth="yes"/>
			<point x="505" y="66"/>
			<point x="498" y="65"/>
			<point x="494" y="58" type="curve" smooth="yes"/>
			<point x="487" y="49"/>
			<point x="488" y="42"/>
			<point x="496" y="37" type="curve" smooth="yes"/>
			<point x="545" y="6"/>
			<point x="616" y="-10"/>
		</contour>
		<contour>
			<point x="319" y="-11" type="curve" smooth="yes"/>
			<point x="330" y="-11"/>
			<point x="334" y="-8"/>
			<point x="334" y="1" type="curve" smooth="yes"/>
			<point x="334" y="1200" type="line" smooth="yes"/>
			<point x="334" y="1209"/>
			<point x="329" y="1212"/>
			<point x="319" y="1212" type="curve" smooth="yes"/>
			<point x="310" y="1212"/>
			<point x="304" y="1209"/>
			<point x="303" y="1202" type="curve" smooth="yes"/>
			<point x="267" y="1019"/>
			<point x="199" y="894"/>
			<point x="55" y="814" type="curve" smooth="yes"/>
			<point x="47" y="810"/>
			<point x="44" y="803"/>
			<point x="48" y="795" type="curve" smooth="yes"/>
			<point x="53" y="785"/>
			<point x="59" y="784"/>
			<point x="66" y="788" type="curve" smooth="yes"/>
			<point x="220" y="879"/>
			<point x="284" y="989"/>
			<point x="326" y="1189" type="curve"/>
			<point x="311" y="1189" type="line"/>
			<point x="304" y="1171" type="line"/>
			<point x="304" y="1" type="line" smooth="yes"/>
			<point x="304" y="-8"/>
			<point x="308" y="-11"/>
		</contour>
	</outline>
	<anchor name="bottom" x="633" y="0"/>
	<anchor name="center" x="319" y="350"/>
	<anchor name="top" x="633" y="1139"/>
</glyph>
<glyph name="C.cur" format="2">
	<advance width="960"/>
	<outline>
		<contour>
			<point x="550" y="-15" type="curve" smooth="yes"/>
			<point x="679" y="-15"/>
			<point x="788" y="45"/>
			<point x="891" y="168" type="curve" smooth="yes"/>
			<point x="899" y="178"/>
			<point x="899" y="185"/>
			<point x="890" y="192" type="curve" smooth="yes"/>
			<point x="883" y="198"/>
			<point x="877" y="195"/>
			<point x="869" y="185" type="curve" smooth="yes"/>
			<point x="776" y="70"/>
			<point x="673" y="15"/>
			<point x="550" y="15" type="curve" smooth="yes"/>
			<point x="304" y="15"/>
			<point x="153" y="244"/>
			<point x="153" y="593" type="curve" smooth="yes"/>
			<point x="153" y="939"/>
			<point x="323" y="1182"/>
			<point x="579" y="1182" type="curve" smooth="yes"/>
			<point x="700" y="1182"/>
			<point x="811" y="1111"/>
			<point x="897" y="978" type="curve" smooth="yes"/>
			<point x="906" y="964"/>
			<point x="911" y="960"/>
			<point x="919" y="965" type="curve" smooth="yes"/>
			<point x="930" y="972"/>
			<point x="930" y="980"/>
			<point x="921" y="994" type="curve" smooth="yes"/>
			<point x="826" y="1140"/>
			<point x="712" y="1212"/>
			<point x="579" y="1212" type="curve" smooth="yes"/>
			<point x="309" y="1212"/>
			<point x="120" y="964"/>
			<point x="120" y="593" type="curve" smooth="yes"/>
			<point x="120" y="218"/>
			<point x="289" y="-15"/>
		</contour>
	</outline>
	<anchor name="bottom" x="546" y="0"/>
	<anchor name="top" x="566" y="1139"/>
</glyph>
<glyph name="D.cur" format="2">
  <advance width="1548"/>
  <anchor x="815" y="-21" name="bottom"/>
  <anchor x="561" y="723" name="center"/>
  <anchor x="833" y="1403" name="top"/>
  <outline>
    <contour>
      <point x="818" y="-19" type="curve" smooth="yes"/>
      <point x="1165" y="-19"/>
      <point x="1393" y="309"/>
      <point x="1393" y="808" type="curve" smooth="yes"/>
      <point x="1393" y="1253"/>
      <point x="1139" y="1515"/>
      <point x="733" y="1515" type="curve" smooth="yes"/>
      <point x="458" y="1515"/>
      <point x="251" y="1429"/>
      <point x="123" y="1260" type="curve" smooth="yes"/>
      <point x="114" y="1249"/>
      <point x="118" y="1238"/>
      <point x="133" y="1230" type="curve" smooth="yes"/>
      <point x="141" y="1226"/>
      <point x="148" y="1230"/>
      <point x="153" y="1236" type="curve" smooth="yes"/>
      <point x="279" y="1396"/>
      <point x="473" y="1478"/>
      <point x="728" y="1478" type="curve" smooth="yes"/>
      <point x="1115" y="1478"/>
      <point x="1351" y="1231"/>
      <point x="1351" y="806" type="curve" smooth="yes"/>
      <point x="1351" y="330"/>
      <point x="1140" y="19"/>
      <point x="819" y="19" type="curve" smooth="yes"/>
      <point x="738" y="19"/>
      <point x="656" y="38"/>
      <point x="600" y="71" type="curve" smooth="yes"/>
      <point x="591" y="76"/>
      <point x="583" y="78"/>
      <point x="576" y="69" type="curve" smooth="yes"/>
      <point x="568" y="58"/>
      <point x="569" y="49"/>
      <point x="579" y="41" type="curve" smooth="yes"/>
      <point x="634" y="5"/>
      <point x="728" y="-19"/>
    </contour>
    <contour>
      <point x="290" y="-19" type="curve" smooth="yes"/>
      <point x="413" y="-19"/>
      <point x="485" y="78"/>
      <point x="485" y="241" type="curve" smooth="yes"/>
      <point x="485" y="1311" type="line" smooth="yes"/>
      <point x="485" y="1323"/>
      <point x="479" y="1326"/>
      <point x="466" y="1326" type="curve" smooth="yes"/>
      <point x="453" y="1326"/>
      <point x="448" y="1323"/>
      <point x="448" y="1311" type="curve" smooth="yes"/>
      <point x="448" y="241" type="line" smooth="yes"/>
      <point x="448" y="98"/>
      <point x="393" y="18"/>
      <point x="290" y="18" type="curve" smooth="yes"/>
      <point x="206" y="18"/>
      <point x="136" y="60"/>
      <point x="95" y="143" type="curve" smooth="yes"/>
      <point x="91" y="150"/>
      <point x="84" y="153"/>
      <point x="74" y="146" type="curve" smooth="yes"/>
      <point x="64" y="140"/>
      <point x="59" y="133"/>
      <point x="64" y="124" type="curve" smooth="yes"/>
      <point x="121" y="23"/>
      <point x="199" y="-19"/>
    </contour>
  </outline>
</glyph>
